<?xml version="1.0" encoding="utf-8"?>
<!-- Generator: Adobe Illustrator 24.1.1, SVG Export Plug-In . SVG Version: 6.00 Build 0)  -->
<svg version="1.1" id="Layer_1" xmlns="http://www.w3.org/2000/svg" xmlns:xlink="http://www.w3.org/1999/xlink" x="0px" y="0px"
	 viewBox="0 0 512 512" style="enable-background:new 0 0 512 512;" xml:space="preserve">
<g>
	<path style="fill:#FBF5F3;" d="M0.1,248.3C0.1,105.6,111.8,0,256,0C400.2,0,512,105.6,512,248.3c0,142.6-111.7,248.3-255.9,248.3c-25.8,0-50.7-3.4-74-9.8
		c-4.6-1.2-9.4-0.8-13.7,1.1l-51,22.4c-13.3,5.9-28.4-3.6-28.8-18.2L87,446.4c-0.2-5.6-2.7-10.7-6.7-14.5
		C28.4,385.1-0.8,318.2,0.1,248.3L0.1,248.3z M177.5,201.5L102.5,321c-7.5,11.2,6.8,24.3,17.5,16l80.8-61.2c5.6-4.3,12.8-4.3,18.6,0
		l59.7,44.8c18,13.4,43.6,8.5,55.5-10.3l75.1-119.5c7.5-11.2-6.8-24.1-17.5-16l-80.8,61.2c-5.3,4.3-12.8,4.3-18.3,0l-59.7-44.8
		C215.2,177.7,189.5,182.4,177.5,201.5z"/>
</g>
</svg>
