<!DOCTYPE svg PUBLIC "-//W3C//DTD SVG 20010904//EN" "http://www.w3.org/TR/2001/REC-SVG-20010904/DTD/svg10.dtd">
<svg version="1.0" xmlns="http://www.w3.org/2000/svg" width="839px" height="646px" viewBox="0 0 8390 6460" preserveAspectRatio="xMidYMid meet">
<g id="layerbg1" fill="#3fad20" stroke="none">
 <path d="M1773 6227 c-54 -15 -144 -91 -205 -171 -72 -96 -64 -93 -176 -67 -211 50 -229 51 -385 32 -99 -13 -162 -40 -218 -94 -79 -77 -109 -202 -74 -307 36 -107 43 -155 28 -184 -8 -15 -23 -27 -36 -27 -12 -1 -64 -3 -116 -5 -170 -6 -246 -60 -305 -218 -25 -66 -17 -159 24 -273 66 -184 90 -276 85 -328 -2 -27 -4 -55 -5 -62 0 -7 -26 -31 -58 -55 -31 -23 -91 -73 -133 -110 -62 -55 -83 -82 -114 -145 -21 -42 -42 -91 -47 -107 -45 -148 -40 -383 10 -453 12 -17 22 -35 22 -41 0 -19 81 -111 118 -132 99 -59 239 -92 402 -94 88 -1 116 3 170 23 111 40 141 60 245 162 133 131 190 207 309 414 78 135 98 155 155 155 46 0 63 -8 225 -99 48 -27 73 -34 136 -38 73 -5 80 -4 139 27 34 19 82 55 105 81 l43 48 -3 -51 c-5 -73 -32 -117 -93 -154 -57 -35 -193 -69 -233 -59 -37 9 -156 -23 -202 -54 -22 -14 -57 -48 -78 -74 -35 -46 -38 -53 -38 -115 0 -61 3 -71 34 -110 68 -85 96 -100 266 -147 30 -8 68 -25 85 -39 l30 -24 -40 -37 c-40 -37 -135 -102 -164 -113 -9 -3 -38 -24 -66 -47 -27 -23 -60 -47 -72 -54 -30 -15 -113 -125 -129 -170 -30 -83 -8 -221 49 -306 40 -60 133 -147 183 -171 139 -66 392 8 686 202 70 46 131 84 135 84 5 0 19 9 33 20 34 27 74 25 215 -9 171 -40 269 -35 356 20 59 37 106 97 124 157 17 55 12 175 -11 264 -21 85 -29 236 -15 281 13 40 28 51 77 60 35 7 71 -1 177 -39 100 -36 107 -32 128 72 9 43 37 144 62 224 25 80 48 161 52 180 4 19 20 72 36 118 37 107 64 213 84 332 9 52 27 140 40 195 30 128 40 221 26 229 -18 12 -161 -34 -246 -77 -86 -45 -222 -143 -254 -182 -15 -20 -19 -43 -20 -107 -1 -46 -3 -90 -4 -98 -3 -30 15 -157 34 -232 26 -106 25 -134 -10 -168 -16 -16 -40 -32 -54 -35 -29 -8 -93 19 -107 44 -13 25 -51 180 -57 231 -2 25 -8 49 -13 53 -9 10 -79 -106 -122 -202 -16 -36 -42 -94 -59 -127 -16 -34 -29 -66 -29 -73 0 -6 -22 -43 -48 -83 -26 -40 -88 -153 -136 -252 -98 -200 -135 -244 -241 -297 -57 -28 -64 -29 -101 -17 -30 10 -43 22 -58 52 -17 36 -18 43 -5 80 11 32 25 46 71 73 57 34 88 72 130 165 19 42 14 52 -15 36 -12 -6 -53 -19 -92 -28 -63 -16 -74 -16 -107 -3 -24 10 -42 26 -52 48 -21 43 -20 63 3 101 15 25 32 35 78 49 164 48 191 55 228 61 79 14 102 30 146 105 57 98 110 217 99 224 -4 3 -61 4 -125 3 l-117 -3 -29 33 c-40 44 -41 102 -1 141 32 33 79 40 269 42 l123 2 57 76 c62 83 195 234 258 294 49 47 198 148 274 186 70 35 181 73 286 96 44 10 85 23 91 29 16 15 28 142 15 150 -12 8 -119 30 -241 51 -145 24 -263 45 -310 55 -63 13 -372 31 -560 33 -110 1 -376 -10 -413 -17 -103 -20 -148 -29 -182 -38 -45 -12 -233 -92 -280 -119 -16 -10 -54 -30 -83 -44 -45 -23 -57 -35 -73 -74 -11 -25 -27 -59 -35 -76 -27 -54 -26 -119 6 -262 17 -73 30 -142 30 -153 0 -88 -126 -132 -180 -63 -11 14 -24 42 -29 62 -45 185 -54 237 -56 309 -1 45 -4 85 -7 88 -8 7 -151 -82 -227 -141 -49 -37 -65 -58 -99 -127 -22 -46 -49 -108 -61 -138 -21 -57 -71 -234 -71 -251 0 -21 -92 -195 -112 -211 -23 -20 -88 -24 -119 -8 -23 13 -49 61 -49 93 0 13 16 57 36 97 20 40 40 87 45 104 63 233 86 300 144 410 20 38 33 72 28 77 -4 4 -38 10 -74 12 -78 5 -103 17 -125 59 -20 39 -12 88 23 122 25 25 29 26 155 26 71 0 173 5 226 11 87 10 108 17 205 67 59 30 110 58 112 62 6 9 -28 31 -75 50 -47 18 -160 91 -188 122 -50 55 -45 134 11 168 18 11 42 20 55 20 28 0 73 -22 93 -46 44 -54 174 -106 331 -133 l116 -21 69 31 c109 50 224 91 278 99 28 4 57 10 65 13 34 13 191 20 485 20 308 1 467 -9 640 -39 50 -8 169 -28 265 -44 96 -17 194 -34 218 -39 23 -4 44 -6 46 -2 2 3 7 29 11 56 4 28 13 72 21 99 7 27 12 52 9 56 -5 9 -100 35 -205 56 -67 13 -175 18 -540 24 -388 6 -465 10 -520 25 -111 30 -172 68 -293 182 -179 169 -222 199 -391 268 -99 41 -193 52 -263 32z"/>
 <path d="M7860 1810 c-41 -22 -113 -58 -160 -81 -47 -23 -103 -54 -125 -69 -22 -15 -74 -45 -116 -67 -42 -23 -85 -46 -95 -52 -10 -6 -57 -26 -104 -45 -97 -38 -230 -96 -307 -132 -109 -51 -99 -54 -114 41 -10 73 -10 99 4 184 29 174 19 241 -35 241 -18 0 -102 -49 -278 -165 -127 -84 -244 -194 -436 -409 l-70 -79 -130 12 c-297 29 -740 25 -954 -9 -30 -5 -92 -12 -138 -15 -141 -12 -167 -61 -82 -158 51 -58 117 -99 210 -133 96 -34 113 -47 74 -55 -85 -19 -324 -5 -492 28 l-84 16 -25 -26 -26 -25 21 -30 c26 -35 194 -150 272 -186 82 -37 245 -76 332 -78 93 -3 101 -18 35 -59 -77 -49 -122 -67 -206 -85 -91 -20 -131 -43 -131 -78 0 -27 22 -47 68 -66 42 -17 170 -8 307 20 55 11 136 28 180 36 44 9 101 25 127 35 51 20 57 15 34 -29 -24 -46 -62 -75 -173 -132 -117 -60 -152 -94 -134 -128 21 -40 123 -35 267 12 27 10 158 71 289 137 227 114 278 145 496 305 85 63 86 63 125 52 62 -19 273 -13 389 11 179 37 228 49 350 86 210 64 325 122 325 165 0 24 -33 51 -72 60 -30 6 -23 10 87 45 151 48 364 132 388 152 39 36 4 100 -50 90 -50 -9 -317 -69 -356 -80 -65 -18 -61 13 8 56 24 16 76 55 116 88 39 33 90 72 113 86 22 14 116 101 207 193 149 151 169 175 193 234 31 79 32 88 8 109 -27 24 -48 21 -132 -23z"/>
 </g>
<g id="layerbg2" fill="#f45f36" stroke="none">
 <path d="M5945 5596 c-17 -7 -45 -30 -63 -50 -26 -30 -32 -45 -32 -82 0 -25 5 -55 11 -67 33 -62 261 -306 311 -333 100 -53 230 37 215 148 -8 60 -101 189 -203 282 -123 113 -169 133 -239 102z"/>
 <path d="M4867 5585 c-62 -23 -94 -52 -124 -113 -23 -48 -28 -69 -27 -137 0 -58 5 -90 18 -115 36 -67 108 -161 137 -175 76 -40 210 11 254 95 15 30 35 150 35 215 0 72 -66 183 -136 225 -37 23 -101 25 -157 5z"/>
 <path d="M3959 5586 c-1 -3 -2 -9 -3 -13 -1 -5 -5 -14 -9 -20 -5 -7 -5 -18 -2 -23 9 -14 28 -1 21 15 -2 7 0 17 6 23 6 6 6 12 -1 16 -6 4 -12 5 -12 2z"/>
 <path d="M3925 5408 c-9 -22 -2 -68 10 -71 14 -3 19 63 6 76 -7 7 -12 5 -16 -5z"/>
 <path d="M3914 5296 c-4 -10 -2 -22 4 -28 8 -8 13 -7 18 6 4 10 2 22 -4 28 -8 8 -13 7 -18 -6z"/>
 <path d="M3905 5220 c-4 -6 -5 -20 -4 -33 1 -12 -1 -30 -5 -39 -10 -22 -4 -52 9 -50 6 1 10 16 11 32 0 16 3 33 7 36 10 11 9 52 -2 59 -5 3 -12 1 -16 -5z"/>
 <path d="M3884 5066 c-3 -9 -4 -22 -1 -30 3 -7 1 -18 -4 -23 -4 -4 -10 -32 -13 -60 -2 -28 -6 -56 -10 -61 -3 -6 -8 -34 -10 -64 -2 -29 -7 -61 -11 -70 -9 -22 -2 -54 10 -48 6 3 10 16 11 30 0 14 3 31 7 37 4 6 9 36 11 67 2 30 7 59 11 65 3 6 8 34 10 62 2 28 6 53 9 56 10 10 7 41 -4 48 -6 3 -13 -1 -16 -9z"/>
 <path d="M5689 4688 c-25 -17 -47 -49 -83 -123 -45 -92 -48 -106 -50 -180 -1 -75 2 -86 40 -165 54 -112 120 -172 198 -177 44 -4 59 1 106 30 72 43 96 81 104 159 16 143 -19 275 -102 393 -59 84 -143 109 -213 63z"/>
 <path d="M3825 4680 c-4 -6 -4 -14 -1 -17 3 -3 1 -12 -5 -19 -6 -7 -8 -18 -4 -24 9 -14 28 -1 21 15 -2 7 1 18 7 24 8 8 8 14 0 22 -8 8 -13 8 -18 -1z"/>
 <path d="M3809 4596 c-3 -13 -6 -22 -14 -39 -4 -10 -5 -21 -1 -24 3 -3 1 -12 -5 -19 -6 -7 -8 -18 -4 -24 9 -14 28 -1 21 16 -3 7 -1 16 5 20 5 3 9 13 7 22 -1 10 1 22 5 29 4 6 3 14 -3 18 -5 3 -11 4 -11 1z"/>
 <path d="M6827 4557 c-66 -41 -77 -67 -77 -191 0 -106 1 -111 35 -172 41 -74 130 -150 185 -159 25 -4 58 1 106 17 62 21 73 29 114 83 l45 60 0 90 0 90 -45 54 c-57 67 -139 122 -199 133 -112 20 -124 20 -164 -5z"/>
 <path d="M3746 4291 c-4 -6 -5 -15 -1 -20 3 -5 0 -13 -6 -16 -5 -4 -8 -13 -5 -21 3 -7 1 -16 -5 -19 -5 -4 -9 -12 -8 -18 1 -7 -3 -25 -10 -41 -6 -16 -13 -36 -14 -45 -1 -9 -6 -22 -10 -28 -5 -7 -5 -13 -1 -13 3 0 1 -6 -5 -14 -8 -10 -9 -16 -1 -21 5 -3 11 -4 11 -1 4 16 7 26 9 31 1 3 3 8 5 13 1 4 9 24 19 45 9 21 14 42 11 47 -3 5 0 12 6 15 5 4 8 13 5 21 -3 7 -1 16 5 20 6 3 8 12 5 19 -2 7 1 18 7 24 8 8 8 14 0 22 -8 8 -13 8 -17 0z"/>
 <path d="M4515 4236 c-17 -7 -44 -30 -60 -50 -17 -20 -46 -56 -66 -79 -67 -79 -97 -132 -124 -220 -34 -112 -30 -145 30 -204 37 -38 48 -43 88 -43 39 0 55 7 109 48 72 56 98 91 174 237 48 93 54 112 54 165 0 52 -4 64 -31 95 -56 63 -110 79 -174 51z"/>
 <path d="M3654 3996 c-4 -9 -4 -20 0 -23 3 -3 1 -12 -5 -19 -6 -7 -8 -18 -4 -24 8 -13 26 -3 24 13 -1 7 1 20 6 30 4 11 3 23 -3 29 -8 8 -13 7 -18 -6z"/>
 <path d="M3639 3906 c-3 -13 -6 -22 -13 -38 -4 -9 -8 -22 -10 -30 -1 -7 -5 -19 -9 -25 -5 -7 -5 -18 -2 -23 8 -13 26 -2 23 13 -1 7 4 23 11 35 7 13 10 26 7 29 -3 4 -1 12 5 19 7 8 7 14 -1 19 -5 3 -11 4 -11 1z"/>
 <path d="M3585 3750 c-4 -6 -4 -14 -1 -17 3 -3 1 -12 -5 -20 -6 -7 -8 -13 -4 -13 4 0 2 -7 -5 -15 -7 -8 -9 -15 -5 -15 4 0 2 -7 -5 -15 -7 -8 -9 -15 -5 -15 4 0 2 -6 -5 -14 -6 -8 -10 -23 -9 -33 1 -10 -1 -26 -6 -36 -4 -10 -5 -21 -1 -24 3 -3 1 -12 -5 -19 -6 -7 -8 -18 -4 -24 9 -14 28 -1 21 16 -3 7 0 16 5 20 6 3 9 15 6 25 -3 10 -1 22 5 25 5 3 8 16 7 27 0 12 0 25 1 30 1 4 3 10 4 15 1 4 5 13 9 20 5 6 5 12 1 12 -3 0 -1 7 6 15 7 8 9 15 5 15 -4 0 -2 7 5 15 9 11 10 19 3 26 -8 8 -13 7 -18 -1z"/>
 <path d="M7545 3526 c-42 -18 -83 -69 -91 -114 -16 -82 79 -254 211 -385 60 -60 94 -77 149 -77 45 0 53 4 96 48 66 65 78 110 50 191 -12 33 -37 87 -56 119 -34 56 -148 178 -203 214 -31 21 -112 23 -156 4z"/>
 <path d="M5213 3511 c-18 -11 -44 -38 -59 -60 -25 -38 -26 -50 -35 -218 -10 -212 -2 -278 44 -330 77 -87 177 -87 254 0 38 43 59 141 49 230 -4 34 -11 108 -16 165 -17 187 -40 224 -143 230 -49 2 -69 -1 -94 -17z"/>
 <path d="M6508 3038 c-46 -12 -111 -68 -128 -109 -17 -39 0 -160 29 -217 68 -133 183 -262 248 -278 56 -15 150 20 184 68 12 16 23 46 26 67 6 46 -19 148 -54 220 -27 56 -160 224 -190 239 -31 17 -77 20 -115 10z"/>
 <path d="M4059 2787 c-61 -40 -139 -208 -170 -367 -21 -103 -17 -134 24 -204 30 -54 67 -78 124 -83 41 -4 55 0 93 26 36 24 54 46 87 113 61 124 77 185 77 313 1 99 -1 114 -23 149 -48 76 -142 100 -212 53z"/>
 <path d="M5015 2386 c-71 -32 -105 -99 -105 -203 0 -51 6 -75 30 -123 50 -100 96 -165 150 -213 65 -58 183 -117 234 -117 44 0 96 29 121 66 21 32 45 110 45 147 0 59 -57 143 -187 277 -70 72 -139 140 -153 150 -37 26 -98 33 -135 16z"/>
 <path d="M6795 1831 c-6 -10 51 -42 59 -33 8 8 -24 42 -40 42 -7 0 -15 -4 -19 -9z"/>
 <path d="M6732 1798 c-18 -11 -29 -24 -26 -29 5 -9 24 -2 58 24 31 23 3 28 -32 5z"/>
 <path d="M6607 1721 c-32 -21 -57 -43 -55 -47 4 -12 10 -9 73 32 30 20 52 40 49 45 -7 12 -1 14 -67 -30z"/>
 <path d="M7671 1719 c-71 -33 -93 -48 -86 -59 2 -3 41 11 85 32 45 21 78 43 75 48 -3 6 -7 10 -8 9 -1 0 -31 -14 -66 -30z"/>
 <path d="M6834 1656 c-4 -10 -2 -22 4 -28 8 -8 13 -7 18 6 4 10 2 22 -4 28 -8 8 -13 7 -18 -6z"/>
 <path d="M6469 1632 c-29 -24 -11 -36 20 -13 14 11 19 21 13 25 -5 3 -20 -2 -33 -12z"/>
 <path d="M6824 1596 c-4 -10 -2 -22 4 -28 8 -8 13 -7 18 6 4 10 2 22 -4 28 -8 8 -13 7 -18 -6z"/>
 <path d="M6306 1491 c-43 -43 -74 -81 -69 -84 5 -3 44 29 87 72 43 43 74 81 69 84 -5 3 -44 -29 -87 -72z"/>
 <path d="M6815 1538 c-9 -24 -1 -113 10 -111 14 4 19 103 6 116 -7 7 -12 5 -16 -5z"/>
 <path d="M7300 1518 c-25 -12 -48 -22 -52 -22 -5 -1 -8 -4 -8 -8 0 -5 0 -11 0 -14 0 -4 7 -1 15 6 8 7 15 10 15 7 0 -9 87 28 89 38 4 17 -13 15 -59 -7z"/>
 <path d="M7133 1446 c-35 -19 -63 -32 -63 -30 0 3 -10 -1 -22 -8 -13 -7 -26 -12 -30 -13 -5 0 -8 -3 -8 -7 0 -5 0 -11 0 -14 0 -4 7 -1 15 6 8 7 15 9 15 5 0 -4 11 0 25 9 14 9 25 14 25 11 0 -3 27 8 60 25 34 17 58 35 55 40 -8 12 0 15 -72 -24z"/>
 <path d="M6146 1321 c-15 -16 -23 -31 -18 -35 5 -3 21 8 36 23 15 16 23 31 18 35 -5 3 -21 -8 -36 -23z"/>
 <path d="M6835 1340 c-4 -7 -1 -18 6 -25 12 -11 19 -11 47 0 38 16 36 40 -2 25 -15 -5 -27 -5 -34 2 -6 6 -12 6 -17 -2z"/>
 <path d="M5325 1210 c-3 -5 0 -13 8 -16 24 -9 172 0 170 11 -4 14 -170 19 -178 5z"/>
 <path d="M5105 1200 c-3 -5 0 -13 9 -16 21 -8 61 -1 61 11 0 14 -62 19 -70 5z"/>
 <path d="M5665 1200 c-8 -13 20 -24 41 -16 20 8 9 26 -16 26 -10 0 -22 -5 -25 -10z"/>
 <path d="M5005 1190 c-3 -5 0 -13 9 -16 21 -8 61 -1 61 11 0 14 -62 19 -70 5z"/>
 <path d="M5815 1191 c-7 -13 17 -24 40 -19 9 1 16 8 16 13 0 14 -48 19 -56 6z"/>
 <path d="M4935 1180 c-8 -12 20 -24 35 -15 6 3 8 11 5 16 -8 12 -32 12 -40 -1z"/>
 <path d="M4845 1170 c-3 -5 0 -13 9 -16 21 -8 61 -1 61 11 0 14 -62 19 -70 5z"/>
 <path d="M4745 1161 c-7 -13 17 -24 40 -19 9 1 16 8 16 13 0 14 -48 19 -56 6z"/>
 <path d="M4689 1142 c-29 -24 -11 -36 20 -13 14 11 19 21 13 25 -5 3 -20 -2 -33 -12z"/>
 <path d="M4696 1041 c-8 -13 52 -80 92 -104 43 -25 50 -3 7 23 -19 12 -48 37 -64 57 -17 20 -31 30 -35 24z"/>
 <path d="M4835 921 c-6 -10 47 -43 62 -39 4 1 19 -4 32 -11 16 -9 26 -10 34 -2 10 10 -1 18 -35 25 -14 3 -66 24 -79 31 -4 3 -10 1 -14 -4z"/>
 <path d="M5019 858 c-1 -5 -2 -11 -3 -15 -1 -5 -5 -13 -9 -20 -11 -18 13 -27 29 -11 12 12 12 17 -1 33 -8 11 -15 17 -16 13z"/>
 <path d="M4565 830 c-8 -12 20 -24 35 -15 6 3 8 11 5 16 -8 12 -32 12 -40 -1z"/>
 <path d="M4635 820 c-8 -13 20 -24 41 -16 20 8 9 26 -16 26 -10 0 -22 -5 -25 -10z"/>
 <path d="M4735 810 c-8 -13 20 -24 41 -16 20 8 9 26 -16 26 -10 0 -22 -5 -25 -10z"/>
 </g>
<g id="layerbg3" fill="#ff1d15" stroke="none">
 <path d="M5213 6449 c-5 -5 -90 -11 -189 -13 -183 -4 -198 -6 -319 -36 -214 -54 -287 -101 -466 -300 -98 -109 -130 -158 -206 -310 -71 -144 -84 -199 -113 -480 -23 -222 -76 -561 -118 -756 -17 -76 -40 -188 -52 -249 -12 -60 -35 -148 -51 -195 -17 -47 -39 -119 -49 -161 -11 -42 -35 -125 -55 -185 -20 -60 -43 -145 -51 -188 -9 -44 -21 -91 -28 -105 -8 -15 -16 -48 -20 -76 -13 -92 -58 -310 -72 -345 -17 -44 -74 -246 -74 -263 0 -8 -11 -49 -24 -93 -14 -43 -30 -115 -36 -159 -7 -44 -16 -88 -21 -98 -28 -51 -26 -348 3 -422 88 -229 216 -444 377 -635 88 -104 381 -399 440 -442 73 -55 196 -115 253 -123 39 -6 52 -4 73 13 20 16 32 19 53 12 15 -5 74 -16 132 -24 222 -32 384 -32 426 -1 18 13 18 14 -1 33 -11 11 -52 29 -91 41 -135 41 -243 136 -244 212 0 34 9 37 155 54 66 8 165 19 220 26 184 21 638 13 906 -17 l56 -6 89 103 c148 173 291 310 389 374 160 105 299 186 315 183 12 -3 15 -21 14 -98 0 -52 -4 -134 -9 -181 -8 -94 -1 -187 18 -213 15 -20 30 -15 207 64 63 29 158 70 210 92 125 52 242 112 310 159 30 21 84 50 120 65 36 16 83 39 105 53 22 14 58 33 81 42 54 21 212 148 300 241 83 88 141 197 172 328 42 174 47 828 7 1030 -40 203 -206 507 -374 685 -36 39 -90 97 -120 130 -76 84 -161 154 -406 331 -103 74 -236 201 -454 431 -103 108 -138 153 -197 254 -91 156 -124 205 -197 288 -62 70 -150 199 -187 272 -54 104 -122 192 -249 320 -75 75 -158 151 -186 170 -53 36 -139 79 -158 79 -7 0 -25 7 -42 16 -59 31 -151 55 -250 65 -150 15 -311 19 -322 8z m849 -877 c106 -55 294 -275 305 -360 7 -49 -17 -102 -56 -125 -35 -21 -102 -22 -139 -3 -49 26 -258 252 -291 313 -19 37 -14 107 11 138 42 53 109 68 170 37z m-1041 -10 c68 -45 119 -138 119 -214 -1 -77 -23 -191 -43 -221 -24 -38 -107 -77 -159 -77 -57 1 -79 15 -126 80 -68 95 -76 117 -76 205 -1 68 4 89 27 137 27 55 52 75 127 101 34 12 106 6 131 -11z m809 -887 c30 -16 75 -76 115 -155 45 -88 56 -300 19 -372 -8 -14 -39 -41 -70 -58 -47 -27 -63 -32 -103 -28 -72 7 -129 59 -178 162 -35 74 -38 87 -36 161 1 72 5 89 46 177 49 106 73 127 140 128 21 0 51 -7 67 -15z m1161 -133 c58 -11 135 -60 185 -120 l39 -47 0 -90 c0 -89 -1 -91 -38 -142 -35 -47 -46 -55 -105 -73 -45 -14 -79 -19 -102 -15 -55 10 -127 72 -166 141 -33 59 -34 64 -34 170 0 121 7 140 64 175 32 21 48 21 157 1z m-2361 -327 c77 -40 93 -131 41 -241 -69 -146 -121 -222 -183 -269 -50 -38 -67 -45 -105 -45 -38 0 -50 5 -78 33 -49 49 -53 88 -20 194 28 89 58 143 124 219 20 23 44 54 55 69 34 50 111 69 166 40z m3070 -713 c56 -39 152 -141 184 -194 19 -32 44 -85 55 -118 27 -78 17 -127 -39 -182 -33 -34 -43 -38 -86 -38 -72 0 -112 29 -217 157 -54 65 -119 195 -124 247 -5 54 22 106 67 128 46 23 127 23 160 0z m-2335 -2 c41 -16 53 -63 76 -302 13 -143 2 -239 -33 -283 -59 -75 -177 -75 -236 -1 -34 44 -42 125 -33 318 8 156 12 182 31 213 12 19 34 42 48 50 31 17 109 19 147 5z m1227 -480 c29 -8 53 -29 107 -95 76 -93 113 -159 136 -250 19 -75 19 -109 -1 -150 -26 -56 -141 -93 -195 -65 -70 38 -151 136 -213 257 -27 53 -42 175 -26 213 19 46 81 87 150 99 3 1 22 -4 42 -9z m-2387 -242 c107 -49 94 -334 -25 -538 -48 -82 -117 -108 -195 -76 -34 15 -74 76 -88 137 -7 28 22 190 46 254 34 93 97 205 124 219 34 18 103 20 138 4z m945 -428 c64 -46 261 -263 290 -320 34 -68 36 -91 15 -163 -36 -122 -109 -146 -239 -83 -120 59 -177 120 -256 276 -24 48 -30 72 -30 123 0 102 25 156 85 183 37 17 98 10 135 -16z"/>
 </g>
<g id="layerbg4" fill="#9cea86" stroke="none">
 <path d="M1283 5590 c-50 -30 -67 -65 -64 -128 2 -48 140 -163 241 -202 19 -7 38 -16 43 -20 4 -3 -37 -29 -90 -57 -87 -45 -109 -52 -195 -62 -53 -6 -155 -11 -227 -11 l-130 0 -35 -35 c-45 -44 -55 -93 -30 -136 36 -61 65 -74 176 -78 l28 -1 -36 -67 c-57 -109 -81 -176 -143 -409 -5 -17 -25 -64 -45 -104 -40 -80 -43 -107 -21 -150 38 -74 128 -95 185 -42 26 24 120 197 120 221 0 17 50 194 71 251 12 30 38 92 60 136 37 75 46 86 117 136 94 68 172 113 173 101 0 -4 2 -37 4 -73 2 -56 13 -114 57 -293 12 -51 61 -105 103 -113 64 -12 145 51 145 113 0 12 -13 83 -30 156 -39 177 -35 219 38 357 12 21 96 67 265 144 106 48 134 56 292 85 72 13 299 25 445 24 188 -2 497 -20 560 -33 47 -10 165 -31 310 -55 47 -8 119 -21 160 -30 59 -12 77 -12 86 -2 15 15 34 208 22 223 -5 7 -23 14 -41 17 -33 5 -318 53 -482 81 -173 30 -332 40 -640 39 -294 0 -451 -7 -485 -20 -8 -3 -37 -9 -65 -13 -54 -8 -169 -49 -278 -99 l-69 -31 -116 21 c-157 27 -287 79 -331 133 -20 24 -65 46 -93 46 -13 0 -37 -9 -55 -20z"/>
 <path d="M3745 5041 c-183 -52 -293 -106 -448 -224 -69 -52 -236 -233 -325 -351 l-47 -63 -125 -2 c-209 -2 -257 -13 -290 -66 -33 -53 -27 -99 19 -148 l40 -42 110 2 c61 2 111 1 111 -1 0 -13 -47 -112 -87 -182 -49 -88 -53 -91 -168 -114 -27 -6 -70 -17 -95 -25 -25 -7 -70 -21 -101 -30 -56 -16 -85 -38 -109 -84 -26 -50 14 -128 77 -154 35 -14 45 -13 110 3 39 10 76 21 82 24 6 4 6 -3 -2 -21 -31 -71 -62 -112 -101 -133 -58 -32 -84 -58 -96 -96 -21 -64 20 -134 91 -154 29 -9 43 -6 95 20 113 55 159 112 259 315 49 99 111 213 137 253 26 40 48 77 48 83 0 21 170 372 177 365 3 -2 6 -15 7 -28 2 -13 13 -67 26 -119 19 -78 29 -99 56 -126 61 -57 120 -51 178 17 31 38 32 66 7 168 -19 75 -37 202 -34 232 1 8 3 51 4 95 1 44 5 88 10 97 15 27 158 130 244 175 44 22 116 51 160 63 44 12 85 27 91 33 14 15 48 222 39 237 -9 15 -40 11 -150 -19z"/>
 </g>
<g id="layer101" fill="#3fad20" stroke="none">
 <path d="M1773 6217 c-53 -15 -138 -85 -191 -157 -23 -31 -53 -67 -67 -80 l-26 -24 -97 23 c-212 50 -229 51 -385 32 -98 -13 -163 -40 -214 -91 -73 -72 -102 -198 -68 -300 10 -29 23 -76 30 -106 11 -48 10 -56 -6 -84 -10 -16 -27 -30 -36 -31 -10 -1 -64 -3 -119 -5 -174 -6 -240 -52 -298 -208 -25 -66 -17 -159 24 -273 70 -195 90 -275 85 -337 -6 -67 -9 -73 -79 -123 -124 -90 -192 -161 -232 -241 -52 -107 -87 -239 -87 -332 0 -89 22 -186 52 -228 11 -17 21 -34 21 -39 0 -20 73 -103 109 -124 98 -58 239 -91 401 -93 109 -1 168 13 275 67 46 23 276 250 300 297 9 18 32 53 50 79 18 25 58 91 89 146 78 137 107 165 165 165 46 0 63 -8 225 -99 48 -27 73 -34 135 -38 66 -5 83 -2 121 17 69 35 98 58 141 112 l39 50 -5 -64 c-8 -105 -29 -142 -108 -186 -60 -34 -187 -66 -228 -57 -39 9 -157 -22 -203 -53 -21 -15 -54 -46 -72 -71 -31 -39 -34 -50 -34 -109 0 -58 4 -70 32 -106 60 -79 89 -95 258 -140 30 -9 71 -28 90 -45 l35 -29 -45 -42 c-44 -41 -138 -106 -169 -118 -9 -3 -42 -27 -74 -54 -32 -26 -63 -48 -67 -48 -15 0 -102 -120 -116 -159 -30 -83 -8 -221 49 -306 40 -60 123 -137 173 -161 139 -66 392 8 686 202 70 46 131 84 135 84 5 0 19 9 33 20 34 27 74 25 215 -9 171 -40 269 -35 355 20 96 61 133 142 124 274 -3 44 -12 106 -20 137 -8 32 -17 100 -21 151 -9 140 12 185 93 200 35 7 71 -1 175 -39 42 -15 83 -25 91 -21 10 3 20 31 28 74 6 37 34 138 60 223 27 85 51 171 55 190 4 19 20 72 36 118 37 107 64 213 84 332 9 52 27 140 40 195 26 113 41 225 29 225 -32 0 -173 -49 -239 -83 -88 -46 -228 -147 -250 -181 -8 -12 -14 -53 -15 -101 0 -44 -2 -87 -3 -95 -3 -30 15 -157 34 -232 10 -42 19 -90 19 -106 0 -58 -75 -119 -130 -107 -57 12 -85 52 -110 155 -24 96 -27 115 -29 160 -2 23 -4 22 -27 -15 -22 -36 -59 -109 -145 -291 -16 -34 -29 -66 -29 -73 0 -6 -22 -43 -48 -83 -26 -40 -88 -154 -136 -252 -100 -202 -141 -253 -250 -306 -54 -26 -65 -29 -98 -20 -20 6 -46 22 -57 36 -52 66 -30 139 57 189 53 31 85 71 125 158 l17 38 -22 -12 c-12 -7 -54 -20 -93 -30 -67 -17 -72 -17 -111 0 -28 13 -46 29 -57 54 -23 47 -21 68 6 108 22 33 55 50 137 70 73 17 196 50 233 61 32 10 45 22 79 81 22 38 55 102 74 143 l34 74 -121 -2 -121 -3 -34 37 c-39 43 -45 91 -17 139 28 47 78 58 285 60 l126 2 46 62 c55 75 213 256 270 308 49 45 199 148 267 183 74 37 148 63 271 94 l113 28 8 67 c5 37 7 69 4 71 -5 5 -123 30 -237 49 -145 24 -263 45 -310 55 -63 13 -372 31 -560 33 -110 1 -376 -10 -413 -17 -103 -20 -148 -29 -182 -38 -45 -12 -233 -92 -280 -119 -16 -10 -53 -29 -82 -44 -31 -15 -55 -35 -59 -48 -4 -12 -18 -44 -31 -72 -37 -75 -37 -129 -3 -282 17 -73 30 -143 30 -154 0 -61 -72 -117 -135 -105 -41 8 -81 53 -94 104 -43 176 -55 247 -56 314 0 43 -1 78 -2 78 -8 0 -149 -91 -205 -131 -58 -44 -71 -59 -106 -132 -22 -45 -49 -107 -61 -137 -21 -57 -71 -234 -71 -251 0 -22 -93 -196 -116 -216 -30 -28 -98 -31 -132 -7 -27 19 -52 65 -52 97 0 13 16 57 36 97 20 40 40 87 45 104 63 233 86 300 144 410 20 37 35 70 33 71 -2 2 -34 6 -71 8 -75 5 -109 22 -133 68 -21 42 -11 90 27 129 l31 30 130 0 c71 0 173 5 226 11 87 10 108 17 205 67 117 60 117 61 37 92 -49 19 -160 92 -193 127 -36 39 -47 80 -33 123 12 39 66 80 103 80 29 0 74 -22 94 -46 44 -54 174 -106 331 -133 l116 -21 69 31 c109 50 224 91 278 99 28 4 57 10 65 13 34 13 191 20 485 20 308 1 467 -9 640 -39 50 -8 169 -28 265 -44 96 -17 194 -34 217 -38 l42 -9 6 51 c4 28 13 73 21 100 8 27 14 50 14 51 0 4 -123 35 -200 51 -67 13 -175 18 -540 24 -388 6 -465 10 -520 25 -111 30 -172 68 -293 182 -179 169 -222 199 -391 268 -99 41 -193 52 -263 32z"/>
 <path d="M7860 1800 c-41 -22 -113 -58 -160 -81 -47 -23 -103 -54 -125 -69 -22 -15 -74 -45 -116 -67 -42 -23 -85 -46 -95 -52 -10 -6 -57 -26 -104 -45 -101 -40 -232 -97 -315 -136 -100 -47 -98 -48 -114 49 -13 75 -13 95 2 190 28 173 22 231 -24 231 -19 0 -99 -47 -279 -165 -128 -84 -231 -181 -431 -404 l-75 -84 -130 12 c-221 22 -646 25 -814 7 -80 -9 -192 -21 -250 -27 -127 -13 -155 -27 -146 -72 15 -75 116 -156 255 -206 85 -31 114 -52 89 -68 -7 -3 -60 -9 -118 -11 -114 -5 -266 8 -398 35 -82 16 -83 16 -103 -5 -18 -20 -19 -23 -4 -46 20 -31 190 -146 265 -180 86 -39 248 -77 339 -79 75 -2 81 -4 81 -23 0 -40 -134 -113 -255 -139 -101 -22 -127 -37 -123 -73 2 -19 13 -32 38 -45 45 -22 180 -17 325 13 55 11 136 28 180 36 44 9 102 25 129 35 27 11 51 18 54 15 11 -12 -12 -61 -49 -100 -27 -30 -71 -59 -144 -94 -111 -55 -144 -86 -126 -120 35 -65 182 -23 546 159 227 114 277 144 496 305 85 63 86 63 125 52 22 -7 93 -12 164 -11 119 1 177 9 390 57 173 39 439 134 482 173 39 35 5 83 -59 83 -75 0 -18 31 147 80 86 25 319 117 338 132 17 14 15 53 -3 68 -8 7 -27 10 -42 7 -51 -9 -317 -69 -356 -80 -41 -11 -62 -2 -52 25 4 9 32 33 63 53 31 21 84 62 119 91 35 30 82 66 105 80 24 15 116 100 205 190 149 151 163 169 189 235 45 114 10 135 -116 69z"/>
 </g>
<g id="layer102" fill="#f45f36" stroke="none">
 <path d="M5945 5586 c-52 -22 -85 -71 -85 -122 0 -25 5 -55 11 -67 33 -61 252 -297 301 -323 98 -52 219 30 205 138 -8 58 -101 189 -198 277 -118 108 -165 127 -234 97z"/>
 <path d="M4868 5575 c-62 -23 -86 -45 -115 -103 -23 -48 -28 -69 -27 -137 0 -89 8 -109 80 -211 48 -67 75 -84 137 -84 53 1 134 43 163 87 22 33 44 146 44 229 0 69 -60 171 -127 215 -33 22 -101 24 -155 4z"/>
 <path d="M3933 5375 c0 -22 2 -30 4 -17 2 12 2 30 0 40 -3 9 -5 -1 -4 -23z"/>
 <path d="M5692 4680 c-26 -16 -44 -43 -79 -118 -41 -88 -45 -105 -46 -177 -2 -74 1 -87 37 -162 49 -105 113 -164 186 -171 41 -4 57 1 105 28 31 18 65 46 75 62 41 67 32 285 -15 378 -40 79 -86 141 -119 161 -41 25 -102 24 -144 -1z"/>
 <path d="M6829 4549 c-59 -35 -69 -62 -69 -185 0 -104 1 -109 35 -169 39 -71 120 -140 175 -150 23 -4 58 1 102 15 62 19 72 26 110 78 l43 57 0 90 0 90 -40 48 c-52 63 -135 118 -194 129 -109 20 -125 19 -162 -3z"/>
 <path d="M4514 4226 c-17 -8 -41 -28 -55 -45 -13 -18 -40 -51 -60 -74 -66 -78 -97 -132 -124 -220 -34 -109 -29 -145 25 -199 32 -33 44 -38 83 -38 38 0 55 7 107 46 68 51 88 80 167 231 47 91 53 110 53 162 0 50 -4 65 -26 91 -49 57 -107 73 -170 46z"/>
 <path d="M7541 3512 c-53 -26 -76 -65 -76 -125 0 -87 80 -225 202 -351 56 -58 91 -76 147 -76 44 0 53 4 91 43 61 60 72 107 44 187 -11 33 -36 86 -55 118 -33 54 -140 167 -194 204 -33 23 -115 23 -159 0z"/>
 <path d="M5214 3501 c-65 -39 -75 -73 -85 -269 -10 -202 -1 -276 39 -323 49 -59 127 -77 190 -45 86 44 111 136 93 334 -23 239 -35 286 -81 309 -38 19 -120 16 -156 -6z"/>
 <path d="M6510 3028 c-48 -13 -98 -53 -117 -94 -14 -29 -15 -44 -5 -109 13 -84 28 -117 100 -226 75 -113 147 -164 218 -156 90 10 154 69 154 142 0 45 -27 143 -57 204 -14 29 -59 93 -99 142 -58 69 -82 90 -111 98 -21 6 -40 11 -43 10 -3 0 -21 -5 -40 -11z"/>
 <path d="M4063 2780 c-32 -19 -94 -127 -130 -225 -30 -80 -53 -227 -43 -265 37 -132 140 -186 237 -124 31 21 50 45 81 108 60 122 76 184 76 311 1 99 -1 114 -22 148 -13 21 -37 44 -52 52 -41 21 -109 19 -147 -5z"/>
 <path d="M5015 2376 c-66 -30 -95 -90 -95 -193 0 -51 6 -75 30 -123 79 -156 144 -226 265 -285 104 -51 174 -44 221 23 19 28 44 109 44 145 0 58 -57 143 -182 272 -67 69 -134 135 -148 145 -37 26 -98 33 -135 16z"/>
 <path d="M6310 1485 c-41 -41 -72 -75 -69 -75 2 0 38 34 79 75 41 41 72 75 69 75 -2 0 -38 -34 -79 -75z"/>
 <path d="M6823 1485 c0 -33 2 -45 4 -27 2 18 2 45 0 60 -2 15 -4 0 -4 -33z"/>
 <path d="M5373 1203 c26 -2 67 -2 90 0 23 2 2 3 -48 3 -49 0 -68 -1 -42 -3z"/>
 <path d="M5123 1193 c9 -2 25 -2 35 0 9 3 1 5 -18 5 -19 0 -27 -2 -17 -5z"/>
 <path d="M5023 1183 c9 -2 25 -2 35 0 9 3 1 5 -18 5 -19 0 -27 -2 -17 -5z"/>
 <path d="M4863 1163 c9 -2 25 -2 35 0 9 3 1 5 -18 5 -19 0 -27 -2 -17 -5z"/>
 <path d="M4710 1017 c0 -2 15 -16 33 -33 l32 -29 -29 33 c-28 30 -36 37 -36 29z"/>
 </g>
<g id="layer103" fill="#ff1d15" stroke="none">
 <path d="M5200 6451 c-21 -12 -151 -23 -245 -22 -44 1 -118 -5 -165 -14 -47 -8 -101 -15 -120 -15 -49 0 -179 -52 -249 -99 -66 -45 -221 -206 -285 -296 -24 -33 -73 -116 -109 -185 -71 -137 -97 -232 -117 -435 -12 -120 -29 -269 -35 -310 -3 -16 -16 -102 -30 -190 -14 -88 -41 -236 -60 -330 -20 -93 -45 -215 -56 -270 -12 -55 -32 -131 -46 -170 -14 -38 -31 -95 -39 -125 -8 -30 -37 -129 -63 -220 -75 -254 -83 -290 -137 -562 -13 -70 -31 -142 -39 -161 -8 -19 -32 -104 -54 -188 -22 -85 -45 -170 -51 -189 -6 -19 -17 -73 -25 -120 -9 -47 -22 -114 -30 -150 -17 -76 -19 -242 -4 -324 26 -140 168 -413 325 -623 112 -149 394 -439 515 -531 125 -94 268 -141 338 -112 24 10 56 8 183 -11 257 -37 427 -29 443 22 10 31 -19 55 -94 80 -87 28 -162 71 -200 114 -35 40 -49 81 -33 97 17 17 259 46 487 58 196 11 574 1 728 -19 83 -11 105 -4 153 48 182 200 290 314 331 348 97 80 356 243 387 243 18 0 18 -7 11 -118 -18 -259 -8 -356 38 -367 26 -7 64 6 217 75 63 29 157 70 209 92 128 54 225 103 292 149 31 21 95 56 143 78 47 22 99 48 114 59 15 11 43 24 62 31 67 22 291 212 350 297 45 65 90 159 90 190 0 16 9 66 20 111 12 50 22 136 25 220 17 429 17 447 1 538 -9 50 -16 113 -16 140 0 28 -7 88 -15 135 -8 47 -15 99 -15 115 0 53 -110 260 -228 430 -64 92 -273 318 -359 387 -32 26 -107 84 -168 128 -243 178 -260 193 -562 510 -104 109 -140 156 -192 245 -87 151 -147 239 -210 310 -60 67 -137 177 -171 245 -53 106 -133 212 -246 326 -198 202 -261 239 -506 298 -143 35 -450 58 -488 37z m853 -893 c50 -26 199 -175 246 -246 55 -82 63 -119 36 -172 -20 -38 -43 -50 -101 -50 -45 0 -49 3 -137 88 -49 48 -116 120 -148 160 -54 67 -59 78 -59 122 0 42 4 51 35 79 39 34 88 41 128 19z m-1011 -38 c56 -60 78 -109 78 -177 0 -85 -17 -174 -38 -203 -42 -57 -149 -88 -202 -60 -24 13 -88 103 -113 158 -14 34 -18 61 -15 111 7 137 76 211 197 211 50 0 57 -3 93 -40z m809 -890 c21 -22 54 -73 75 -115 37 -74 37 -76 38 -203 1 -146 -4 -159 -72 -203 -66 -42 -115 -40 -177 7 -38 30 -56 54 -88 122 -38 81 -39 89 -34 157 4 54 15 91 45 156 45 98 68 119 131 119 38 0 49 -5 82 -40z m1121 -101 c69 -14 141 -61 189 -122 37 -46 39 -52 39 -121 0 -62 -4 -78 -29 -118 -16 -25 -39 -53 -52 -61 -30 -21 -120 -41 -151 -34 -43 11 -117 76 -148 130 -28 49 -30 58 -30 162 1 115 4 127 50 158 29 20 59 21 132 6z m-2327 -350 c33 -29 35 -35 35 -90 0 -63 -18 -107 -101 -251 -54 -93 -134 -158 -194 -158 -37 0 -47 5 -74 35 -39 45 -40 77 -5 181 28 83 43 108 108 188 94 112 111 126 154 126 32 0 49 -7 77 -31z m3116 -755 c84 -82 136 -159 164 -243 21 -65 13 -102 -32 -152 -32 -35 -40 -39 -83 -39 -42 0 -55 6 -104 46 -31 25 -56 49 -56 53 0 5 -18 28 -39 52 -58 67 -121 194 -121 248 0 36 6 49 34 77 31 31 39 34 96 34 l62 0 79 -76z m-2406 60 c39 -15 51 -77 71 -356 11 -146 -23 -226 -108 -248 -68 -19 -136 27 -157 107 -13 47 -5 354 10 415 14 54 59 88 119 88 27 0 56 -3 65 -6z m1303 -541 c140 -153 204 -322 157 -412 -18 -35 -70 -61 -123 -61 -56 0 -129 59 -189 153 -65 101 -83 148 -90 227 l-6 70 41 39 c45 43 68 51 122 46 28 -3 46 -16 88 -62z m-2445 -194 c38 -29 50 -87 43 -199 -7 -113 -17 -151 -63 -248 -47 -95 -88 -132 -149 -132 -56 0 -91 31 -119 104 -19 49 -19 51 2 154 24 117 100 290 142 323 33 27 110 26 144 -2z m905 -403 c15 -8 84 -73 154 -144 173 -178 200 -234 162 -345 -33 -97 -106 -113 -225 -51 -88 46 -162 125 -217 232 -38 72 -42 87 -42 152 0 78 14 116 56 149 31 24 74 27 112 7z"/>
 </g>
<g id="layer104" fill="#9cea86" stroke="none">
 <path d="M1279 5577 c-63 -42 -68 -120 -12 -180 33 -35 144 -108 193 -127 80 -31 80 -32 -37 -92 -97 -50 -118 -57 -205 -67 -53 -6 -155 -11 -226 -11 l-130 0 -31 -30 c-38 -39 -48 -87 -27 -129 24 -46 58 -63 133 -68 37 -2 69 -6 71 -8 2 -1 -13 -34 -33 -71 -58 -110 -81 -177 -144 -410 -5 -17 -25 -64 -45 -104 -20 -40 -36 -84 -36 -97 0 -32 25 -78 52 -97 34 -24 102 -21 132 7 23 20 116 194 116 216 0 17 50 194 71 251 12 30 39 92 61 137 35 73 48 88 106 132 56 40 197 131 205 131 1 0 2 -35 2 -78 1 -67 13 -138 56 -314 13 -51 53 -96 94 -104 63 -12 135 44 135 105 0 11 -13 81 -30 154 -34 153 -34 207 3 282 13 28 27 60 31 72 4 13 28 33 59 48 29 15 66 34 82 44 47 27 235 107 280 119 34 9 79 18 182 38 37 7 303 18 413 17 188 -2 497 -20 560 -33 47 -10 165 -31 310 -55 47 -8 118 -21 159 -30 40 -8 77 -12 81 -10 7 4 11 38 23 200 2 22 10 20 -248 64 -99 16 -220 37 -270 45 -173 30 -332 40 -640 39 -294 0 -451 -7 -485 -20 -8 -3 -37 -9 -65 -13 -54 -8 -169 -49 -278 -99 l-69 -31 -116 21 c-157 27 -287 79 -331 133 -20 24 -65 46 -94 46 -13 0 -39 -10 -58 -23z"/>
 <path d="M3745 5030 c-120 -33 -165 -50 -232 -83 -69 -36 -220 -138 -269 -184 -57 -52 -215 -233 -270 -308 l-46 -62 -126 -2 c-207 -2 -257 -13 -285 -60 -28 -48 -22 -96 17 -139 l34 -37 121 3 121 2 -34 -74 c-19 -41 -52 -105 -74 -143 -34 -59 -47 -71 -79 -81 -37 -11 -160 -44 -233 -61 -82 -20 -115 -37 -137 -70 -27 -40 -29 -61 -6 -108 11 -25 29 -41 57 -54 39 -17 44 -17 114 1 40 10 83 25 96 33 21 14 20 10 -12 -51 -49 -95 -56 -103 -115 -137 -85 -50 -107 -124 -56 -189 11 -14 37 -30 57 -36 33 -9 44 -6 98 20 109 53 150 104 250 306 48 98 110 212 136 252 26 40 48 77 48 83 0 7 13 39 29 73 86 182 123 255 145 291 23 37 25 38 27 15 2 -45 5 -64 29 -160 25 -103 53 -143 110 -155 55 -12 130 49 130 107 0 16 -9 64 -19 106 -19 75 -37 202 -34 232 1 8 3 51 3 95 1 47 7 89 15 101 20 32 151 128 239 175 43 23 119 54 170 68 l91 27 17 99 c9 55 17 108 17 118 1 23 -24 21 -144 -13z"/>
 </g>

</svg>