<!DOCTYPE svg PUBLIC "-//W3C//DTD SVG 20010904//EN" "http://www.w3.org/TR/2001/REC-SVG-20010904/DTD/svg10.dtd">
<svg version="1.0" xmlns="http://www.w3.org/2000/svg" width="1172px" height="1482px" viewBox="0 0 9490 12000" preserveAspectRatio="xMidYMid meet">
<g id="layerbg1" fill="#3fad20" stroke="none">
 <path d="M3473 5590 c-41 -9 -91 -47 -140 -106 -21 -25 -50 -60 -65 -77 l-26 -32 -99 25 c-123 31 -287 34 -370 6 -96 -32 -173 -135 -173 -230 0 -17 12 -67 26 -111 40 -126 25 -145 -117 -145 -95 0 -132 -14 -180 -67 -86 -95 -89 -187 -15 -405 28 -85 46 -154 46 -183 0 -53 0 -52 -142 -172 -97 -81 -131 -138 -163 -271 -26 -106 -18 -242 20 -313 61 -117 123 -162 269 -194 245 -54 387 -4 568 200 58 65 121 157 188 275 63 108 81 123 133 115 23 -4 83 -30 134 -57 126 -68 177 -73 262 -28 37 20 74 50 92 74 l31 41 -5 -59 c-7 -74 -28 -103 -99 -139 -44 -23 -77 -31 -154 -38 -140 -12 -150 -16 -208 -73 -44 -43 -54 -58 -59 -98 -7 -54 -3 -72 29 -111 46 -56 84 -79 162 -99 75 -19 142 -51 142 -68 0 -10 -98 -88 -138 -110 -68 -37 -174 -126 -207 -175 -89 -128 -40 -299 118 -418 l52 -39 90 5 c136 7 271 59 429 166 103 70 179 111 205 111 13 0 59 -9 104 -21 97 -25 217 -27 268 -6 48 20 103 70 123 111 20 43 21 178 1 261 -8 33 -15 94 -15 136 0 132 41 155 190 104 40 -14 82 -25 92 -25 21 0 32 24 42 90 4 25 25 101 46 170 21 69 55 177 74 240 20 63 43 153 51 200 9 47 27 135 41 195 30 136 36 222 14 216 -149 -34 -276 -101 -371 -194 -34 -33 -36 -40 -42 -114 -5 -58 -2 -106 14 -188 35 -190 35 -180 6 -209 -28 -28 -61 -33 -102 -14 -28 13 -60 99 -71 195 -7 57 -16 70 -32 50 -20 -24 -152 -298 -152 -314 0 -3 -22 -40 -48 -82 -26 -42 -66 -114 -87 -161 -22 -47 -50 -105 -64 -129 -46 -82 -146 -161 -204 -161 -41 0 -77 36 -77 76 0 48 14 70 56 90 19 9 46 31 59 48 30 40 57 103 47 110 -4 2 -34 -2 -67 -10 -83 -19 -102 -18 -130 11 -41 40 -27 115 24 133 34 13 167 49 211 58 19 3 47 12 61 20 41 21 149 219 134 245 -4 5 -48 8 -100 7 -113 -3 -135 9 -135 76 0 23 4 46 8 52 15 22 52 34 109 34 32 0 95 3 140 6 l82 7 33 46 c37 52 168 202 213 244 42 40 144 111 201 143 69 37 114 53 234 84 l105 26 8 54 c4 30 6 59 3 66 -2 6 -30 16 -63 23 -107 22 -408 74 -443 77 -322 22 -415 25 -593 14 -105 -6 -201 -16 -214 -21 -13 -5 -27 -8 -31 -7 -21 5 -112 -31 -239 -93 l-141 -70 -31 -66 c-39 -81 -40 -130 -6 -270 29 -118 24 -146 -28 -171 -35 -17 -94 0 -107 31 -20 49 -60 242 -60 292 0 30 -5 57 -10 60 -12 8 -106 -48 -178 -106 -70 -55 -114 -146 -172 -354 -31 -109 -89 -226 -121 -244 -51 -28 -119 13 -119 72 0 17 9 46 20 64 23 39 65 158 81 231 6 30 17 66 25 80 8 15 14 32 14 37 0 6 15 40 34 75 19 35 33 68 30 72 -2 4 -26 10 -52 13 -82 11 -91 15 -108 46 -18 36 -13 70 16 99 17 17 34 20 123 20 172 0 261 16 347 62 41 22 79 43 84 48 14 13 -7 34 -51 49 -41 15 -104 54 -140 87 -33 30 -44 67 -32 104 21 59 90 68 147 19 55 -48 152 -88 264 -108 l102 -18 81 37 c175 80 320 102 665 99 262 -2 368 -12 652 -60 134 -23 249 -42 257 -43 22 -2 57 153 39 170 -7 7 -60 22 -118 34 -91 19 -149 22 -445 26 -187 3 -370 10 -407 15 -103 16 -179 58 -277 152 -111 107 -180 159 -264 196 -127 57 -189 69 -264 51z"/>
 <path d="M8425 2032 c-22 -9 -70 -34 -106 -54 -36 -21 -70 -38 -76 -38 -5 0 -31 -14 -59 -32 -86 -55 -187 -108 -264 -139 -41 -17 -93 -39 -115 -49 -22 -11 -80 -37 -130 -59 l-90 -39 -8 37 c-8 33 -5 123 9 281 5 57 4 67 -14 84 -20 18 -22 17 -79 -15 -217 -122 -309 -200 -525 -437 -49 -55 -71 -73 -85 -68 -76 24 -597 35 -753 16 -47 -6 -130 -15 -184 -22 -136 -16 -160 -42 -107 -118 31 -44 114 -99 181 -121 36 -12 69 -25 74 -30 29 -27 -260 -22 -397 6 -83 18 -107 12 -107 -25 0 -39 163 -151 275 -190 73 -26 193 -50 247 -50 32 0 39 -3 36 -17 -6 -33 -180 -113 -245 -113 -26 0 -66 -35 -60 -53 2 -6 16 -20 31 -31 22 -17 41 -21 99 -20 71 1 341 52 418 79 37 13 39 13 39 -5 0 -34 -66 -95 -132 -125 -73 -32 -128 -70 -128 -89 0 -7 9 -21 20 -31 15 -14 28 -16 66 -10 136 20 484 193 697 346 l137 99 43 -10 c124 -29 371 8 633 95 125 41 193 73 208 97 15 24 -18 58 -56 58 -50 0 -21 18 80 50 118 36 285 101 306 119 22 18 20 48 -3 61 -14 7 -45 3 -118 -14 -54 -14 -123 -29 -153 -34 -31 -6 -62 -12 -69 -14 -7 -2 -15 2 -18 8 -4 11 26 36 187 157 110 82 329 305 356 362 29 61 30 91 5 105 -23 12 -17 13 -66 -8z"/>
 </g>
<g id="layerbg2" fill="#016fb9" stroke="none">
 <path d="M2895 11989 c-251 -8 -554 -24 -805 -40 -265 -17 -579 -28 -803 -29 -274 0 -349 -12 -680 -105 -96 -28 -99 -29 -157 -93 -68 -74 -100 -125 -138 -220 -26 -67 -26 -68 -25 -327 0 -143 2 -345 4 -450 3 -189 -10 -427 -31 -580 -6 -44 -17 -125 -25 -180 -46 -315 -56 -532 -67 -1540 -15 -1335 -15 -2121 -1 -2440 16 -344 18 -601 5 -690 -6 -38 -13 -126 -17 -195 -3 -69 -10 -192 -15 -275 -5 -82 -12 -197 -15 -255 -3 -58 -15 -186 -25 -285 -11 -99 -27 -245 -35 -325 -34 -319 -46 -524 -56 -951 -13 -547 -6 -2090 9 -2204 6 -44 16 -116 23 -160 7 -44 13 -111 14 -150 5 -168 100 -309 254 -376 37 -17 77 -20 260 -25 197 -5 225 -4 303 15 226 55 324 61 638 41 294 -19 605 -21 760 -5 84 8 211 12 335 9 213 -4 272 -8 755 -54 113 -11 297 -24 410 -30 113 -6 237 -13 275 -15 96 -7 529 -25 755 -31 102 -3 327 -9 501 -14 174 -6 406 -10 515 -10 196 0 791 24 869 34 107 15 334 36 450 41 72 4 212 15 313 26 101 10 214 19 251 19 38 0 133 7 212 14 79 8 187 18 239 21 52 3 136 10 185 15 100 11 169 14 525 29 342 15 362 17 422 45 116 53 169 162 147 302 -16 106 -30 256 -40 439 -23 450 -29 660 -29 1075 0 245 -4 540 -10 655 -5 116 -12 329 -15 475 -4 146 -9 268 -11 271 -2 4 -4 458 -5 1010 -1 552 -6 1054 -11 1114 -4 61 -12 299 -17 530 -5 231 -13 539 -18 685 -10 341 -10 749 0 870 5 52 13 142 18 200 5 58 13 326 18 595 5 290 15 564 25 670 9 99 20 241 26 315 11 137 23 245 40 335 15 82 48 351 60 485 29 347 39 928 20 1149 -34 381 -34 382 -95 450 -20 22 -62 50 -97 66 l-62 28 -781 -7 c-429 -3 -827 -10 -885 -14 -203 -14 -1643 -6 -2210 12 -1103 35 -2067 49 -2455 35z m3266 -901 c8 -15 10 -55 6 -124 -3 -56 -3 -104 0 -107 2 -3 19 3 36 14 23 13 51 19 98 19 85 0 159 -35 197 -93 25 -37 27 -49 27 -136 0 -88 -3 -100 -29 -145 -39 -67 -109 -100 -204 -94 -130 7 -189 68 -213 219 -12 73 -6 419 7 453 9 25 61 20 75 -6z m-4153 -224 l43 -23 9 24 c11 29 54 35 64 9 3 -9 6 -107 6 -218 0 -219 -5 -245 -48 -232 -12 4 -22 15 -22 25 0 30 -11 31 -48 3 -28 -21 -48 -27 -101 -30 -92 -5 -144 23 -186 99 -27 48 -30 63 -30 144 0 78 3 96 25 134 54 96 181 124 288 65z m342 17 c11 -21 14 -628 4 -668 -9 -35 -51 -31 -61 5 -5 15 -8 167 -7 339 1 319 4 343 40 343 7 0 18 -9 24 -19z m1600 -3 c39 -15 60 -39 60 -70 0 -34 -12 -35 -73 -8 -139 62 -248 -13 -234 -160 6 -67 20 -94 65 -122 29 -18 42 -20 95 -13 104 12 119 11 130 -7 27 -41 -78 -86 -173 -75 -85 10 -146 52 -186 127 -28 52 -26 180 4 237 26 51 81 90 143 102 47 10 128 5 169 -11z m1005 -10 l39 -21 14 22 c19 28 58 28 68 -1 13 -39 9 -400 -5 -425 -16 -30 -35 -29 -59 4 l-19 26 -34 -24 c-25 -18 -50 -24 -99 -27 -93 -5 -144 23 -185 103 -26 52 -30 69 -30 144 0 73 4 93 25 130 52 94 176 123 285 69z m-3754 -10 c1 -18 4 -82 8 -143 l6 -110 135 0 135 0 5 130 c3 72 9 136 13 143 14 21 54 14 61 -10 7 -29 8 -566 0 -595 -8 -29 -34 -38 -53 -18 -12 11 -17 46 -21 138 l-5 122 -135 -1 -135 0 -7 -129 c-4 -89 -10 -130 -20 -136 -16 -11 -20 -11 -38 1 -13 8 -15 54 -18 292 -2 156 -1 298 3 316 5 27 10 32 35 32 27 0 30 -3 31 -32z m1459 6 c6 -14 10 -97 10 -184 0 -175 -1 -173 64 -177 96 -7 85 -75 -13 -79 l-46 -2 -5 -58 c-6 -70 -13 -84 -44 -84 -27 0 -36 22 -36 86 0 50 -14 64 -61 64 -42 0 -64 20 -54 49 4 15 19 22 58 28 l52 8 5 175 c3 96 9 181 13 188 14 21 47 14 57 -14z m563 15 c21 -5 44 -21 54 -35 14 -22 14 -27 1 -40 -12 -12 -23 -13 -59 -5 -68 16 -150 13 -189 -7 -34 -17 -76 -74 -66 -90 3 -5 33 -3 68 5 99 21 200 2 243 -46 26 -30 26 -114 0 -159 -29 -48 -94 -76 -177 -76 -154 2 -238 99 -225 261 8 105 52 159 157 196 27 10 154 7 193 -4z m979 9 c1 -2 4 -79 7 -173 l6 -170 35 -17 c44 -21 119 -23 147 -3 27 19 40 80 48 227 7 121 16 143 51 136 28 -5 37 -63 31 -200 -10 -206 -47 -263 -167 -261 -30 1 -72 9 -93 18 -21 8 -42 13 -47 10 -6 -4 -10 -56 -10 -116 0 -61 -5 -119 -10 -130 -15 -28 -49 -24 -60 7 -6 14 -10 154 -10 324 0 170 4 310 10 324 7 19 17 26 35 26 14 0 26 -1 27 -2z m1092 -14 c13 -12 16 -40 16 -137 0 -185 22 -237 99 -237 32 0 44 6 69 34 35 40 48 93 57 226 8 104 16 130 44 130 31 0 38 -21 45 -125 12 -178 54 -265 126 -265 80 0 100 43 100 212 0 68 3 133 6 145 7 27 29 36 55 23 18 -10 19 -23 19 -178 0 -190 -13 -237 -69 -266 -75 -39 -203 -6 -249 64 -13 19 -28 35 -33 35 -5 0 -17 -15 -27 -34 -28 -56 -63 -75 -144 -79 -87 -5 -126 12 -154 66 -27 54 -34 360 -9 385 20 21 29 21 49 1z m1718 -4 c34 -16 45 -47 26 -67 -12 -11 -24 -12 -59 -4 -110 26 -208 5 -239 -51 -23 -42 -6 -52 69 -38 109 20 220 -13 240 -71 41 -119 -43 -214 -189 -213 -134 2 -217 77 -227 207 -7 81 10 139 53 187 49 54 99 70 209 66 50 -1 102 -9 117 -16z m315 8 c4 -7 10 -94 13 -193 l5 -180 49 -2 c56 -2 81 -21 72 -51 -5 -16 -19 -22 -54 -27 -71 -10 -72 -11 -72 -57 0 -70 -9 -88 -40 -88 -27 0 -28 2 -35 63 -9 76 -17 87 -65 87 -42 0 -65 20 -55 49 4 15 19 22 58 28 l52 8 6 176 c3 97 9 181 13 188 10 15 43 14 53 -1z m333 -14 c6 -14 10 -84 10 -155 0 -128 0 -130 27 -155 14 -13 38 -27 52 -30 72 -15 96 -29 99 -58 7 -62 -79 -64 -146 -3 l-22 21 -12 -31 c-14 -36 -46 -49 -68 -27 -12 12 -15 51 -15 222 0 114 3 215 7 225 12 27 57 22 68 -9z m645 6 c20 -10 31 -24 33 -42 4 -33 -19 -42 -68 -28 -97 28 -197 5 -236 -55 -26 -39 -9 -48 67 -36 67 11 159 2 198 -18 53 -29 69 -126 31 -188 -58 -96 -263 -103 -347 -12 -73 80 -75 253 -5 333 9 10 40 30 67 43 43 21 62 23 140 21 54 -2 102 -9 120 -18z m-1485 -565 l41 -34 45 34 c25 19 56 35 70 35 20 0 24 -5 24 -31 0 -54 -100 -129 -153 -115 -35 8 -106 63 -119 91 -28 61 28 74 92 20z m1637 -544 c97 -45 99 -176 3 -226 -26 -13 -480 -15 -3715 -15 -3235 0 -3689 2 -3715 15 -96 50 -94 181 3 226 41 18 128 19 3712 19 3584 0 3671 -1 3712 -19z m-5763 -696 c45 -8 126 -46 145 -69 20 -24 29 -20 45 18 24 58 83 75 112 31 33 -50 42 -631 13 -748 -18 -68 -103 -74 -124 -9 -6 17 -13 34 -17 37 -3 3 -31 -12 -62 -34 -76 -53 -166 -70 -269 -52 -179 30 -282 168 -294 393 -12 210 53 348 192 409 77 34 151 41 259 24z m2470 -29 c86 -42 135 -92 177 -181 54 -114 55 -294 1 -409 -36 -78 -83 -125 -159 -162 -55 -27 -65 -29 -188 -29 -155 0 -213 19 -295 92 -90 81 -130 176 -130 313 0 175 72 310 200 375 73 37 114 45 222 41 89 -3 104 -6 172 -40z m2575 22 c24 -6 65 -26 91 -44 26 -18 51 -30 55 -26 4 4 13 21 20 39 14 34 43 48 80 39 45 -11 50 -52 50 -411 0 -358 -5 -398 -50 -409 -28 -7 -74 8 -80 26 -2 7 -9 26 -15 41 l-10 29 -37 -33 c-65 -57 -116 -73 -224 -74 -90 0 -100 2 -165 35 -114 58 -173 158 -195 329 -18 144 14 284 84 367 77 90 246 130 396 92z m670 -4 c12 -11 17 -63 24 -231 11 -269 1 -898 -14 -942 -13 -37 -39 -54 -72 -46 -36 10 -48 41 -59 154 -12 127 -1 1011 12 1047 16 42 74 52 109 18z m-1607 -1 c46 -52 148 -305 273 -678 81 -241 88 -266 89 -344 1 -84 1 -84 -28 -94 -69 -23 -93 26 -257 513 -60 179 -111 331 -114 339 -12 30 -33 -15 -80 -164 -69 -222 -153 -470 -188 -555 -50 -124 -77 -151 -130 -131 -40 16 -43 49 -12 177 74 315 275 852 348 932 25 27 77 30 99 5z m-5708 -16 c25 -26 42 -110 101 -522 20 -137 40 -254 46 -259 15 -16 26 3 82 154 69 183 140 353 161 385 20 30 59 41 91 27 14 -7 37 -36 54 -69 31 -63 148 -355 176 -440 17 -55 31 -72 45 -57 4 5 20 101 35 214 31 242 71 492 86 538 6 17 19 37 29 42 28 15 76 12 90 -5 25 -31 -3 -280 -80 -701 -70 -384 -81 -414 -149 -414 -63 0 -86 36 -170 265 -77 207 -122 318 -137 334 -16 18 -31 -11 -127 -259 -103 -264 -105 -270 -133 -307 -20 -26 -32 -33 -60 -33 -53 0 -72 15 -89 73 -49 161 -165 859 -165 989 0 20 7 44 16 52 23 23 71 20 98 -7z m2430 7 c18 -18 17 4 25 -364 l6 -285 93 -5 c78 -4 96 -8 108 -24 16 -23 18 -45 5 -79 -12 -32 -38 -40 -131 -41 l-75 -1 -6 -102 c-8 -127 -21 -153 -79 -153 -52 0 -62 20 -68 140 -2 52 -9 101 -14 108 -7 7 -36 12 -80 12 -61 0 -72 3 -95 26 -20 20 -24 31 -19 57 9 46 30 57 112 57 46 0 75 5 82 13 7 8 12 120 14 308 3 262 5 298 21 322 13 21 26 27 52 27 18 0 41 -7 49 -16z m694 -17 c10 -20 15 -112 20 -330 l7 -302 86 -5 c101 -6 119 -17 119 -71 0 -55 -30 -72 -129 -74 l-76 -2 -7 -89 c-6 -91 -20 -143 -41 -156 -20 -13 -74 -9 -87 7 -7 8 -16 62 -20 120 -5 58 -12 110 -15 115 -3 6 -35 10 -71 10 -91 0 -124 19 -124 71 0 52 26 68 115 71 l80 3 11 315 c6 173 12 316 13 317 18 24 39 34 70 31 28 -2 39 -9 49 -31z m1975 -390 c38 -25 38 -79 0 -104 -24 -16 -59 -18 -293 -21 -288 -4 -362 4 -381 40 -16 30 -2 87 24 98 12 5 157 8 322 7 269 -2 304 -4 328 -20z m-5009 -1367 c7 -7 13 -96 16 -243 l5 -232 170 -6 c94 -3 182 -11 198 -17 24 -10 27 -17 27 -56 0 -37 -4 -48 -22 -58 -14 -7 -97 -17 -198 -23 l-175 -10 -3 -139 c-4 -197 -24 -183 276 -188 172 -3 244 -8 264 -17 34 -17 46 -63 24 -96 -21 -33 -72 -37 -361 -33 -273 3 -288 7 -327 81 -23 42 -23 46 -26 504 -3 476 1 537 36 547 25 7 84 -2 96 -14z m1258 -9 c93 -36 130 -110 73 -147 -23 -15 -31 -15 -120 6 -120 28 -238 25 -301 -8 -68 -35 -139 -131 -115 -155 6 -6 36 -3 79 7 40 9 115 16 169 16 239 0 346 -85 330 -261 -9 -105 -76 -188 -186 -230 -76 -30 -231 -32 -311 -6 -167 57 -260 199 -260 397 0 175 71 300 205 364 83 39 123 46 260 42 94 -3 133 -8 177 -25z m444 21 c32 -21 37 -60 42 -300 4 -222 7 -245 24 -268 27 -34 82 -60 167 -80 94 -21 126 -47 126 -104 0 -55 -21 -70 -97 -70 -67 0 -117 21 -177 75 -42 38 -51 37 -51 -9 0 -18 -7 -41 -15 -53 -18 -26 -67 -38 -94 -24 -41 22 -46 67 -46 411 0 332 4 388 31 415 16 16 71 20 90 7z m2525 -2 c113 -22 180 -76 165 -136 -11 -44 -44 -49 -143 -24 -122 31 -236 26 -310 -14 -65 -36 -128 -124 -109 -155 3 -4 36 0 73 10 97 27 258 26 349 -2 93 -29 137 -73 154 -153 22 -106 -14 -210 -94 -271 -77 -59 -225 -88 -338 -65 -138 27 -227 93 -281 209 -30 63 -31 72 -32 191 0 108 3 133 24 188 40 106 144 192 268 221 53 13 210 13 274 1z m-1887 -6 c36 -14 41 -45 46 -294 5 -222 8 -249 27 -292 26 -58 71 -88 131 -88 119 0 187 105 212 325 5 50 10 126 10 170 1 142 20 185 85 185 58 0 68 -23 77 -183 14 -265 40 -371 106 -440 61 -65 147 -77 203 -30 65 55 72 89 78 366 6 246 6 249 30 268 30 24 62 24 92 0 24 -19 24 -20 27 -267 4 -347 -14 -434 -107 -499 -42 -30 -45 -30 -169 -30 -118 0 -130 2 -177 27 -65 34 -98 70 -130 141 -22 47 -29 56 -41 46 -8 -6 -14 -18 -14 -26 0 -23 -37 -89 -69 -120 -58 -58 -114 -77 -231 -77 -94 -1 -110 2 -155 25 -29 15 -61 43 -77 65 -48 71 -53 106 -53 412 l0 284 24 19 c24 20 47 24 75 13z m3026 -1535 c78 -12 247 -77 315 -120 66 -42 243 -221 286 -289 19 -30 50 -82 68 -115 32 -56 63 -99 190 -263 27 -34 75 -109 107 -165 44 -78 83 -128 163 -212 204 -213 267 -276 316 -313 28 -21 112 -84 187 -141 273 -204 495 -491 566 -732 28 -93 61 -386 56 -494 -2 -44 -5 -135 -8 -202 -11 -281 -84 -434 -280 -588 -75 -58 -88 -80 -50 -80 27 0 28 -26 4 -83 -26 -61 -249 -282 -389 -387 -52 -38 -111 -84 -130 -102 -35 -30 -35 -32 -18 -51 15 -16 24 -18 50 -11 63 16 272 62 292 63 13 1 20 -5 20 -17 0 -20 -125 -74 -296 -127 -130 -41 -167 -84 -79 -92 26 -2 35 -8 35 -21 0 -23 -88 -63 -245 -110 -235 -71 -458 -102 -568 -78 l-52 11 -138 -99 c-227 -164 -588 -339 -707 -344 -44 -2 -50 0 -50 18 0 15 21 30 85 61 95 47 170 116 170 158 0 34 -11 38 -58 22 -54 -19 -321 -74 -397 -82 -91 -9 -169 30 -114 57 8 4 39 12 69 19 63 14 164 62 198 93 13 12 22 30 20 42 -3 17 -13 21 -81 27 -149 14 -268 54 -383 131 -44 29 -85 65 -92 80 -9 18 -21 27 -36 27 -71 0 -212 80 -311 177 -139 136 -272 280 -326 353 -50 68 -149 224 -149 235 0 2 -16 37 -36 77 -19 40 -42 98 -50 128 -16 62 -19 247 -4 301 6 20 16 69 24 110 16 88 78 329 107 414 22 66 70 325 63 337 -3 5 -13 8 -23 8 -10 0 -51 11 -91 25 -105 36 -140 34 -179 -10 -29 -33 -31 -41 -31 -111 0 -41 7 -107 16 -145 10 -45 15 -102 12 -158 -3 -77 -6 -92 -30 -123 -62 -81 -188 -102 -355 -59 -45 12 -91 21 -104 21 -26 0 -102 -41 -205 -111 -156 -105 -293 -159 -426 -167 -102 -6 -128 6 -206 94 -91 102 -108 239 -40 335 32 45 132 129 191 158 37 19 157 119 157 131 0 22 -77 65 -158 87 -69 18 -93 30 -125 60 -49 48 -58 71 -50 130 5 38 15 55 49 89 49 47 61 51 197 63 159 14 258 78 272 174 15 95 -7 120 -51 58 -18 -25 -52 -53 -88 -72 -82 -44 -134 -38 -259 29 -51 27 -111 53 -135 57 -39 6 -45 4 -75 -27 -19 -18 -53 -67 -77 -108 -66 -115 -130 -210 -180 -265 -145 -160 -240 -211 -391 -209 -154 2 -311 50 -364 112 -13 15 -36 51 -51 81 -55 108 -43 298 28 448 23 50 44 74 106 125 140 116 152 129 152 182 0 30 -17 98 -46 184 -71 209 -70 306 4 394 37 44 79 58 174 58 91 0 125 12 147 51 13 23 12 34 -12 111 -31 100 -33 127 -11 192 21 61 73 111 138 132 81 28 247 25 369 -6 l99 -25 36 41 c20 22 50 57 65 78 70 91 163 123 270 92 147 -43 242 -102 388 -243 98 -94 174 -136 277 -152 37 -5 220 -12 407 -15 344 -4 350 -5 558 -49 4 -1 39 56 76 128 118 225 273 388 416 438 118 42 243 66 340 65 50 0 124 4 165 9 84 11 213 7 310 -8z"/>
 <path d="M6239 10795 c-45 -24 -62 -62 -63 -137 0 -79 18 -112 77 -141 119 -60 236 95 169 223 -33 61 -122 88 -183 55z"/>
 <path d="M1882 10819 c-74 -15 -120 -102 -106 -198 10 -68 65 -121 125 -121 53 0 102 27 129 72 24 40 27 123 6 173 -23 55 -91 88 -154 74z"/>
 <path d="M4831 10819 c-75 -16 -117 -100 -101 -205 10 -66 61 -114 122 -114 87 0 148 65 148 158 0 113 -72 182 -169 161z"/>
 <path d="M2993 10635 c-38 -16 -40 -28 -13 -73 57 -93 230 -76 230 23 0 49 -28 65 -115 65 -38 -1 -85 -7 -102 -15z"/>
 <path d="M6760 10637 c-29 -10 -34 -17 -32 -37 4 -36 26 -65 65 -84 68 -32 158 -12 177 40 14 36 13 42 -15 69 -21 22 -33 25 -92 24 -37 0 -84 -6 -103 -12z"/>
 <path d="M8053 10635 c-40 -17 -42 -42 -8 -83 34 -40 76 -56 132 -49 83 9 122 83 67 126 -21 17 -41 21 -93 21 -36 -1 -81 -7 -98 -15z"/>
 <path d="M2546 8926 c-52 -20 -100 -68 -127 -130 -34 -76 -32 -210 3 -287 45 -98 140 -143 250 -120 95 21 152 73 184 170 20 62 15 175 -11 237 -18 45 -67 99 -108 120 -41 22 -145 27 -191 10z"/>
 <path d="M4896 8928 c-62 -17 -131 -90 -151 -162 -21 -72 -16 -163 12 -227 84 -190 353 -199 439 -15 34 73 34 199 0 272 -53 113 -172 166 -300 132z"/>
 <path d="M7567 8927 c-94 -30 -146 -111 -154 -241 -9 -136 34 -238 121 -283 46 -25 160 -22 212 5 53 27 107 90 123 144 18 59 16 169 -4 229 -41 123 -169 186 -298 146z"/>
 <path d="M2065 6846 c-64 -16 -95 -33 -95 -52 0 -55 61 -136 125 -165 55 -26 177 -26 225 0 105 55 106 192 2 221 -49 13 -195 11 -257 -4z"/>
 <path d="M5087 6841 c-37 -10 -72 -22 -76 -27 -15 -14 18 -95 52 -133 48 -51 100 -71 187 -71 88 0 132 19 168 70 42 62 25 131 -40 160 -56 26 -196 26 -291 1z"/>
 </g>
<g id="layerbg3" fill="#ff1d15" stroke="none">
 <path d="M6309 5776 c-2 -2 -35 -7 -74 -10 -38 -3 -83 -10 -100 -14 -17 -5 -45 -5 -62 0 -48 13 -151 -3 -286 -43 -146 -45 -243 -121 -374 -294 -119 -158 -185 -317 -198 -480 -10 -128 -63 -489 -91 -620 -14 -66 -32 -158 -40 -205 -17 -95 -48 -214 -69 -264 -8 -18 -21 -61 -29 -97 -8 -35 -29 -107 -46 -159 -31 -96 -35 -110 -65 -275 -9 -49 -18 -99 -20 -110 -2 -11 -7 -40 -10 -64 -4 -25 -13 -63 -21 -85 -16 -44 -47 -152 -64 -226 -6 -25 -20 -72 -30 -105 -10 -33 -22 -85 -25 -115 -4 -30 -13 -80 -21 -111 -19 -77 -18 -206 3 -293 16 -66 117 -281 149 -317 8 -8 14 -19 14 -22 0 -9 165 -228 182 -243 7 -6 58 -59 113 -118 160 -172 287 -264 395 -287 38 -8 54 -8 65 1 11 9 37 8 113 -4 131 -21 297 -30 347 -19 30 7 40 14 40 28 0 14 -16 25 -64 42 -101 36 -163 75 -189 119 -29 51 -25 76 13 85 157 39 686 56 920 30 l119 -13 51 54 c266 283 296 310 511 436 96 57 104 56 104 -15 0 -32 -5 -92 -11 -133 -13 -81 -6 -177 15 -205 13 -18 13 -18 258 91 54 24 101 44 106 44 12 0 180 89 227 120 22 14 97 54 167 88 70 34 133 70 140 79 7 10 38 39 68 64 88 74 127 116 168 177 64 97 101 244 108 432 2 63 6 149 8 190 2 41 0 104 -5 140 -6 36 -12 100 -15 142 -6 98 -35 210 -74 290 -16 35 -30 67 -30 72 0 5 -11 24 -25 42 -14 18 -25 35 -25 39 0 7 -64 105 -84 128 -9 9 -16 19 -16 22 0 6 -76 89 -175 191 -67 69 -112 106 -201 167 -22 15 -51 37 -65 50 -13 12 -36 29 -51 37 -28 15 -152 125 -213 190 -19 19 -81 85 -139 145 -105 111 -143 159 -171 218 -9 18 -21 41 -28 52 -63 100 -97 147 -138 191 -45 48 -103 132 -139 199 -44 81 -75 132 -92 150 -185 196 -238 242 -333 293 -64 34 -215 84 -280 92 -83 11 -211 20 -216 16z m-200 -732 c17 -14 43 -46 58 -71 24 -42 26 -50 19 -135 -8 -114 -23 -148 -82 -176 -85 -42 -128 -27 -191 67 -40 60 -43 69 -43 132 0 69 23 142 52 167 23 18 89 41 125 41 20 1 43 -8 62 -25z m834 14 c88 -47 247 -238 247 -297 0 -65 -71 -120 -132 -103 -53 15 -251 223 -268 282 -11 39 4 90 33 112 25 20 88 23 120 6z m-194 -723 c29 -15 79 -84 105 -145 21 -51 31 -209 16 -255 -15 -47 -87 -95 -140 -95 -88 0 -186 141 -182 262 2 80 67 221 108 236 41 15 61 14 93 -3z m933 -106 c63 -13 139 -64 175 -118 17 -25 23 -48 23 -90 0 -48 -5 -64 -35 -108 -37 -55 -78 -76 -152 -77 -44 0 -110 48 -146 106 -26 42 -29 55 -30 143 l-2 97 33 29 c36 32 52 34 134 18z m-1886 -274 c62 -43 55 -122 -23 -263 -45 -82 -66 -110 -106 -139 -56 -41 -99 -47 -140 -20 -50 33 -52 107 -4 220 18 41 140 202 160 210 26 11 94 6 113 -8z m2519 -612 c62 -52 78 -74 129 -172 74 -141 -40 -272 -163 -186 -52 35 -126 132 -167 219 -38 79 -40 95 -19 136 20 38 59 59 112 60 36 0 50 -7 108 -57z m-1935 37 c10 -5 23 -24 29 -42 17 -47 36 -294 27 -350 -13 -85 -87 -142 -152 -118 -81 31 -100 92 -90 293 7 146 17 182 58 211 25 18 100 21 128 6z m1005 -392 c15 -7 55 -50 90 -96 100 -133 130 -266 72 -320 -27 -26 -95 -42 -126 -30 -47 17 -101 71 -147 146 -38 62 -49 91 -57 149 -10 67 -9 75 9 100 23 32 78 63 111 63 12 0 34 -5 48 -12z m-1946 -193 c41 -20 56 -66 54 -160 -3 -141 -67 -294 -138 -329 -35 -17 -42 -18 -79 -5 -110 38 -112 202 -6 414 46 92 98 117 169 80z m857 -437 c162 -159 190 -225 140 -330 -28 -58 -90 -74 -162 -40 -110 50 -159 101 -220 227 -36 74 -40 106 -23 169 16 59 49 86 105 86 47 0 48 -1 160 -112z"/>
 </g>
<g id="layerbg4" fill="#f45f35" stroke="none">
 <path d="M6485 5760 c-8 -12 20 -24 35 -15 6 3 8 11 5 16 -8 12 -32 12 -40 -1z"/>
 <path d="M6126 5753 c-4 -5 -12 -8 -17 -8 -5 0 -9 -3 -9 -7 0 -8 3 -9 18 -7 4 1 12 2 17 3 13 1 19 20 8 23 -5 2 -13 0 -17 -4z"/>
 <path d="M6595 5740 c-3 -6 0 -12 7 -15 7 -2 38 -13 68 -24 34 -13 58 -17 64 -11 9 9 -2 15 -88 46 -46 17 -43 16 -51 4z"/>
 <path d="M5775 5707 c-10 -8 -14 -16 -9 -19 14 -9 56 11 49 22 -8 13 -18 13 -40 -3z"/>
 <path d="M5662 5664 c-32 -22 -18 -35 18 -17 17 8 28 19 25 24 -8 13 -17 11 -43 -7z"/>
 <path d="M6785 5670 c-3 -5 9 -17 27 -26 18 -9 47 -27 65 -40 17 -13 34 -20 38 -15 6 11 -42 49 -92 75 -19 9 -34 12 -38 6z"/>
 <path d="M5521 5546 c-13 -13 -18 -26 -13 -30 5 -3 19 5 31 18 13 13 18 26 13 30 -5 3 -19 -5 -31 -18z"/>
 <path d="M6997 5513 c-4 -6 13 -29 37 -52 24 -24 46 -39 49 -34 4 6 -13 29 -37 52 -24 24 -46 39 -49 34z"/>
 <path d="M5441 5456 c-13 -13 -18 -26 -13 -30 5 -3 19 5 31 18 13 13 18 26 13 30 -5 3 -19 -5 -31 -18z"/>
 <path d="M5381 5381 c-12 -16 -17 -32 -12 -35 5 -4 19 7 30 23 12 16 17 32 12 35 -5 4 -19 -7 -30 -23z"/>
 <path d="M7106 5392 c-3 -5 3 -17 13 -26 11 -10 22 -13 25 -8 3 5 -3 17 -13 26 -11 10 -22 13 -25 8z"/>
 <path d="M7177 5294 c-3 -5 3 -20 12 -33 11 -14 21 -19 25 -13 3 5 -2 20 -12 33 -11 12 -21 18 -25 13z"/>
 <path d="M5254 5145 c-8 -21 -13 -40 -10 -43 3 -3 1 -11 -6 -19 -6 -7 -8 -16 -5 -20 4 -3 2 -12 -4 -19 -6 -8 -6 -14 0 -18 5 -4 12 -2 16 4 3 5 3 10 -1 10 -3 0 -1 7 6 15 7 9 10 18 7 22 -4 3 -3 11 2 17 4 6 13 26 19 43 16 47 -5 53 -24 8z"/>
 <path d="M7267 5144 c-3 -6 4 -23 17 -39 13 -15 25 -24 29 -19 3 6 -4 23 -17 39 -13 15 -25 24 -29 19z"/>
 <path d="M5975 5074 c-83 -30 -125 -102 -125 -212 0 -61 4 -73 39 -127 55 -84 82 -107 133 -111 34 -4 54 1 92 23 66 37 84 75 92 190 7 86 5 94 -19 136 -14 24 -44 60 -66 80 -46 41 -78 46 -146 21z"/>
 <path d="M6813 5064 c-38 -29 -55 -81 -43 -125 19 -65 238 -292 293 -303 62 -12 147 59 147 124 0 62 -174 270 -267 318 -38 20 -95 14 -130 -14z"/>
 <path d="M5215 4987 c-9 -22 -2 -62 10 -60 6 1 11 14 13 29 4 32 -14 56 -23 31z"/>
 <path d="M7437 4924 c-3 -6 4 -23 17 -39 13 -15 25 -24 29 -19 3 6 -4 23 -17 39 -13 15 -25 24 -29 19z"/>
 <path d="M5205 4889 c-10 -27 -10 -124 0 -129 14 -7 30 119 16 133 -7 7 -12 6 -16 -4z"/>
 <path d="M7526 4772 c-3 -5 2 -20 12 -33 24 -29 36 -11 13 20 -11 14 -21 19 -25 13z"/>
 <path d="M5184 4716 c-8 -21 3 -49 16 -41 5 3 10 15 10 25 0 25 -18 36 -26 16z"/>
 <path d="M5174 4646 c-3 -9 -4 -22 -1 -30 3 -7 1 -18 -4 -23 -5 -5 -11 -34 -13 -64 -2 -29 -7 -61 -11 -70 -3 -10 -5 -23 -4 -30 1 -8 -1 -22 -5 -31 -10 -22 0 -51 15 -43 5 4 9 17 8 28 -1 12 1 30 6 40 4 9 5 23 2 31 -3 7 -1 18 4 23 5 5 11 35 13 67 2 32 7 60 10 63 10 10 7 41 -4 48 -6 3 -13 -1 -16 -9z"/>
 <path d="M7716 4542 c-3 -5 8 -21 23 -36 16 -15 31 -23 35 -18 3 5 -8 21 -23 36 -16 15 -31 23 -35 18z"/>
 <path d="M7807 4442 c-4 -5 9 -23 27 -41 19 -18 36 -29 39 -23 4 5 -9 23 -27 41 -19 18 -36 29 -39 23z"/>
 <path d="M6650 4352 c-50 -25 -120 -167 -122 -249 -4 -126 108 -283 202 -283 49 0 128 52 153 100 16 30 17 50 12 135 -7 107 -21 152 -75 230 -34 49 -82 85 -115 85 -11 0 -36 -8 -55 -18z"/>
 <path d="M5125 4330 c-4 -6 -4 -14 -1 -17 3 -3 1 -12 -6 -20 -6 -7 -8 -16 -5 -20 4 -3 2 -12 -3 -19 -6 -6 -12 -27 -14 -45 -2 -19 -7 -42 -11 -51 -9 -23 1 -51 16 -43 5 4 9 17 7 28 -1 12 1 28 5 34 4 7 9 28 11 46 2 19 6 39 10 46 5 7 5 15 2 18 -3 3 -1 12 6 20 8 10 8 17 1 24 -8 8 -13 7 -18 -1z"/>
 <path d="M7557 4241 c-54 -35 -62 -57 -60 -159 1 -79 5 -98 27 -136 30 -51 86 -103 133 -122 26 -11 43 -12 81 -3 65 16 86 31 127 91 29 44 35 62 35 106 0 63 -15 94 -67 143 -59 55 -93 76 -151 88 -72 15 -92 14 -125 -8z"/>
 <path d="M8016 4251 c-4 -5 7 -19 23 -30 16 -12 32 -17 35 -12 4 5 -7 19 -23 30 -16 12 -32 17 -35 12z"/>
 <path d="M8086 4202 c-3 -6 19 -28 49 -51 29 -22 56 -37 60 -32 4 8 -21 31 -92 83 -6 5 -14 5 -17 0z"/>
 <path d="M5074 4086 c-4 -9 -4 -20 0 -23 3 -3 1 -12 -5 -19 -6 -8 -9 -20 -6 -28 3 -7 1 -18 -5 -24 -6 -6 -6 -12 1 -16 6 -4 12 -5 12 -2 3 13 6 22 13 37 4 9 6 20 5 25 -1 5 1 17 6 27 4 11 3 23 -3 29 -8 8 -13 7 -18 -6z"/>
 <path d="M5673 3975 c-32 -22 -152 -179 -170 -222 -30 -71 -42 -132 -32 -165 20 -71 93 -111 151 -84 65 31 117 89 173 190 79 146 83 212 13 271 -34 29 -101 34 -135 10z"/>
 <path d="M5049 3956 c-3 -14 -7 -27 -9 -33 -2 -5 -4 -12 -4 -18 -1 -5 -7 -20 -14 -32 -7 -13 -10 -23 -6 -23 3 0 1 -7 -6 -15 -7 -8 -9 -15 -5 -15 4 0 2 -6 -4 -14 -8 -10 -9 -16 -1 -21 5 -3 11 -4 11 -1 4 16 7 26 9 31 1 3 3 8 4 13 1 4 7 17 14 30 7 12 10 22 6 22 -3 0 -1 7 6 15 7 9 10 18 7 22 -4 3 -2 12 4 19 7 8 7 14 -1 19 -5 3 -11 4 -11 1z"/>
 <path d="M8496 3832 c-3 -5 3 -17 13 -26 11 -10 22 -13 25 -8 3 5 -3 17 -13 26 -11 10 -22 13 -25 8z"/>
 <path d="M4979 3716 c-1 -3 -2 -9 -3 -13 -1 -5 -7 -18 -14 -30 -7 -12 -11 -26 -11 -30 1 -4 -3 -21 -10 -37 -6 -16 -13 -36 -15 -45 -2 -9 -8 -29 -15 -45 -8 -20 -8 -33 -2 -39 7 -7 14 -1 21 17 5 15 9 30 8 34 0 4 7 24 16 46 9 21 15 41 12 44 -3 3 -1 10 4 17 5 6 11 20 13 31 1 10 6 24 10 31 4 6 3 14 -3 18 -5 3 -11 4 -11 1z"/>
 <path d="M8685 3550 c-4 -6 1 -20 12 -32 10 -11 17 -22 16 -24 -2 -2 -1 -4 2 -4 4 0 6 6 4 13 0 1 -2 10 -4 21 -5 26 -21 40 -30 26z"/>
 <path d="M4894 3436 c-4 -9 -4 -20 0 -23 3 -3 1 -12 -5 -19 -7 -8 -7 -14 1 -19 5 -3 11 -4 11 -1 3 13 6 22 14 39 4 11 3 23 -3 29 -8 8 -13 7 -18 -6z"/>
 <path d="M8132 3400 c-36 -22 -72 -74 -72 -105 0 -36 67 -163 123 -233 117 -146 209 -163 285 -52 36 53 27 113 -33 220 -22 38 -123 145 -164 172 -35 24 -98 23 -139 -2z"/>
 <path d="M6240 3384 c-51 -43 -59 -70 -66 -221 -8 -168 2 -226 49 -271 67 -65 127 -62 191 8 46 51 52 98 38 272 -16 197 -39 238 -133 238 -37 0 -55 -6 -79 -26z"/>
 <path d="M4864 3276 c-4 -10 -2 -22 4 -28 8 -8 13 -7 18 6 4 10 2 22 -4 28 -8 8 -13 7 -18 -6z"/>
 <path d="M4835 3110 c-4 -6 -4 -14 -1 -17 3 -3 1 -12 -5 -19 -6 -7 -8 -18 -4 -24 9 -14 28 -1 21 15 -2 7 1 18 7 24 8 8 8 14 0 22 -8 8 -13 8 -18 -1z"/>
 <path d="M7285 3006 c-44 -19 -95 -81 -95 -115 0 -132 114 -318 224 -366 64 -28 169 30 182 101 11 62 -31 172 -104 269 -90 120 -133 143 -207 111z"/>
 <path d="M4798 2985 c-3 -24 -6 -32 -17 -59 -8 -20 -8 -33 -2 -39 7 -7 14 -1 21 18 6 15 8 30 5 33 -2 3 0 11 7 19 8 10 8 17 0 25 -7 7 -13 8 -14 3z"/>
 <path d="M5335 2820 c-70 -28 -165 -251 -165 -386 0 -64 49 -136 106 -154 87 -29 171 58 220 225 23 81 23 209 0 253 -30 58 -103 86 -161 62z"/>
 <path d="M4745 2780 c-4 -6 -4 -14 -1 -17 3 -3 1 -12 -5 -19 -6 -8 -6 -14 0 -18 5 -4 12 -2 16 4 3 5 3 10 -1 10 -3 0 -1 7 6 15 9 11 10 19 3 26 -8 8 -13 7 -18 -1z"/>
 <path d="M8794 2706 c-8 -21 3 -49 16 -41 5 3 10 15 10 25 0 25 -18 36 -26 16z"/>
 <path d="M8784 2576 c-4 -10 -2 -22 4 -28 8 -8 13 -7 18 6 4 10 2 22 -4 28 -8 8 -13 7 -18 -6z"/>
 <path d="M4695 2560 c-4 -6 -4 -14 -1 -17 3 -3 1 -12 -6 -20 -6 -7 -8 -16 -5 -20 4 -3 2 -12 -4 -19 -6 -7 -8 -18 -4 -24 9 -14 28 -1 21 16 -3 7 -1 16 5 20 6 3 8 12 5 19 -2 7 1 18 7 24 8 8 8 14 0 22 -8 8 -13 8 -18 -1z"/>
 <path d="M8775 2520 c-4 -6 -4 -14 -1 -17 3 -3 1 -12 -5 -19 -6 -7 -8 -18 -4 -24 9 -14 28 -1 21 15 -2 7 1 18 7 24 8 8 8 14 0 22 -8 8 -13 8 -18 -1z"/>
 <path d="M6055 2457 c-65 -65 -70 -144 -16 -253 62 -123 124 -185 235 -236 76 -35 147 -13 180 57 56 117 22 185 -191 388 -78 73 -84 77 -128 77 -40 0 -52 -5 -80 -33z"/>
 <path d="M8697 2303 c-14 -21 -23 -41 -20 -46 7 -11 19 0 41 38 29 47 9 55 -21 8z"/>
 <path d="M8606 2191 c-32 -32 -54 -61 -49 -64 5 -3 36 20 67 52 32 32 54 61 49 64 -5 3 -36 -20 -67 -52z"/>
 <path d="M4686 2211 c-10 -16 13 -66 25 -54 6 6 6 19 0 36 -11 29 -16 32 -25 18z"/>
 <path d="M7480 2007 c-27 -16 -47 -33 -44 -38 3 -5 30 4 60 22 42 24 58 28 68 19 9 -7 16 -7 20 -1 7 11 -11 24 -36 26 -9 1 -40 -12 -68 -28z"/>
 <path d="M4767 2024 c-12 -13 29 -87 44 -78 5 3 0 23 -11 45 -21 41 -23 43 -33 33z"/>
 <path d="M8252 1949 c-35 -16 -61 -33 -57 -39 6 -9 110 31 128 49 21 21 -13 16 -71 -10z"/>
 <path d="M7367 1938 c-26 -17 -44 -34 -41 -39 5 -9 39 7 84 41 41 31 5 30 -43 -2z"/>
 <path d="M7564 1896 c-4 -10 -2 -22 4 -28 8 -8 13 -7 18 6 4 10 2 22 -4 28 -8 8 -13 7 -18 -6z"/>
 <path d="M8085 1854 c-16 -9 -50 -28 -75 -42 -25 -15 -48 -27 -52 -28 -5 -1 -9 -2 -10 -4 -2 -1 -10 -3 -19 -5 -36 -7 -110 -45 -105 -54 6 -9 53 6 101 32 11 6 23 12 28 13 4 1 9 3 12 4 3 1 8 3 13 4 24 4 151 79 147 87 -7 11 -4 12 -40 -7z"/>
 <path d="M7554 1836 c-4 -10 -2 -22 4 -28 8 -8 13 -7 18 6 4 10 2 22 -4 28 -8 8 -13 7 -18 -6z"/>
 <path d="M7151 1776 c-24 -24 -39 -46 -34 -49 6 -4 29 13 52 37 24 24 39 46 34 49 -6 4 -29 -13 -52 -37z"/>
 <path d="M4927 1764 c-3 -6 4 -23 17 -39 13 -15 25 -24 29 -19 3 6 -4 23 -17 39 -13 15 -25 24 -29 19z"/>
 <path d="M7775 1707 c-11 -6 -27 -12 -35 -14 -9 -1 -45 -15 -80 -32 -43 -19 -69 -26 -77 -20 -16 14 -28 -8 -13 -26 12 -14 15 -13 148 47 26 11 53 22 61 24 19 4 34 21 24 27 -5 3 -17 0 -28 -6z"/>
 <path d="M7011 1626 c-18 -19 -29 -36 -23 -39 5 -4 23 9 41 27 18 19 29 36 23 39 -5 4 -23 -9 -41 -27z"/>
 <path d="M6939 1544 c-13 -15 -35 -30 -48 -35 -17 -7 -21 -13 -14 -20 7 -7 17 -8 29 -1 30 16 76 69 66 76 -5 3 -20 -6 -33 -20z"/>
 <path d="M6325 1531 c-7 -13 17 -24 40 -19 9 1 16 8 16 13 0 14 -48 19 -56 6z"/>
 <path d="M6415 1530 c-3 -5 0 -13 8 -16 24 -9 172 0 170 11 -4 14 -170 19 -178 5z"/>
 <path d="M6135 1520 c-8 -13 20 -24 41 -16 20 8 9 26 -16 26 -10 0 -22 -5 -25 -10z"/>
 <path d="M6645 1520 c-3 -5 0 -13 8 -16 23 -8 82 0 82 11 0 14 -82 19 -90 5z"/>
 <path d="M6035 1510 c-8 -13 20 -24 41 -16 20 8 9 26 -16 26 -10 0 -22 -5 -25 -10z"/>
 <path d="M6795 1510 c-8 -13 20 -24 41 -16 20 8 9 26 -16 26 -10 0 -22 -5 -25 -10z"/>
 <path d="M5955 1501 c-7 -13 17 -24 40 -19 9 1 16 8 16 13 0 14 -48 19 -56 6z"/>
 <path d="M5875 1490 c-8 -13 20 -24 41 -16 20 8 9 26 -16 26 -10 0 -22 -5 -25 -10z"/>
 <path d="M5829 1472 c-16 -19 -19 -60 -4 -52 6 3 9 9 7 14 -2 5 4 16 13 26 9 10 12 21 7 24 -5 3 -16 -2 -23 -12z"/>
 <path d="M5846 1371 c-6 -9 25 -39 66 -65 48 -31 38 -1 -12 36 -27 20 -52 33 -54 29z"/>
 <path d="M5985 1280 c-3 -5 -4 -11 -1 -11 3 -1 9 -2 14 -3 4 -1 17 -7 30 -14 12 -7 27 -10 32 -7 5 3 11 1 15 -5 4 -6 11 -8 16 -5 5 3 6 0 3 -8 -6 -18 12 -32 21 -17 7 12 -24 54 -33 45 -3 -3 -10 0 -17 5 -6 5 -20 11 -31 13 -10 1 -24 6 -31 10 -6 4 -14 3 -18 -3z"/>
 <path d="M5745 1220 c-8 -13 20 -24 41 -16 20 8 9 26 -16 26 -10 0 -22 -5 -25 -10z"/>
 <path d="M5835 1211 c-7 -13 17 -24 40 -19 9 1 16 8 16 13 0 14 -48 19 -56 6z"/>
 </g>
<g id="layerbg5" fill="#9deb87" stroke="none">
 <path d="M3061 5074 c-55 -39 -58 -108 -8 -163 29 -31 114 -85 161 -102 34 -12 36 -14 19 -27 -85 -64 -207 -92 -398 -92 -114 0 -141 -11 -165 -70 -24 -59 29 -130 99 -130 63 0 68 -10 32 -76 -17 -32 -31 -62 -31 -68 0 -6 -6 -23 -14 -38 -8 -14 -19 -50 -25 -80 -16 -73 -58 -192 -81 -231 -24 -39 -26 -85 -4 -115 18 -26 65 -52 93 -52 55 0 125 113 171 275 33 118 49 162 86 241 34 73 74 110 192 180 l42 25 0 -49 c0 -60 52 -286 72 -309 19 -24 76 -45 101 -37 29 8 67 44 78 72 6 16 1 54 -16 126 -34 140 -33 191 5 266 l30 59 132 65 c119 58 210 92 230 88 4 -1 18 2 31 7 13 5 109 15 214 21 179 11 260 9 593 -14 42 -3 315 -50 418 -73 42 -8 77 -12 82 -7 8 8 30 134 30 168 0 8 -8 20 -18 25 -24 13 -486 90 -585 97 -186 14 -377 17 -557 9 -192 -8 -294 -30 -435 -95 l-81 -37 -102 18 c-112 20 -209 60 -264 108 -41 35 -89 41 -127 15z"/>
 <path d="M5070 4635 c-257 -69 -398 -173 -645 -478 l-30 -37 -135 -7 c-179 -8 -210 -24 -210 -110 0 -31 7 -46 30 -68 30 -29 34 -30 120 -27 l90 2 -20 -49 c-21 -53 -78 -151 -94 -164 -6 -4 -29 -11 -51 -17 -230 -57 -253 -66 -276 -104 -29 -47 -24 -83 15 -122 37 -37 50 -39 126 -23 28 6 54 8 57 5 12 -12 -48 -94 -81 -110 -49 -23 -76 -61 -76 -106 0 -31 7 -44 35 -69 45 -39 75 -39 141 -1 84 48 131 111 209 280 21 47 61 119 87 161 26 42 48 79 48 82 0 8 55 127 98 215 l36 73 22 -90 c27 -108 36 -126 74 -146 47 -24 78 -19 117 20 40 40 40 25 4 220 -27 145 -21 246 18 289 58 63 202 146 295 170 90 24 90 24 105 125 7 50 10 95 6 101 -8 13 -15 12 -115 -15z"/>
 </g>
<g id="layerbg6" fill="#fbf5f3" stroke="none">
 <path d="M6075 11107 c-20 -32 -32 -363 -16 -465 26 -165 106 -242 250 -242 110 0 204 71 232 174 6 23 9 74 7 114 -6 89 -37 140 -112 187 -40 24 -62 30 -121 33 -52 3 -81 0 -102 -12 l-30 -15 5 93 c6 117 -10 156 -63 156 -25 0 -39 -6 -50 -23z m283 -328 c57 -20 81 -125 44 -199 -33 -67 -148 -75 -189 -13 -21 31 -23 141 -4 177 23 43 85 58 149 35z"/>
 <path d="M1850 10911 c-71 -15 -120 -53 -156 -121 -15 -27 -19 -56 -19 -125 0 -81 3 -96 30 -145 18 -33 47 -66 73 -85 40 -27 51 -30 121 -30 62 0 82 4 105 21 l29 21 23 -24 c30 -30 48 -29 73 3 20 25 21 39 21 233 0 171 -3 210 -16 229 -19 27 -55 28 -79 2 -17 -19 -18 -19 -54 -1 -44 23 -105 31 -151 22z m138 -130 c41 -22 57 -143 27 -201 -33 -64 -135 -82 -184 -32 -49 48 -49 184 0 228 36 32 101 35 157 5z"/>
 <path d="M2291 10901 c-16 -16 -20 -42 -26 -197 -11 -260 -3 -475 19 -509 13 -19 24 -25 44 -23 49 6 52 25 52 374 0 310 -1 322 -21 348 -24 31 -42 33 -68 7z"/>
 <path d="M3781 10909 c-71 -14 -129 -58 -164 -124 -29 -54 -30 -184 -3 -235 61 -115 180 -170 304 -140 53 12 102 48 102 75 0 8 -9 24 -21 36 -16 16 -28 20 -52 15 -18 -3 -59 -9 -93 -12 -57 -6 -63 -5 -93 22 -27 24 -33 38 -38 86 -15 148 75 208 219 146 57 -24 81 -18 86 25 5 38 -12 63 -60 85 -52 25 -128 33 -187 21z"/>
 <path d="M4800 10911 c-71 -15 -120 -53 -156 -121 -14 -26 -19 -57 -19 -121 0 -75 4 -92 30 -144 20 -40 45 -69 73 -90 40 -27 51 -30 120 -30 63 0 83 4 107 22 l31 21 22 -25 c26 -30 48 -27 75 10 20 25 21 41 21 226 0 171 -2 202 -17 225 -21 31 -57 34 -82 6 -17 -19 -18 -19 -54 -1 -44 23 -105 31 -151 22z m122 -123 c35 -13 58 -64 58 -128 0 -91 -45 -140 -129 -140 -80 0 -120 76 -99 188 10 55 33 81 79 91 35 8 44 7 91 -11z"/>
 <path d="M1129 10893 c-11 -13 -14 -78 -14 -325 l0 -310 24 -19 c29 -23 33 -23 61 -1 19 16 22 30 27 137 l6 120 118 0 119 0 0 -90 c0 -105 13 -161 40 -175 26 -14 58 3 70 36 15 40 12 584 -3 614 -17 33 -57 38 -83 9 -16 -18 -19 -39 -22 -145 l-4 -124 -117 0 -118 0 -6 131 c-4 75 -11 137 -18 145 -16 19 -64 18 -80 -3z"/>
 <path d="M2594 10889 c-17 -19 -19 -41 -22 -189 l-3 -168 -44 -7 c-44 -6 -75 -32 -75 -62 0 -27 39 -53 80 -53 l40 0 0 -47 c0 -62 18 -97 52 -101 37 -4 68 38 68 94 0 40 2 44 25 44 39 0 92 26 100 49 14 44 -26 74 -97 74 l-27 0 -3 173 c-3 152 -5 174 -22 193 -24 27 -48 27 -72 0z"/>
 <path d="M3007 10895 c-58 -22 -94 -52 -124 -103 -25 -41 -28 -57 -28 -132 0 -94 18 -141 72 -192 97 -93 292 -80 360 24 31 46 37 119 14 162 -33 60 -145 95 -248 77 -31 -6 -58 -9 -61 -7 -11 11 22 46 55 57 35 11 150 8 200 -7 21 -6 63 24 63 45 0 22 -54 71 -88 81 -52 14 -170 11 -215 -5z m167 -271 c25 -10 21 -70 -6 -88 -47 -33 -149 -13 -173 35 -19 36 -19 38 8 49 25 10 147 13 171 4z"/>
 <path d="M4134 10889 c-18 -20 -19 -40 -22 -334 -2 -260 0 -320 12 -349 19 -45 54 -49 85 -10 18 23 21 41 21 135 l0 109 38 -16 c20 -8 62 -16 92 -17 78 -2 117 22 154 97 29 57 30 63 30 211 1 137 -1 155 -18 174 -24 26 -50 27 -75 2 -16 -16 -20 -40 -25 -137 -7 -130 -21 -205 -39 -216 -18 -12 -87 -9 -124 4 l-33 12 0 151 c0 100 -4 158 -13 175 -17 33 -57 38 -83 9z"/>
 <path d="M5234 10885 l-26 -26 4 -167 c3 -149 6 -171 25 -208 32 -60 76 -84 152 -84 78 0 119 17 161 67 l33 40 31 -35 c41 -47 98 -72 167 -72 70 0 115 27 147 90 20 41 22 58 22 211 l0 168 -26 20 c-33 26 -36 26 -65 2 -23 -18 -24 -27 -30 -178 -3 -87 -7 -159 -8 -160 -29 -38 -89 -45 -121 -13 -27 27 -48 109 -56 225 -5 81 -10 104 -27 123 -27 29 -51 28 -75 -3 -16 -20 -22 -48 -27 -123 -12 -186 -36 -242 -105 -242 -64 0 -74 25 -80 203 -5 141 -6 150 -29 168 -30 25 -37 24 -67 -6z"/>
 <path d="M6763 10894 c-52 -19 -128 -98 -142 -150 -15 -52 -13 -131 3 -177 53 -149 244 -210 378 -122 98 65 102 211 8 260 -51 27 -134 37 -197 26 -31 -6 -58 -9 -61 -7 -11 11 22 46 55 57 35 11 150 8 200 -7 24 -7 63 25 63 51 0 25 -44 62 -86 74 -54 15 -171 12 -221 -5z m182 -280 c10 -10 14 -25 11 -38 -3 -12 -6 -24 -6 -27 0 -12 -52 -29 -86 -29 -52 0 -101 26 -113 61 -8 22 -7 31 2 34 7 2 19 6 27 8 8 3 45 6 82 6 49 1 71 -3 83 -15z"/>
 <path d="M7265 10890 c-15 -17 -19 -44 -23 -189 l-5 -169 -43 -7 c-43 -6 -74 -33 -74 -62 0 -27 39 -53 79 -53 l39 0 7 -64 c7 -72 20 -89 62 -84 34 4 53 37 53 94 l0 41 50 7 c37 5 54 13 66 31 30 46 -3 85 -76 88 l-38 1 -4 179 c-3 163 -5 180 -22 193 -27 19 -50 18 -71 -6z"/>
 <path d="M7584 10889 c-17 -19 -19 -41 -22 -213 -4 -202 4 -258 38 -276 25 -13 70 4 77 30 7 25 5 25 49 -5 65 -44 144 -25 144 35 0 36 -38 68 -92 76 -21 4 -49 15 -63 25 -23 19 -24 25 -27 163 -3 125 -6 147 -22 165 -24 27 -58 27 -82 0z"/>
 <path d="M8045 10886 c-94 -44 -137 -115 -138 -226 -1 -151 101 -254 253 -253 127 0 210 72 210 182 0 42 -5 56 -30 85 -17 19 -47 40 -67 47 -42 13 -142 16 -196 5 -36 -7 -38 -6 -27 13 25 47 131 66 223 40 72 -20 116 41 65 88 -56 50 -207 60 -293 19z m186 -266 c22 -12 25 -48 6 -74 -19 -26 -104 -33 -145 -12 -52 27 -67 71 -29 86 31 12 144 12 168 0z"/>
 <path d="M6717 10342 c-10 -10 -17 -26 -17 -35 0 -39 118 -137 165 -137 26 0 108 53 135 87 22 29 26 73 8 91 -21 21 -55 13 -102 -23 l-45 -34 -41 34 c-47 39 -79 44 -103 17z"/>
 <path d="M1030 9778 c-92 -47 -119 -145 -59 -213 18 -20 45 -43 60 -51 42 -21 7386 -21 7428 0 15 8 42 31 60 51 60 68 33 166 -59 213 l-44 22 -3671 0 -3671 0 -44 -22z"/>
 <path d="M2539 9090 c-115 -15 -223 -90 -274 -190 -55 -109 -60 -304 -9 -438 30 -83 98 -166 168 -207 106 -62 279 -56 378 14 l53 37 15 -30 c30 -62 102 -69 144 -13 17 23 21 51 28 214 6 114 6 257 0 363 -10 193 -22 235 -68 246 -37 10 -88 -18 -104 -56 -13 -31 -13 -31 -34 -12 -63 58 -182 87 -297 72z m198 -194 c67 -34 102 -102 110 -212 13 -174 -72 -278 -227 -278 -95 0 -137 24 -174 98 -26 52 -30 69 -30 150 0 185 78 273 231 262 34 -3 75 -12 90 -20z"/>
 <path d="M4857 9090 c-186 -47 -307 -216 -307 -430 0 -141 38 -229 139 -323 91 -84 145 -102 306 -102 123 0 133 1 189 29 160 79 236 240 213 456 -15 148 -100 271 -233 336 -67 34 -83 37 -172 40 -53 2 -114 -1 -135 -6z m183 -181 c105 -24 160 -109 160 -249 0 -137 -45 -211 -145 -239 -204 -56 -355 126 -289 350 34 115 141 169 274 138z"/>
 <path d="M7553 9089 c-77 -9 -169 -56 -219 -112 -80 -88 -114 -226 -95 -379 24 -182 96 -294 231 -357 46 -21 70 -26 145 -26 103 0 147 13 210 61 l45 34 14 -34 c10 -24 24 -37 49 -45 48 -16 84 -1 105 46 15 33 17 80 17 378 0 320 -1 342 -20 380 -36 72 -109 71 -146 -2 l-15 -31 -38 29 c-69 51 -167 71 -283 58z m164 -180 c91 -24 145 -115 145 -249 0 -167 -77 -253 -227 -254 -78 0 -120 16 -154 60 -79 100 -61 350 29 414 53 37 129 48 207 29z"/>
 <path d="M8335 9090 c-11 -4 -29 -18 -40 -30 -18 -20 -21 -41 -27 -254 -9 -337 -9 -717 1 -828 7 -73 14 -105 30 -126 42 -59 107 -47 139 26 14 33 16 100 16 557 0 286 -3 540 -7 565 -12 73 -59 111 -112 90z"/>
 <path d="M6693 9058 c-17 -18 -49 -69 -71 -113 -84 -169 -232 -595 -288 -829 -32 -136 -28 -171 23 -193 87 -36 126 28 251 402 33 99 77 234 97 300 20 66 40 123 44 128 4 4 36 -79 70 -185 90 -276 168 -493 202 -566 43 -90 106 -115 155 -61 14 16 16 32 12 97 -5 62 -23 129 -93 337 -136 405 -228 629 -283 688 -36 38 -79 37 -119 -5z"/>
 <path d="M985 9055 c-18 -17 -25 -35 -25 -62 0 -131 116 -828 165 -990 19 -63 53 -93 106 -93 31 0 43 6 72 40 19 22 48 75 65 118 16 42 63 160 102 261 68 171 74 183 85 160 16 -31 51 -120 116 -294 61 -166 92 -229 126 -261 46 -42 122 -26 151 32 16 30 68 287 112 554 69 414 75 502 37 538 -46 44 -124 16 -146 -51 -15 -47 -46 -240 -80 -496 -17 -123 -32 -225 -34 -227 -2 -2 -9 15 -16 38 -19 64 -139 365 -172 429 -60 120 -142 132 -194 29 -28 -55 -141 -335 -176 -433 -29 -86 -29 -89 -69 198 -17 121 -40 276 -52 345 -20 114 -24 128 -54 158 -40 40 -84 43 -119 7z"/>
 <path d="M3421 9056 c-36 -38 -41 -83 -41 -373 l0 -273 -74 0 c-63 0 -79 -3 -100 -22 -15 -13 -29 -38 -32 -55 -6 -28 -1 -38 29 -68 33 -33 38 -35 105 -35 l69 0 5 -101 c6 -122 22 -152 84 -157 71 -5 103 54 104 192 l0 68 26 -6 c44 -11 133 4 160 28 14 12 27 37 31 58 5 32 1 41 -25 68 -29 28 -35 30 -111 30 l-81 0 -1 233 c-1 318 -8 394 -38 418 -33 27 -82 25 -110 -5z"/>
 <path d="M4113 9065 c-12 -8 -26 -30 -32 -48 -5 -17 -13 -161 -16 -319 l-7 -288 -73 0 c-69 0 -75 -2 -99 -31 -64 -76 -9 -149 114 -149 33 0 60 -1 60 -2 1 -2 5 -49 9 -106 10 -120 29 -152 88 -152 66 0 103 74 103 206 0 52 1 55 21 49 39 -13 127 5 159 32 43 36 42 91 -1 127 -27 23 -39 26 -105 26 l-74 0 -1 198 c0 108 -4 248 -8 309 -6 99 -10 116 -31 138 -27 29 -74 33 -107 10z"/>
 <path d="M5540 8667 c-49 -25 -63 -87 -30 -129 31 -41 86 -48 357 -48 266 0 312 6 349 41 51 48 19 121 -63 140 -62 14 -583 11 -613 -4z"/>
 <path d="M1080 7298 c-49 -26 -51 -54 -48 -558 l3 -465 25 -45 c32 -57 77 -87 143 -95 29 -4 162 -5 295 -3 l244 3 29 33 c31 35 34 47 19 86 -20 53 -53 60 -310 64 -141 2 -240 8 -247 14 -9 7 -13 49 -13 143 l0 132 169 9 c148 8 173 12 198 30 36 27 45 100 15 127 -27 25 -109 37 -253 37 l-128 0 -3 225 c-3 211 -4 226 -24 245 -26 26 -81 35 -114 18z"/>
 <path d="M2105 7300 c-69 -14 -158 -62 -207 -111 -80 -80 -118 -178 -118 -309 0 -197 99 -350 267 -412 84 -31 244 -31 325 1 68 26 151 98 180 154 25 51 34 138 19 195 -13 48 -69 115 -115 139 -84 44 -271 57 -391 28 -76 -18 -76 -18 -68 3 13 36 56 83 96 104 63 32 187 36 298 9 107 -26 101 -26 138 5 41 34 41 72 0 118 -48 55 -121 78 -264 82 -66 2 -138 -1 -160 -6z m217 -470 c42 -12 58 -34 58 -80 0 -81 -56 -120 -172 -120 -115 1 -180 40 -209 127 -8 24 -8 38 -1 45 31 31 246 49 324 28z"/>
 <path d="M2793 7295 c-44 -31 -48 -68 -48 -430 0 -372 3 -394 60 -431 54 -35 135 17 135 87 0 20 2 19 35 -10 58 -51 107 -71 174 -71 80 0 116 28 116 90 0 61 -48 102 -145 124 -82 19 -145 48 -158 74 -5 9 -12 125 -14 257 -5 254 -12 290 -57 315 -28 15 -73 12 -98 -5z"/>
 <path d="M5137 7300 c-129 -33 -246 -130 -288 -241 -21 -56 -24 -80 -24 -189 1 -119 2 -128 32 -192 99 -213 362 -298 589 -192 57 27 128 97 149 147 22 55 27 114 15 174 -17 82 -78 142 -174 172 -83 26 -251 29 -336 6 -72 -19 -71 -19 -59 13 41 107 204 151 387 103 104 -27 108 -27 144 9 25 26 29 36 24 63 -9 44 -50 83 -115 108 -44 17 -83 22 -181 25 -69 2 -142 -1 -163 -6z m232 -476 c75 -30 67 -140 -13 -178 -44 -21 -164 -21 -214 -1 -63 27 -112 90 -112 146 0 41 256 66 339 33z"/>
 <path d="M3438 7271 l-33 -29 -3 -256 c-3 -271 3 -340 39 -412 27 -53 60 -85 119 -116 39 -20 59 -23 150 -22 90 0 112 4 155 24 61 30 117 85 148 146 l24 46 13 -33 c21 -50 87 -117 145 -147 43 -22 65 -27 162 -30 100 -4 117 -2 158 18 59 29 108 87 131 158 17 50 19 90 19 340 l0 284 -33 29 c-41 37 -73 37 -114 0 l-33 -29 -6 -249 c-5 -206 -9 -255 -24 -291 -24 -59 -57 -82 -115 -82 -66 0 -107 30 -146 107 -36 71 -50 153 -62 370 -8 139 -9 144 -37 173 -39 40 -86 41 -125 2 -32 -32 -35 -53 -45 -257 -13 -273 -72 -395 -192 -395 -62 0 -97 21 -119 72 -15 36 -19 83 -23 288 -6 256 -9 274 -53 304 -33 24 -64 19 -100 -13z"/>
 </g>
<g id="layer101" fill="#3fad20" stroke="none">
 <path d="M3473 5580 c-41 -9 -92 -48 -135 -101 -18 -23 -47 -58 -65 -78 l-31 -36 -99 25 c-122 31 -287 34 -370 6 -67 -22 -125 -79 -147 -141 -22 -66 -20 -93 10 -192 41 -129 21 -153 -127 -153 -94 0 -133 -14 -175 -62 -80 -91 -83 -187 -10 -400 29 -85 46 -154 46 -183 0 -53 -5 -59 -147 -177 -66 -55 -87 -80 -111 -130 -71 -152 -83 -343 -27 -450 15 -29 37 -65 49 -81 50 -65 216 -119 375 -121 73 -1 97 3 161 28 137 54 273 202 420 456 24 41 56 88 72 103 25 26 33 28 71 22 23 -4 83 -30 134 -57 126 -67 177 -73 261 -28 38 20 71 47 88 71 15 21 31 39 35 39 13 0 10 -79 -4 -120 -24 -69 -142 -130 -253 -130 -95 0 -152 -19 -204 -70 -38 -37 -48 -54 -53 -93 -7 -50 1 -80 31 -112 47 -52 74 -68 148 -86 76 -20 154 -59 154 -79 0 -11 -111 -102 -148 -121 -61 -32 -169 -122 -200 -168 -84 -123 -36 -294 113 -406 l50 -37 90 5 c135 7 270 59 429 166 103 70 179 111 205 111 13 0 59 -9 104 -21 115 -29 224 -28 284 3 25 13 60 40 77 61 29 36 31 46 34 127 3 57 -2 114 -12 159 -9 38 -16 104 -16 145 0 66 3 78 26 105 33 39 72 41 174 6 103 -35 106 -34 119 25 6 28 11 56 11 63 0 6 18 68 39 137 93 295 112 360 126 440 9 47 27 135 40 195 32 145 42 220 27 211 -7 -4 -37 -14 -67 -21 -93 -25 -230 -104 -301 -174 -28 -27 -32 -39 -37 -108 -5 -58 -2 -106 14 -188 35 -193 35 -180 1 -215 -34 -34 -67 -38 -112 -15 -23 12 -33 29 -50 81 -11 37 -23 91 -27 121 -3 30 -9 50 -13 46 -16 -17 -150 -294 -150 -310 0 -3 -22 -40 -48 -82 -26 -42 -66 -114 -87 -161 -78 -168 -130 -236 -213 -279 -54 -28 -84 -26 -121 5 -55 46 -38 125 35 160 37 18 66 53 90 109 14 34 14 36 -3 31 -108 -33 -149 -32 -184 3 -46 47 -31 127 28 148 43 16 133 41 188 53 88 19 102 28 143 98 33 58 72 142 72 157 0 3 -42 4 -94 3 -88 -2 -97 -1 -120 21 -26 25 -35 76 -20 116 11 26 60 45 121 45 32 0 94 3 139 6 78 7 81 8 104 42 31 45 183 219 224 255 129 118 293 199 479 238 47 10 57 16 57 33 0 12 3 37 6 57 l6 36 -58 12 c-108 22 -409 74 -444 77 -322 22 -415 25 -593 14 -105 -6 -201 -16 -214 -21 -13 -5 -27 -8 -31 -7 -21 5 -112 -31 -237 -93 l-140 -69 -28 -62 c-34 -79 -35 -128 -2 -264 26 -109 24 -134 -11 -165 -11 -9 -29 -20 -41 -23 -30 -9 -91 18 -103 46 -20 49 -60 242 -60 294 0 30 -3 54 -6 54 -12 0 -107 -61 -162 -103 -70 -53 -113 -140 -172 -352 -46 -161 -109 -265 -162 -265 -28 0 -76 27 -88 49 -16 30 -12 73 10 108 23 39 65 158 81 231 6 30 17 66 25 80 8 15 14 32 14 37 0 6 16 41 35 77 l36 67 -48 6 c-76 9 -96 18 -116 53 -23 39 -17 73 18 108 22 22 31 24 128 24 172 0 260 16 350 63 42 23 76 45 74 50 -2 6 -21 17 -43 26 -89 36 -165 96 -183 144 -8 21 -7 36 3 62 27 64 96 75 154 24 55 -48 152 -88 264 -108 l102 -18 81 37 c141 65 243 87 435 95 181 8 371 5 557 -9 74 -5 534 -79 574 -91 12 -4 19 11 32 72 9 42 14 80 9 84 -4 4 -54 17 -112 29 -92 19 -148 22 -445 26 -187 3 -370 10 -407 15 -103 16 -179 58 -277 152 -111 107 -180 159 -264 196 -127 57 -189 69 -264 51z"/>
 <path d="M8425 2022 c-22 -9 -70 -34 -106 -54 -36 -21 -70 -38 -76 -38 -5 0 -31 -14 -59 -32 -86 -55 -187 -108 -264 -139 -41 -17 -93 -39 -115 -49 -125 -61 -221 -97 -230 -89 -12 12 -13 195 -1 304 7 68 6 82 -7 94 -19 15 -62 -7 -244 -126 -91 -59 -133 -96 -230 -200 -193 -207 -191 -205 -210 -199 -77 24 -598 35 -753 16 -47 -6 -129 -15 -183 -22 -106 -12 -132 -25 -121 -62 18 -62 95 -124 194 -157 68 -22 99 -43 86 -56 -16 -16 -317 -8 -403 11 -46 9 -87 14 -93 11 -35 -22 25 -86 144 -154 96 -56 260 -101 362 -101 36 0 44 -3 44 -18 0 -45 -120 -105 -271 -136 -31 -7 -45 -32 -28 -52 19 -24 79 -37 138 -30 77 9 343 64 393 82 51 18 48 18 48 -11 0 -42 -65 -103 -159 -149 -94 -46 -113 -65 -91 -91 11 -14 24 -16 62 -11 134 18 485 192 700 347 l138 99 52 -11 c69 -15 215 -6 348 21 201 42 452 128 474 163 15 23 -11 47 -50 47 -69 0 -28 38 71 65 71 20 295 105 313 118 17 13 15 44 -3 51 -8 3 -59 -5 -112 -19 -54 -13 -124 -28 -156 -34 -32 -6 -62 -13 -66 -16 -5 -2 -15 2 -22 11 -16 19 -5 30 142 139 137 102 366 328 395 390 28 58 30 90 8 99 -9 3 -16 6 -17 5 -1 0 -20 -8 -42 -17z"/>
 </g>
<g id="layer102" fill="#016fb9" stroke="none">
 <path d="M3075 11994 c-44 -2 -217 -11 -385 -19 -286 -14 -381 -20 -734 -46 -77 -5 -309 -12 -515 -15 -447 -6 -489 -12 -834 -109 -95 -27 -100 -30 -153 -88 -64 -71 -95 -122 -132 -215 -26 -67 -26 -68 -25 -327 0 -143 2 -345 4 -450 3 -189 -10 -427 -31 -580 -6 -44 -17 -125 -25 -180 -46 -315 -56 -532 -67 -1540 -15 -1335 -15 -2121 -1 -2440 16 -344 18 -601 5 -690 -6 -38 -13 -126 -17 -195 -3 -69 -10 -192 -15 -275 -5 -82 -12 -197 -15 -255 -3 -58 -15 -186 -25 -285 -106 -987 -102 -902 -106 -2345 -2 -873 2 -1069 26 -1170 17 -73 33 -200 35 -275 3 -90 28 -166 79 -235 50 -68 66 -81 143 -120 l61 -30 219 -6 c199 -5 227 -4 305 15 226 55 324 61 638 41 294 -19 605 -21 760 -5 84 8 211 12 335 9 213 -4 273 -8 755 -54 113 -11 300 -24 415 -30 116 -6 233 -13 260 -15 28 -2 183 -9 345 -15 162 -6 311 -13 330 -15 19 -2 125 -6 235 -10 110 -4 223 -9 250 -11 121 -9 896 -12 1050 -4 160 9 508 40 675 60 41 5 136 12 210 15 74 4 217 15 318 26 101 10 214 19 251 19 38 0 133 7 212 14 79 8 187 18 239 21 52 3 136 10 185 15 100 11 169 14 525 29 135 6 273 13 307 15 108 9 205 68 233 141 22 58 29 121 19 181 -16 106 -30 256 -40 439 -23 450 -29 660 -29 1075 0 245 -4 540 -10 655 -5 116 -12 329 -15 475 -4 146 -9 268 -11 271 -2 4 -4 458 -5 1010 -1 552 -6 1054 -11 1114 -4 61 -12 299 -17 530 -5 231 -13 539 -18 685 -10 341 -10 749 0 870 5 52 13 142 18 200 5 58 13 326 18 595 5 290 15 564 25 670 9 99 20 241 26 315 11 137 23 245 40 335 16 85 48 354 60 490 6 72 15 168 20 215 11 111 13 193 14 555 1 165 -2 334 -7 375 -20 201 -41 348 -54 377 -22 54 -69 99 -135 128 l-62 28 -781 -7 c-429 -3 -827 -10 -885 -14 -58 -4 -456 -7 -885 -6 -719 0 -1287 12 -2120 44 -137 5 -324 11 -415 14 -220 8 -964 14 -1065 10z m3095 -905 c9 -21 11 -60 7 -129 l-6 -99 32 19 c23 15 50 20 98 20 86 0 160 -36 204 -99 28 -40 30 -48 30 -140 0 -91 -2 -101 -30 -147 -40 -65 -113 -104 -195 -104 -144 0 -216 69 -241 232 -13 85 -5 429 11 459 7 13 21 19 44 19 28 0 36 -5 46 -31z m-4164 -213 l41 -23 9 21 c5 12 20 23 33 24 46 7 51 -14 51 -239 0 -188 -2 -209 -19 -230 -16 -21 -22 -22 -45 -11 -16 7 -26 20 -26 32 0 20 -2 20 -37 -7 -33 -25 -45 -28 -113 -28 -67 0 -82 4 -118 28 -104 68 -135 266 -59 377 57 85 184 110 283 56z m348 12 c14 -19 16 -69 16 -340 0 -181 -4 -328 -10 -342 -12 -34 -54 -36 -71 -3 -29 53 -22 663 8 692 20 21 39 19 57 -7z m1601 -3 c44 -18 65 -42 65 -76 0 -40 -21 -45 -80 -20 -143 61 -242 -6 -227 -153 6 -64 21 -89 63 -112 31 -17 70 -16 170 2 32 6 64 -14 64 -41 0 -43 -104 -82 -190 -72 -86 10 -155 58 -196 137 -30 55 -26 181 6 240 57 102 204 145 325 95z m999 -7 c38 -19 38 -19 53 1 19 28 59 27 74 -1 9 -16 13 -84 13 -219 0 -169 -2 -200 -17 -223 -10 -14 -24 -26 -32 -26 -15 0 -41 23 -47 42 -3 8 -15 4 -39 -13 -29 -20 -45 -24 -110 -24 -65 0 -81 4 -116 27 -103 68 -135 268 -60 378 56 84 180 109 281 58z m-3742 -38 c3 -30 6 -94 7 -142 l1 -88 130 0 130 0 0 118 c0 132 10 165 53 170 21 3 29 -2 37 -23 13 -33 13 -575 1 -608 -5 -13 -17 -27 -25 -30 -47 -18 -66 33 -66 173 l0 95 -129 0 -128 0 -6 -124 c-4 -104 -8 -127 -23 -138 -22 -16 -26 -16 -50 1 -18 14 -19 31 -22 308 -3 332 -1 351 50 346 32 -3 33 -5 40 -58z m1449 43 c10 -12 15 -64 19 -192 l5 -175 32 -2 c74 -4 101 -23 88 -65 -7 -21 -67 -43 -101 -36 -23 4 -24 2 -24 -47 0 -60 -21 -96 -55 -96 -31 0 -37 12 -44 84 -6 59 -7 61 -36 64 -56 5 -74 12 -80 32 -11 36 11 59 65 66 l49 6 3 173 c3 179 9 205 48 205 10 0 24 -7 31 -17z m568 4 c61 -22 89 -87 43 -101 -10 -3 -35 -1 -57 4 -59 14 -141 12 -180 -4 -27 -12 -65 -58 -65 -79 0 -2 28 2 63 10 107 23 227 -7 258 -64 21 -39 17 -113 -10 -156 -59 -96 -257 -110 -349 -24 -49 45 -67 95 -67 187 0 75 3 91 27 131 45 77 111 108 228 108 41 0 90 -5 109 -12z m981 -13 c6 -14 10 -92 10 -175 l0 -149 36 -15 c41 -17 107 -20 134 -5 24 13 38 79 46 223 6 122 15 147 53 147 40 0 46 -26 45 -184 0 -141 -2 -155 -26 -208 -19 -40 -36 -62 -60 -74 -41 -22 -128 -22 -180 0 -21 9 -40 16 -43 16 -3 0 -5 -51 -5 -113 0 -124 -11 -157 -55 -157 -42 0 -47 44 -43 381 3 328 5 339 54 339 17 0 28 -8 34 -26z m1090 6 c18 -18 20 -33 20 -142 0 -183 18 -228 90 -228 73 0 103 65 115 250 7 100 22 140 54 140 36 0 48 -31 55 -135 12 -176 48 -255 116 -255 75 0 90 35 90 206 0 67 4 134 9 147 13 32 39 41 67 22 24 -15 24 -18 24 -183 0 -191 -12 -235 -72 -272 -43 -26 -128 -26 -183 -1 -39 17 -95 72 -95 92 0 5 -4 9 -10 9 -5 0 -10 -6 -10 -14 0 -23 -51 -78 -87 -92 -47 -20 -148 -18 -185 4 -60 35 -72 78 -76 264 -3 158 -3 167 17 187 26 26 36 26 61 1z m1683 9 c42 -11 77 -41 77 -63 0 -25 -31 -48 -54 -41 -55 16 -172 17 -208 2 -35 -15 -69 -59 -56 -73 3 -3 33 0 67 6 111 20 221 -14 247 -75 33 -80 1 -162 -80 -204 -109 -56 -258 -19 -319 81 -34 55 -46 148 -27 216 15 57 79 126 133 146 50 17 167 20 220 5z m347 1 c12 -8 16 -43 18 -193 l4 -184 37 0 c51 0 79 -11 86 -33 13 -42 -27 -70 -101 -70 -22 0 -24 -4 -24 -44 0 -25 -4 -57 -10 -71 -8 -22 -15 -26 -42 -23 -33 3 -33 4 -43 73 -10 68 -11 70 -40 73 -56 5 -74 12 -80 32 -11 35 11 59 64 66 l48 6 5 174 c5 177 11 204 47 204 9 0 23 -5 31 -10z m337 -20 c8 -16 13 -71 13 -157 0 -155 7 -169 99 -187 54 -10 81 -32 81 -66 0 -64 -90 -68 -157 -7 l-22 20 -7 -27 c-7 -29 -43 -50 -69 -40 -29 11 -37 75 -33 270 3 208 8 228 57 222 15 -2 31 -13 38 -28z m614 19 c46 -16 69 -37 69 -65 0 -33 -31 -47 -78 -34 -62 17 -153 12 -189 -10 -30 -18 -60 -57 -50 -66 2 -3 33 0 69 5 66 11 158 2 197 -18 40 -22 61 -61 61 -116 0 -102 -78 -168 -199 -168 -151 -1 -245 93 -244 243 1 155 91 240 254 240 42 0 91 -5 110 -11z m-1461 -574 l41 -34 46 35 c57 44 96 44 101 1 5 -38 -17 -68 -74 -106 -58 -38 -78 -39 -135 -2 -75 47 -106 100 -77 129 21 21 55 13 98 -23z m1637 -545 c81 -36 110 -137 57 -200 -15 -17 -39 -37 -55 -45 -43 -23 -7385 -23 -7428 0 -16 8 -40 28 -55 45 -53 63 -24 164 57 200 41 19 114 20 3712 20 3598 0 3671 -1 3712 -20z m-5763 -695 c45 -8 126 -46 145 -69 19 -23 26 -20 39 18 23 62 106 74 131 19 37 -78 35 -720 -2 -776 -33 -51 -112 -40 -131 18 -6 17 -11 31 -12 33 -1 2 -27 -15 -58 -37 -43 -30 -74 -42 -128 -52 -249 -45 -429 118 -445 403 -12 211 53 350 196 416 80 37 154 44 265 27z m2470 -29 c129 -63 208 -179 223 -326 23 -214 -49 -370 -203 -446 -56 -27 -66 -29 -189 -29 -158 0 -215 19 -300 97 -96 88 -135 179 -135 318 0 177 76 317 210 385 73 37 114 45 222 41 89 -3 105 -6 172 -40z m2575 22 c24 -6 65 -26 92 -45 l49 -33 14 35 c29 69 104 73 134 7 15 -32 17 -79 17 -372 0 -256 -3 -344 -13 -373 -17 -47 -50 -63 -98 -47 -27 9 -36 20 -45 50 l-12 39 -35 -31 c-140 -122 -390 -95 -503 56 -127 168 -127 474 -1 617 84 96 248 136 401 97z m678 -7 c24 -31 27 -112 27 -621 0 -551 -1 -575 -49 -606 -30 -19 -69 -10 -90 23 -30 45 -37 212 -30 698 4 322 10 467 18 485 23 48 94 60 124 21z m-1610 -3 c50 -55 147 -292 278 -683 82 -242 88 -266 89 -345 1 -83 1 -85 -27 -98 -47 -23 -82 -1 -116 72 -34 71 -111 286 -207 579 -37 114 -71 204 -75 200 -4 -5 -28 -75 -54 -158 -69 -223 -153 -470 -188 -555 -52 -130 -83 -160 -142 -140 -49 16 -53 51 -21 186 80 333 277 855 354 937 33 34 80 37 109 5z m-5708 -15 c22 -23 30 -46 44 -123 15 -87 97 -635 97 -652 0 -5 4 -8 9 -8 5 0 26 46 46 103 45 122 115 297 157 389 23 50 37 69 60 79 40 16 76 3 104 -39 28 -41 111 -238 171 -404 26 -70 50 -128 55 -128 4 0 8 5 8 11 0 63 93 680 111 736 13 40 43 63 83 63 86 0 87 -63 6 -550 -45 -272 -96 -525 -112 -554 -17 -32 -40 -45 -79 -46 -64 0 -93 43 -178 275 -52 140 -85 226 -116 300 l-17 39 -15 -28 c-8 -16 -52 -124 -98 -240 -108 -276 -108 -276 -139 -313 -22 -26 -35 -33 -65 -33 -76 0 -90 28 -141 280 -58 290 -120 700 -120 793 0 74 75 104 129 50z m2426 13 c26 -19 33 -110 34 -418 l1 -238 85 0 c79 0 88 -2 112 -26 21 -21 24 -32 19 -62 -3 -20 -14 -44 -25 -53 -24 -19 -109 -32 -155 -24 l-33 7 -5 -102 c-6 -124 -22 -153 -86 -158 -59 -4 -73 21 -81 151 l-6 102 -78 5 c-72 5 -81 8 -104 34 -19 23 -23 36 -19 60 10 50 29 61 119 66 l82 5 5 300 c3 165 9 307 14 315 31 51 80 66 121 36z m690 -6 c24 -26 33 -155 34 -447 l1 -203 79 0 c65 0 83 -4 105 -21 23 -18 27 -28 24 -62 -5 -61 -38 -81 -133 -82 l-75 0 0 -57 c0 -77 -18 -156 -41 -179 -25 -25 -81 -25 -103 0 -16 17 -28 95 -36 234 0 4 -29 7 -65 7 -69 0 -118 17 -129 45 -11 30 -6 62 15 89 19 24 26 26 99 26 l78 0 6 293 c7 295 14 349 44 367 29 16 78 11 97 -10z m1982 -406 c40 -30 40 -88 0 -118 -27 -20 -42 -21 -295 -24 -299 -4 -362 3 -389 44 -13 20 -14 34 -7 62 15 62 23 63 361 60 289 -3 303 -4 330 -24z m-5008 -1369 c13 -13 16 -53 19 -244 l3 -229 167 -4 c210 -5 227 -11 227 -83 0 -47 -2 -51 -33 -66 -24 -13 -76 -19 -197 -24 l-165 -7 0 -138 c0 -118 2 -139 18 -153 14 -13 56 -16 252 -19 198 -3 240 -6 267 -21 67 -36 47 -123 -33 -140 -21 -4 -154 -7 -294 -5 -292 3 -304 7 -350 89 l-25 44 -3 462 c-3 491 0 536 41 553 29 13 87 4 106 -15z m1253 -4 c102 -39 139 -118 76 -164 -26 -20 -26 -20 -123 3 -172 40 -302 19 -370 -61 -28 -34 -49 -78 -41 -86 3 -3 36 2 75 11 131 30 311 18 397 -27 45 -23 91 -81 105 -129 15 -57 6 -145 -19 -195 -29 -55 -102 -118 -171 -144 -76 -30 -231 -32 -311 -6 -171 58 -270 207 -270 407 0 177 76 308 215 374 83 39 123 46 260 42 93 -3 133 -8 177 -25z m443 23 c41 -16 48 -58 53 -309 3 -183 7 -245 18 -262 20 -31 78 -59 164 -79 95 -21 135 -55 135 -114 0 -59 -28 -80 -107 -80 -68 0 -117 21 -178 77 l-40 35 0 -30 c0 -51 -20 -81 -61 -94 -32 -9 -42 -8 -63 5 -47 31 -51 66 -51 417 0 179 4 342 8 363 14 64 63 93 122 71z m2596 -23 c65 -25 96 -54 105 -98 5 -26 1 -37 -19 -57 -31 -31 -36 -32 -139 -5 -114 30 -233 24 -303 -14 -52 -28 -89 -72 -100 -118 l-7 -27 68 19 c98 27 259 26 350 -2 95 -29 147 -81 164 -163 30 -146 -47 -275 -194 -326 -164 -58 -354 -22 -464 87 -24 25 -58 74 -75 111 -30 64 -31 73 -32 192 0 108 3 133 24 189 41 108 150 199 278 231 21 5 94 8 163 6 98 -3 137 -8 181 -25z m-1951 9 c41 -22 45 -47 50 -300 5 -222 8 -249 27 -292 45 -98 171 -108 247 -18 49 59 85 237 86 425 1 143 26 195 94 195 22 0 40 -8 56 -25 22 -23 24 -38 32 -168 14 -258 40 -370 101 -435 54 -58 144 -70 195 -27 58 48 65 84 71 358 l6 249 28 24 c36 30 68 30 104 0 l28 -24 0 -284 c0 -331 -7 -371 -81 -445 -55 -55 -97 -66 -225 -61 -87 3 -112 8 -154 30 -64 34 -108 79 -139 147 -20 44 -26 51 -31 35 -31 -95 -81 -155 -161 -194 -42 -20 -64 -24 -154 -24 -91 -1 -111 2 -150 22 -60 31 -82 53 -108 106 -37 72 -43 141 -40 412 l3 256 28 24 c30 26 57 30 87 14z m3020 -1531 c78 -13 247 -77 315 -120 67 -42 253 -231 296 -299 19 -30 50 -82 68 -115 32 -56 63 -99 190 -263 27 -34 75 -108 107 -164 44 -78 83 -129 172 -222 164 -174 285 -290 340 -328 368 -251 637 -567 720 -849 28 -93 61 -386 56 -494 -2 -44 -5 -135 -8 -202 -11 -282 -87 -440 -285 -593 -39 -30 -71 -59 -71 -63 0 -5 4 -6 9 -3 17 11 41 -6 41 -28 0 -11 -11 -43 -24 -71 -29 -62 -258 -288 -395 -390 -147 -109 -158 -120 -142 -139 7 -9 17 -13 22 -11 4 3 34 10 66 16 32 6 102 21 156 34 53 14 104 22 112 19 18 -7 20 -38 3 -51 -18 -13 -242 -98 -313 -118 -99 -27 -140 -65 -71 -65 39 0 65 -24 50 -47 -22 -35 -273 -121 -474 -163 -133 -27 -279 -36 -348 -21 l-52 11 -138 -99 c-215 -155 -566 -329 -700 -347 -38 -5 -51 -3 -62 11 -22 26 -3 45 91 91 94 46 159 107 159 149 0 29 3 29 -48 11 -50 -18 -316 -73 -393 -82 -59 -7 -119 6 -138 30 -17 20 -3 45 28 52 81 17 122 30 176 56 72 36 95 55 95 80 0 15 -8 18 -44 18 -102 0 -266 45 -362 101 -75 42 -154 106 -154 124 0 9 -9 15 -24 15 -37 0 -105 27 -179 71 -94 56 -361 324 -469 470 -49 67 -148 223 -148 234 0 2 -16 37 -36 77 -19 40 -42 98 -50 128 -16 62 -19 247 -4 301 6 20 16 69 24 110 16 89 79 333 105 409 11 30 29 109 40 175 12 66 24 130 26 143 4 16 1 22 -13 22 -10 0 -52 11 -92 25 -102 35 -141 33 -174 -6 -23 -27 -26 -39 -26 -105 0 -41 7 -107 16 -145 10 -45 15 -102 12 -159 -3 -81 -5 -91 -34 -127 -17 -21 -52 -48 -77 -61 -60 -31 -169 -32 -284 -3 -45 12 -91 21 -104 21 -26 0 -102 -41 -205 -111 -159 -107 -294 -159 -429 -166 l-90 -5 -50 37 c-149 112 -197 283 -113 406 31 46 139 136 200 168 37 19 148 110 148 121 0 20 -78 59 -154 79 -74 18 -101 34 -148 86 -30 32 -38 62 -31 112 5 39 15 56 53 93 52 51 109 70 204 70 111 0 229 61 253 130 14 41 17 120 4 120 -4 0 -20 -18 -35 -39 -17 -24 -50 -51 -88 -71 -84 -45 -135 -39 -261 28 -51 27 -111 53 -134 57 -38 6 -46 4 -71 -22 -16 -15 -48 -62 -72 -103 -147 -254 -283 -402 -420 -456 -64 -25 -88 -29 -161 -28 -159 2 -325 56 -375 121 -12 16 -34 52 -49 81 -56 107 -44 298 27 450 24 50 45 75 111 130 142 118 147 124 147 177 0 29 -17 98 -46 183 -73 213 -70 309 10 400 42 48 81 62 175 62 148 0 168 24 127 153 -30 99 -32 126 -10 192 22 62 80 119 147 141 83 28 248 25 370 -6 l99 -25 31 36 c18 20 47 56 66 79 101 126 199 138 398 49 84 -37 152 -88 264 -196 98 -94 174 -136 277 -152 37 -5 220 -12 407 -15 297 -4 353 -7 444 -26 58 -12 108 -22 112 -23 3 -1 35 54 70 122 112 217 282 395 424 445 118 41 243 65 340 64 50 0 124 4 165 9 84 11 213 7 310 -8z"/>
 <path d="M6242 10787 c-41 -23 -55 -55 -56 -128 0 -80 19 -116 77 -138 30 -11 42 -11 78 0 55 18 81 54 87 122 8 98 -41 158 -130 157 -18 -1 -43 -6 -56 -13z"/>
 <path d="M1882 10809 c-47 -10 -78 -43 -91 -96 -27 -107 24 -203 108 -203 88 0 141 56 141 148 0 29 -6 68 -14 87 -21 50 -83 77 -144 64z"/>
 <path d="M4831 10809 c-47 -10 -79 -46 -89 -101 -22 -114 25 -198 109 -198 86 0 139 56 139 148 0 110 -64 171 -159 151z"/>
 <path d="M2998 10628 c-32 -11 -34 -18 -12 -59 29 -57 136 -79 188 -38 33 26 37 83 7 99 -25 13 -147 12 -183 -2z"/>
 <path d="M6763 10629 c-38 -11 -37 -9 -19 -53 24 -58 121 -85 186 -51 17 9 30 19 30 23 0 4 3 17 6 29 4 14 -1 28 -15 42 -17 17 -33 21 -88 20 -38 0 -83 -5 -100 -10z"/>
 <path d="M8058 10628 c-33 -12 -36 -35 -8 -70 59 -76 210 -56 210 28 0 37 -36 54 -110 53 -36 0 -77 -5 -92 -11z"/>
 <path d="M2546 8916 c-93 -35 -140 -123 -140 -261 1 -153 51 -232 163 -256 59 -12 136 0 185 31 73 44 112 141 103 254 -8 112 -48 185 -120 222 -41 22 -145 27 -191 10z"/>
 <path d="M4896 8918 c-97 -26 -164 -145 -154 -273 14 -174 146 -276 305 -236 110 28 163 110 163 251 0 68 -5 95 -24 136 -50 107 -164 155 -290 122z"/>
 <path d="M7570 8918 c-90 -25 -139 -103 -147 -232 -9 -134 30 -231 111 -273 46 -25 159 -22 213 5 85 44 125 122 125 243 0 197 -129 306 -302 257z"/>
 <path d="M2075 6839 c-62 -14 -95 -30 -95 -46 0 -23 30 -86 53 -112 38 -41 95 -61 175 -61 118 0 182 46 182 130 0 47 -23 77 -68 90 -44 12 -191 12 -247 -1z"/>
 <path d="M5097 6834 c-87 -21 -88 -21 -70 -74 31 -94 103 -139 221 -140 87 0 136 19 163 64 38 61 20 125 -40 150 -51 20 -191 20 -274 0z"/>
 </g>
<g id="layer103" fill="#ff1d15" stroke="none">
 <path d="M6309 5766 c-2 -2 -35 -7 -74 -10 -38 -3 -83 -10 -100 -14 -17 -5 -45 -5 -62 0 -48 13 -151 -3 -286 -43 -112 -35 -173 -72 -257 -160 -188 -198 -288 -395 -305 -604 -10 -128 -63 -489 -91 -620 -14 -66 -32 -158 -40 -205 -17 -95 -48 -214 -69 -264 -8 -18 -21 -61 -29 -97 -8 -35 -29 -107 -46 -159 -31 -96 -35 -110 -65 -275 -9 -49 -18 -99 -20 -110 -2 -11 -7 -40 -10 -64 -4 -25 -13 -63 -21 -85 -16 -44 -47 -152 -64 -226 -6 -25 -20 -72 -30 -105 -10 -33 -22 -85 -25 -115 -4 -30 -13 -80 -21 -111 -19 -77 -18 -206 3 -293 16 -66 117 -281 149 -317 8 -8 14 -19 14 -22 0 -11 140 -199 169 -227 14 -14 69 -72 121 -128 156 -168 282 -260 390 -283 38 -8 54 -8 65 1 11 9 37 8 112 -4 206 -32 383 -33 383 -1 0 7 -24 21 -54 30 -80 25 -168 78 -194 115 -31 46 -38 78 -20 96 19 19 192 41 437 55 194 11 396 5 588 -18 l48 -5 138 149 c145 158 178 186 325 281 193 124 212 128 212 35 0 -32 -5 -92 -11 -133 -12 -74 -6 -172 10 -198 8 -14 26 -7 253 94 54 24 101 44 106 44 12 0 180 89 227 120 22 14 94 53 160 85 66 32 127 66 136 77 9 10 34 32 55 49 120 94 207 203 236 294 30 93 50 210 54 325 2 63 6 149 8 190 2 41 0 104 -5 140 -6 36 -12 100 -15 142 -6 98 -35 210 -74 290 -16 35 -30 67 -30 72 0 5 -11 24 -25 42 -14 18 -25 35 -25 39 0 8 -66 106 -85 126 -8 9 -15 18 -15 21 0 7 -88 105 -172 190 -66 68 -110 104 -196 162 -23 16 -52 38 -65 50 -13 11 -35 28 -51 35 -46 25 -174 147 -358 342 -107 114 -145 163 -173 222 -9 18 -21 41 -28 52 -63 100 -97 147 -138 191 -45 48 -103 132 -139 199 -42 77 -72 127 -91 147 -165 179 -229 236 -324 286 -64 34 -215 84 -280 92 -83 11 -211 20 -216 16z m-194 -717 c20 -18 47 -52 62 -76 24 -42 26 -50 19 -135 -8 -117 -25 -152 -89 -185 -38 -19 -60 -24 -90 -20 -47 6 -66 23 -118 101 -36 55 -39 67 -39 128 0 71 23 140 57 170 25 23 90 46 130 47 23 1 43 -8 68 -30z m828 19 c90 -47 257 -247 257 -307 0 -65 -75 -127 -137 -115 -53 11 -265 230 -283 294 -27 93 76 174 163 128z m-193 -723 c32 -17 81 -83 110 -148 27 -62 37 -221 17 -269 -20 -48 -95 -98 -147 -98 -91 0 -196 149 -192 272 2 83 68 223 114 243 43 18 62 18 98 0z m932 -106 c56 -12 92 -32 146 -83 47 -43 62 -77 62 -138 0 -44 -6 -62 -35 -105 -39 -58 -49 -65 -117 -82 -55 -13 -91 -2 -146 44 -61 52 -83 103 -85 203 -2 98 8 128 51 155 32 20 54 21 124 6z m-1880 -279 c66 -51 61 -123 -19 -269 -47 -84 -67 -111 -111 -144 -62 -47 -106 -53 -149 -21 -41 31 -55 80 -39 140 7 27 20 66 29 87 18 42 140 202 165 217 29 17 97 12 124 -10z m2467 -567 c108 -75 209 -226 210 -313 1 -69 -58 -132 -124 -132 -72 0 -182 112 -251 255 -38 81 -40 96 -19 138 32 62 131 90 184 52z m-1887 -4 c33 -18 48 -74 60 -217 14 -167 7 -221 -33 -267 -56 -63 -120 -66 -181 -8 -41 39 -52 104 -44 266 7 148 16 180 62 216 30 23 101 29 136 10z m1008 -394 c16 -8 58 -53 93 -101 72 -96 114 -206 103 -268 -12 -64 -105 -116 -166 -94 -77 28 -192 181 -210 281 -15 78 -12 103 17 138 46 55 109 72 163 44z m-1950 -190 c46 -24 64 -68 63 -160 0 -91 -21 -172 -65 -257 -49 -95 -107 -125 -175 -91 -105 51 -109 188 -11 403 17 36 37 73 46 84 34 37 93 46 142 21z m749 -334 c7 -5 62 -57 122 -116 157 -157 184 -223 134 -329 -30 -64 -97 -82 -171 -48 -111 51 -163 103 -224 226 -42 82 -47 115 -29 180 17 60 58 96 111 96 24 0 49 -4 57 -9z"/>
 </g>
<g id="layer104" fill="#f45f35" stroke="none">
 <path d="M6223 5753 c4 -3 10 -3 14 0 3 4 0 7 -7 7 -7 0 -10 -3 -7 -7z"/>
 <path d="M6498 5753 c7 -3 16 -2 19 1 4 3 -2 6 -13 5 -11 0 -14 -3 -6 -6z"/>
 <path d="M5983 5743 c4 -3 10 -3 14 0 3 4 0 7 -7 7 -7 0 -10 -3 -7 -7z"/>
 <path d="M6133 5743 c4 -3 10 -3 14 0 3 4 0 7 -7 7 -7 0 -10 -3 -7 -7z"/>
 <path d="M5923 5733 c4 -3 10 -3 14 0 3 4 0 7 -7 7 -7 0 -10 -3 -7 -7z"/>
 <path d="M6603 5733 c4 -3 10 -3 14 0 3 4 0 7 -7 7 -7 0 -10 -3 -7 -7z"/>
 <path d="M6633 5723 c4 -3 10 -3 14 0 3 4 0 7 -7 7 -7 0 -10 -3 -7 -7z"/>
 <path d="M6663 5713 c4 -3 10 -3 14 0 3 4 0 7 -7 7 -7 0 -10 -3 -7 -7z"/>
 <path d="M5793 5703 c4 -3 10 -3 14 0 3 4 0 7 -7 7 -7 0 -10 -3 -7 -7z"/>
 <path d="M6713 5693 c4 -3 10 -3 14 0 3 4 0 7 -7 7 -7 0 -10 -3 -7 -7z"/>
 <path d="M5683 5663 c4 -3 10 -3 14 0 3 4 0 7 -7 7 -7 0 -10 -3 -7 -7z"/>
 <path d="M5654 5648 c-4 -7 -3 -8 4 -4 12 7 16 16 8 16 -3 0 -8 -5 -12 -12z"/>
 <path d="M6855 5630 c3 -5 8 -10 11 -10 3 0 2 5 -1 10 -3 6 -8 10 -11 10 -3 0 -2 -4 1 -10z"/>
 <path d="M6880 5616 c0 -2 8 -10 18 -17 15 -13 16 -12 3 4 -13 16 -21 21 -21 13z"/>
 <path d="M5524 5538 l-19 -23 23 19 c12 11 22 21 22 23 0 8 -8 2 -26 -19z"/>
 <path d="M7015 5490 c10 -11 20 -20 23 -20 3 0 -3 9 -13 20 -10 11 -20 20 -23 20 -3 0 3 -9 13 -20z"/>
 <path d="M7050 5456 c0 -2 8 -10 18 -17 15 -13 16 -12 3 4 -13 16 -21 21 -21 13z"/>
 <path d="M5434 5438 c-4 -7 -3 -8 4 -4 7 4 12 9 12 12 0 8 -9 4 -16 -8z"/>
 <path d="M5394 5388 c-4 -7 -3 -8 4 -4 7 4 12 9 12 12 0 8 -9 4 -16 -8z"/>
 <path d="M7110 5386 c0 -2 8 -10 18 -17 15 -13 16 -12 3 4 -13 16 -21 21 -21 13z"/>
 <path d="M5374 5358 c-4 -7 -3 -8 4 -4 7 4 12 9 12 12 0 8 -9 4 -16 -8z"/>
 <path d="M7185 5280 c3 -5 8 -10 11 -10 3 0 2 5 -1 10 -3 6 -8 10 -11 10 -3 0 -2 -4 1 -10z"/>
 <path d="M7235 5190 c3 -5 8 -10 11 -10 3 0 2 5 -1 10 -3 6 -8 10 -11 10 -3 0 -2 -4 1 -10z"/>
 <path d="M5260 5140 c0 -7 3 -10 7 -7 3 4 3 10 0 14 -4 3 -7 0 -7 -7z"/>
 <path d="M7275 5130 c3 -5 8 -10 11 -10 3 0 2 5 -1 10 -3 6 -8 10 -11 10 -3 0 -2 -4 1 -10z"/>
 <path d="M5250 5110 c0 -7 3 -10 7 -7 3 4 3 10 0 14 -4 3 -7 0 -7 -7z"/>
 <path d="M7295 5100 c3 -5 8 -10 11 -10 3 0 2 5 -1 10 -3 6 -8 10 -11 10 -3 0 -2 -4 1 -10z"/>
 <path d="M5240 5070 c0 -7 3 -10 7 -7 3 4 3 10 0 14 -4 3 -7 0 -7 -7z"/>
 <path d="M5976 5064 c-22 -8 -48 -22 -59 -32 -34 -30 -57 -99 -57 -170 0 -61 3 -73 39 -128 52 -78 71 -95 118 -101 30 -4 52 1 90 20 64 33 81 68 89 185 7 85 5 93 -19 135 -58 98 -114 123 -201 91z"/>
 <path d="M6817 5057 c-33 -27 -49 -76 -37 -117 18 -64 230 -283 283 -294 62 -12 137 50 137 115 0 60 -167 260 -257 307 -36 20 -95 14 -126 -11z"/>
 <path d="M7325 5060 c3 -5 8 -10 11 -10 3 0 2 5 -1 10 -3 6 -8 10 -11 10 -3 0 -2 -4 1 -10z"/>
 <path d="M5222 4960 c0 -19 2 -27 5 -17 2 9 2 25 0 35 -3 9 -5 1 -5 -18z"/>
 <path d="M7445 4910 c3 -5 8 -10 11 -10 3 0 2 5 -1 10 -3 6 -8 10 -11 10 -3 0 -2 -4 1 -10z"/>
 <path d="M5212 4860 c0 -19 2 -27 5 -17 2 9 2 25 0 35 -3 9 -5 1 -5 -18z"/>
 <path d="M7465 4880 c3 -5 8 -10 11 -10 3 0 2 5 -1 10 -3 6 -8 10 -11 10 -3 0 -2 -4 1 -10z"/>
 <path d="M5202 4790 c0 -19 2 -27 5 -17 2 9 2 25 0 35 -3 9 -5 1 -5 -18z"/>
 <path d="M7545 4740 c3 -5 8 -10 11 -10 3 0 2 5 -1 10 -3 6 -8 10 -11 10 -3 0 -2 -4 1 -10z"/>
 <path d="M5192 4700 c0 -14 2 -19 5 -12 2 6 2 18 0 25 -3 6 -5 1 -5 -13z"/>
 <path d="M7585 4680 c3 -5 8 -10 11 -10 3 0 2 5 -1 10 -3 6 -8 10 -11 10 -3 0 -2 -4 1 -10z"/>
 <path d="M5182 4630 c0 -14 2 -19 5 -12 2 6 2 18 0 25 -3 6 -5 1 -5 -13z"/>
 <path d="M5172 4565 c0 -16 2 -22 5 -12 2 9 2 23 0 30 -3 6 -5 -1 -5 -18z"/>
 <path d="M7725 4530 c3 -5 8 -10 11 -10 3 0 2 5 -1 10 -3 6 -8 10 -11 10 -3 0 -2 -4 1 -10z"/>
 <path d="M5162 4505 c0 -16 2 -22 5 -12 2 9 2 23 0 30 -3 6 -5 -1 -5 -18z"/>
 <path d="M7755 4500 c3 -5 8 -10 11 -10 3 0 2 5 -1 10 -3 6 -8 10 -11 10 -3 0 -2 -4 1 -10z"/>
 <path d="M5152 4440 c0 -14 2 -19 5 -12 2 6 2 18 0 25 -3 6 -5 1 -5 -13z"/>
 <path d="M7810 4436 c0 -2 8 -10 18 -17 15 -13 16 -12 3 4 -13 16 -21 21 -21 13z"/>
 <path d="M5142 4380 c0 -14 2 -19 5 -12 2 6 2 18 0 25 -3 6 -5 1 -5 -13z"/>
 <path d="M7855 4390 c3 -5 8 -10 11 -10 3 0 2 5 -1 10 -3 6 -8 10 -11 10 -3 0 -2 -4 1 -10z"/>
 <path d="M6652 4345 c-46 -20 -112 -160 -114 -243 -4 -123 101 -272 192 -272 52 0 127 50 147 98 20 48 10 207 -17 269 -43 98 -107 164 -157 163 -10 -1 -33 -7 -51 -15z"/>
 <path d="M5130 4320 c0 -7 3 -10 7 -7 3 4 3 10 0 14 -4 3 -7 0 -7 -7z"/>
 <path d="M5120 4280 c0 -7 3 -10 7 -7 3 4 3 10 0 14 -4 3 -7 0 -7 -7z"/>
 <path d="M7985 4270 c3 -5 8 -10 11 -10 3 0 2 5 -1 10 -3 6 -8 10 -11 10 -3 0 -2 -4 1 -10z"/>
 <path d="M5111 4234 c0 -11 3 -14 6 -6 3 7 2 16 -1 19 -3 4 -6 -2 -5 -13z"/>
 <path d="M7558 4233 c-43 -27 -53 -57 -51 -155 2 -100 24 -151 85 -203 55 -46 91 -57 146 -44 68 17 78 24 117 82 29 43 35 61 35 105 0 61 -15 95 -62 138 -54 51 -90 71 -146 83 -70 15 -92 14 -124 -6z"/>
 <path d="M8025 4240 c3 -5 8 -10 11 -10 3 0 2 5 -1 10 -3 6 -8 10 -11 10 -3 0 -2 -4 1 -10z"/>
 <path d="M8055 4220 c3 -5 8 -10 11 -10 3 0 2 5 -1 10 -3 6 -8 10 -11 10 -3 0 -2 -4 1 -10z"/>
 <path d="M5101 4194 c0 -11 3 -14 6 -6 3 7 2 16 -1 19 -3 4 -6 -2 -5 -13z"/>
 <path d="M8095 4190 c3 -5 8 -10 11 -10 3 0 2 5 -1 10 -3 6 -8 10 -11 10 -3 0 -2 -4 1 -10z"/>
 <path d="M8120 4176 c0 -2 8 -10 18 -17 15 -13 16 -12 3 4 -13 16 -21 21 -21 13z"/>
 <path d="M5092 4140 c0 -14 2 -19 5 -12 2 6 2 18 0 25 -3 6 -5 1 -5 -13z"/>
 <path d="M8160 4146 c0 -2 8 -10 18 -17 15 -13 16 -12 3 4 -13 16 -21 21 -21 13z"/>
 <path d="M5081 4074 c0 -11 3 -14 6 -6 3 7 2 16 -1 19 -3 4 -6 -2 -5 -13z"/>
 <path d="M8245 4080 c3 -5 8 -10 11 -10 3 0 2 5 -1 10 -3 6 -8 10 -11 10 -3 0 -2 -4 1 -10z"/>
 <path d="M5071 4024 c0 -11 3 -14 6 -6 3 7 2 16 -1 19 -3 4 -6 -2 -5 -13z"/>
 <path d="M8315 4020 c3 -5 8 -10 11 -10 3 0 2 5 -1 10 -3 6 -8 10 -11 10 -3 0 -2 -4 1 -10z"/>
 <path d="M5678 3970 c-25 -15 -147 -175 -165 -217 -9 -21 -22 -60 -29 -87 -16 -60 -2 -109 39 -140 43 -32 87 -26 149 21 44 33 64 60 111 144 80 146 85 218 19 269 -27 22 -95 27 -124 10z"/>
 <path d="M8395 3940 c3 -5 8 -10 11 -10 3 0 2 5 -1 10 -3 6 -8 10 -11 10 -3 0 -2 -4 1 -10z"/>
 <path d="M5040 3910 c0 -7 3 -10 7 -7 3 4 3 10 0 14 -4 3 -7 0 -7 -7z"/>
 <path d="M8500 3826 c0 -2 8 -10 18 -17 15 -13 16 -12 3 4 -13 16 -21 21 -21 13z"/>
 <path d="M8545 3770 c3 -5 8 -10 11 -10 3 0 2 5 -1 10 -3 6 -8 10 -11 10 -3 0 -2 -4 1 -10z"/>
 <path d="M4990 3750 c0 -7 3 -10 7 -7 3 4 3 10 0 14 -4 3 -7 0 -7 -7z"/>
 <path d="M8595 3700 c3 -5 8 -10 11 -10 3 0 2 5 -1 10 -3 6 -8 10 -11 10 -3 0 -2 -4 1 -10z"/>
 <path d="M4960 3650 c0 -7 3 -10 7 -7 3 4 3 10 0 14 -4 3 -7 0 -7 -7z"/>
 <path d="M8645 3620 c3 -5 8 -10 11 -10 3 0 2 5 -1 10 -3 6 -8 10 -11 10 -3 0 -2 -4 1 -10z"/>
 <path d="M4950 3610 c0 -7 3 -10 7 -7 3 4 3 10 0 14 -4 3 -7 0 -7 -7z"/>
 <path d="M4940 3580 c0 -7 3 -10 7 -7 3 4 3 10 0 14 -4 3 -7 0 -7 -7z"/>
 <path d="M8690 3541 c0 -6 4 -13 10 -16 6 -3 7 1 4 9 -7 18 -14 21 -14 7z"/>
 <path d="M4920 3520 c0 -7 3 -10 7 -7 3 4 3 10 0 14 -4 3 -7 0 -7 -7z"/>
 <path d="M4910 3490 c0 -7 3 -10 7 -7 3 4 3 10 0 14 -4 3 -7 0 -7 -7z"/>
 <path d="M8730 3460 c0 -7 3 -10 7 -7 3 4 3 10 0 14 -4 3 -7 0 -7 -7z"/>
 <path d="M4901 3424 c0 -11 3 -14 6 -6 3 7 2 16 -1 19 -3 4 -6 -2 -5 -13z"/>
 <path d="M8133 3390 c-33 -20 -63 -66 -63 -97 0 -33 67 -160 119 -226 109 -138 208 -158 271 -54 33 53 23 113 -35 217 -21 36 -114 134 -156 163 -32 23 -97 21 -136 -3z"/>
 <path d="M6246 3379 c-46 -36 -55 -68 -62 -216 -8 -162 3 -227 44 -266 61 -58 125 -55 181 8 40 46 47 100 33 267 -12 143 -27 199 -60 217 -35 19 -106 13 -136 -10z"/>
 <path d="M4880 3330 c0 -7 3 -10 7 -7 3 4 3 10 0 14 -4 3 -7 0 -7 -7z"/>
 <path d="M4871 3264 c0 -11 3 -14 6 -6 3 7 2 16 -1 19 -3 4 -6 -2 -5 -13z"/>
 <path d="M4860 3200 c0 -7 3 -10 7 -7 3 4 3 10 0 14 -4 3 -7 0 -7 -7z"/>
 <path d="M4850 3150 c0 -7 3 -10 7 -7 3 4 3 10 0 14 -4 3 -7 0 -7 -7z"/>
 <path d="M8790 3130 c0 -7 3 -10 7 -7 3 4 3 10 0 14 -4 3 -7 0 -7 -7z"/>
 <path d="M4840 3100 c0 -7 3 -10 7 -7 3 4 3 10 0 14 -4 3 -7 0 -7 -7z"/>
 <path d="M4830 3060 c0 -7 3 -10 7 -7 3 4 3 10 0 14 -4 3 -7 0 -7 -7z"/>
 <path d="M7285 2996 c-42 -18 -85 -72 -85 -105 0 -131 116 -321 220 -359 61 -22 154 30 166 94 11 62 -31 172 -103 268 -85 113 -125 134 -198 102z"/>
 <path d="M4800 2970 c0 -7 3 -10 7 -7 3 4 3 10 0 14 -4 3 -7 0 -7 -7z"/>
 <path d="M4790 2930 c0 -7 3 -10 7 -7 3 4 3 10 0 14 -4 3 -7 0 -7 -7z"/>
 <path d="M4780 2900 c0 -7 3 -10 7 -7 3 4 3 10 0 14 -4 3 -7 0 -7 -7z"/>
 <path d="M5335 2811 c-30 -13 -50 -39 -83 -111 -75 -164 -90 -272 -49 -345 40 -73 120 -92 180 -44 31 24 80 117 103 194 23 80 23 209 1 252 -28 53 -96 77 -152 54z"/>
 <path d="M8800 2790 c0 -7 3 -10 7 -7 3 4 3 10 0 14 -4 3 -7 0 -7 -7z"/>
 <path d="M4750 2770 c0 -7 3 -10 7 -7 3 4 3 10 0 14 -4 3 -7 0 -7 -7z"/>
 <path d="M8802 2690 c0 -14 2 -19 5 -12 2 6 2 18 0 25 -3 6 -5 1 -5 -13z"/>
 <path d="M4710 2620 c0 -7 3 -10 7 -7 3 4 3 10 0 14 -4 3 -7 0 -7 -7z"/>
 <path d="M8791 2564 c0 -11 3 -14 6 -6 3 7 2 16 -1 19 -3 4 -6 -2 -5 -13z"/>
 <path d="M4700 2550 c0 -7 3 -10 7 -7 3 4 3 10 0 14 -4 3 -7 0 -7 -7z"/>
 <path d="M4690 2510 c0 -7 3 -10 7 -7 3 4 3 10 0 14 -4 3 -7 0 -7 -7z"/>
 <path d="M8780 2510 c0 -7 3 -10 7 -7 3 4 3 10 0 14 -4 3 -7 0 -7 -7z"/>
 <path d="M4680 2470 c0 -7 3 -10 7 -7 3 4 3 10 0 14 -4 3 -7 0 -7 -7z"/>
 <path d="M6060 2452 c-30 -30 -50 -86 -50 -138 0 -38 66 -174 111 -227 51 -62 164 -127 221 -127 44 0 83 25 103 66 50 106 23 172 -134 329 -60 59 -115 111 -122 116 -8 5 -33 9 -57 9 -35 0 -49 -6 -72 -28z"/>
 <path d="M8770 2470 c0 -7 3 -10 7 -7 3 4 3 10 0 14 -4 3 -7 0 -7 -7z"/>
 <path d="M8750 2400 c0 -7 3 -10 7 -7 3 4 3 10 0 14 -4 3 -7 0 -7 -7z"/>
 <path d="M8714 2318 c-4 -7 -3 -8 4 -4 12 7 16 16 8 16 -3 0 -8 -5 -12 -12z"/>
 <path d="M8684 2268 c-4 -7 -3 -8 4 -4 12 7 16 16 8 16 -3 0 -8 -5 -12 -12z"/>
 <path d="M4680 2250 c0 -7 3 -10 7 -7 3 4 3 10 0 14 -4 3 -7 0 -7 -7z"/>
 <path d="M8649 2223 c-13 -16 -12 -17 4 -4 16 13 21 21 13 21 -2 0 -10 -8 -17 -17z"/>
 <path d="M4690 2200 c0 -7 3 -10 7 -7 3 4 3 10 0 14 -4 3 -7 0 -7 -7z"/>
 <path d="M8589 2163 l-34 -38 38 34 c34 33 42 41 34 41 -2 0 -19 -17 -38 -37z"/>
 <path d="M4700 2170 c0 -7 3 -10 7 -7 3 4 3 10 0 14 -4 3 -7 0 -7 -7z"/>
 <path d="M8524 2108 c-4 -7 -3 -8 4 -4 12 7 16 16 8 16 -3 0 -8 -5 -12 -12z"/>
 <path d="M8474 2068 c-4 -7 -3 -8 4 -4 12 7 16 16 8 16 -3 0 -8 -5 -12 -12z"/>
 <path d="M7565 2020 c3 -5 8 -10 11 -10 3 0 2 5 -1 10 -3 6 -8 10 -11 10 -3 0 -2 -4 1 -10z"/>
 <path d="M7484 1998 c-4 -7 -3 -8 4 -4 7 4 12 9 12 12 0 8 -9 4 -16 -8z"/>
 <path d="M4780 1991 c0 -6 4 -13 10 -16 6 -3 7 1 4 9 -7 18 -14 21 -14 7z"/>
 <path d="M7384 1938 c-4 -7 -3 -8 4 -4 7 4 12 9 12 12 0 8 -9 4 -16 -8z"/>
 <path d="M8243 1933 c4 -3 10 -3 14 0 3 4 0 7 -7 7 -7 0 -10 -3 -7 -7z"/>
 <path d="M7354 1918 c-4 -7 -3 -8 4 -4 12 7 16 16 8 16 -3 0 -8 -5 -12 -12z"/>
 <path d="M7571 1884 c0 -11 3 -14 6 -6 3 7 2 16 -1 19 -3 4 -6 -2 -5 -13z"/>
 <path d="M4845 1880 c3 -5 8 -10 11 -10 3 0 2 5 -1 10 -3 6 -8 10 -11 10 -3 0 -2 -4 1 -10z"/>
 <path d="M7234 1838 c-4 -7 -3 -8 4 -4 7 4 12 9 12 12 0 8 -9 4 -16 -8z"/>
 <path d="M4875 1830 c3 -5 8 -10 11 -10 3 0 2 5 -1 10 -3 6 -8 10 -11 10 -3 0 -2 -4 1 -10z"/>
 <path d="M7561 1824 c0 -11 3 -14 6 -6 3 7 2 16 -1 19 -3 4 -6 -2 -5 -13z"/>
 <path d="M7155 1768 l-40 -43 43 40 c39 36 47 45 39 45 -2 0 -21 -19 -42 -42z"/>
 <path d="M8004 1798 c-4 -7 -3 -8 4 -4 12 7 16 16 8 16 -3 0 -8 -5 -12 -12z"/>
 <path d="M4905 1790 c3 -5 8 -10 11 -10 3 0 2 5 -1 10 -3 6 -8 10 -11 10 -3 0 -2 -4 1 -10z"/>
 <path d="M4935 1750 c3 -5 8 -10 11 -10 3 0 2 5 -1 10 -3 6 -8 10 -11 10 -3 0 -2 -4 1 -10z"/>
 <path d="M7873 1743 c4 -3 10 -3 14 0 3 4 0 7 -7 7 -7 0 -10 -3 -7 -7z"/>
 <path d="M4955 1720 c3 -5 8 -10 11 -10 3 0 2 5 -1 10 -3 6 -8 10 -11 10 -3 0 -2 -4 1 -10z"/>
 <path d="M7560 1680 c0 -7 3 -10 7 -7 3 4 3 10 0 14 -4 3 -7 0 -7 -7z"/>
 <path d="M7713 1673 c4 -3 10 -3 14 0 3 4 0 7 -7 7 -7 0 -10 -3 -7 -7z"/>
 <path d="M7014 1618 l-29 -33 33 29 c17 17 32 31 32 33 0 8 -8 1 -36 -29z"/>
 <path d="M5035 1630 c3 -5 8 -10 11 -10 3 0 2 5 -1 10 -3 6 -8 10 -11 10 -3 0 -2 -4 1 -10z"/>
 <path d="M7570 1631 c0 -6 4 -13 10 -16 6 -3 7 1 4 9 -7 18 -14 21 -14 7z"/>
 <path d="M7623 1633 c4 -3 10 -3 14 0 3 4 0 7 -7 7 -7 0 -10 -3 -7 -7z"/>
 <path d="M6934 1528 l-29 -33 33 29 c17 17 32 31 32 33 0 8 -8 1 -36 -29z"/>
 <path d="M6343 1523 c9 -2 23 -2 30 0 6 3 -1 5 -18 5 -16 0 -22 -2 -12 -5z"/>
 <path d="M6463 1523 c26 -2 67 -2 90 0 23 2 2 3 -48 3 -49 0 -68 -1 -42 -3z"/>
 <path d="M6148 1513 c6 -2 18 -2 25 0 6 3 1 5 -13 5 -14 0 -19 -2 -12 -5z"/>
 <path d="M6668 1513 c12 -2 32 -2 45 0 12 2 2 4 -23 4 -25 0 -35 -2 -22 -4z"/>
 <path d="M6048 1503 c6 -2 18 -2 25 0 6 3 1 5 -13 5 -14 0 -19 -2 -12 -5z"/>
 <path d="M6808 1503 c6 -2 18 -2 25 0 6 3 1 5 -13 5 -14 0 -19 -2 -12 -5z"/>
 <path d="M5973 1493 c9 -2 23 -2 30 0 6 3 -1 5 -18 5 -16 0 -22 -2 -12 -5z"/>
 <path d="M6883 1493 c4 -3 10 -3 14 0 3 4 0 7 -7 7 -7 0 -10 -3 -7 -7z"/>
 <path d="M5888 1483 c6 -2 18 -2 25 0 6 3 1 5 -13 5 -14 0 -19 -2 -12 -5z"/>
 <path d="M5865 1350 c10 -11 20 -20 23 -20 3 0 -3 9 -13 20 -10 11 -20 20 -23 20 -3 0 3 -9 13 -20z"/>
 <path d="M5335 1330 c3 -5 8 -10 11 -10 3 0 2 5 -1 10 -3 6 -8 10 -11 10 -3 0 -2 -4 1 -10z"/>
 <path d="M5905 1320 c3 -5 8 -10 11 -10 3 0 2 5 -1 10 -3 6 -8 10 -11 10 -3 0 -2 -4 1 -10z"/>
 <path d="M6043 1253 c4 -3 10 -3 14 0 3 4 0 7 -7 7 -7 0 -10 -3 -7 -7z"/>
 <path d="M5543 1223 c4 -3 10 -3 14 0 3 4 0 7 -7 7 -7 0 -10 -3 -7 -7z"/>
 <path d="M5703 1223 c4 -3 10 -3 14 0 3 4 0 7 -7 7 -7 0 -10 -3 -7 -7z"/>
 <path d="M6100 1220 c0 -7 3 -10 7 -7 3 4 3 10 0 14 -4 3 -7 0 -7 -7z"/>
 <path d="M5758 1213 c6 -2 18 -2 25 0 6 3 1 5 -13 5 -14 0 -19 -2 -12 -5z"/>
 <path d="M5853 1203 c9 -2 23 -2 30 0 6 3 -1 5 -18 5 -16 0 -22 -2 -12 -5z"/>
 <path d="M6053 1203 c4 -3 10 -3 14 0 3 4 0 7 -7 7 -7 0 -10 -3 -7 -7z"/>
 </g>
<g id="layer105" fill="#9deb87" stroke="none">
 <path d="M3067 5069 c-30 -18 -49 -73 -36 -106 18 -48 94 -108 183 -144 22 -9 41 -20 43 -26 2 -5 -32 -27 -74 -50 -90 -47 -178 -63 -350 -63 -97 0 -106 -2 -128 -24 -35 -35 -41 -69 -18 -108 20 -35 40 -44 116 -53 l48 -6 -36 -67 c-19 -36 -35 -71 -35 -77 0 -5 -6 -22 -14 -37 -8 -14 -19 -50 -25 -80 -16 -73 -58 -192 -81 -231 -22 -35 -26 -78 -10 -108 12 -22 60 -49 88 -49 53 0 116 104 162 265 59 212 102 299 172 352 55 42 150 103 162 103 3 0 6 -24 6 -54 0 -52 40 -245 60 -294 12 -28 73 -55 103 -46 12 3 30 14 41 23 35 31 37 56 11 165 -33 136 -32 185 2 264 l28 62 140 69 c125 62 216 98 237 93 4 -1 18 2 31 7 13 5 109 15 214 21 178 11 273 8 593 -14 39 -3 373 -61 435 -76 62 -15 62 -15 74 65 14 99 14 103 -6 109 -42 13 -500 86 -576 92 -186 14 -376 17 -557 9 -192 -8 -294 -30 -435 -95 l-81 -37 -102 18 c-112 20 -209 60 -264 108 -38 33 -85 41 -121 20z"/>
 <path d="M5070 4625 c-103 -27 -150 -45 -214 -79 -56 -31 -157 -102 -202 -143 -41 -36 -193 -210 -224 -255 -23 -34 -26 -35 -104 -42 -45 -3 -107 -6 -139 -6 -61 0 -110 -19 -121 -45 -15 -40 -6 -91 20 -116 23 -22 32 -23 120 -21 52 1 94 0 94 -3 0 -15 -39 -99 -72 -157 -41 -70 -55 -79 -143 -98 -55 -12 -145 -37 -188 -53 -59 -21 -74 -101 -28 -148 35 -35 76 -36 184 -3 17 5 17 3 3 -31 -24 -56 -53 -91 -90 -109 -46 -22 -66 -52 -66 -97 0 -29 7 -43 31 -63 37 -31 67 -33 121 -5 83 43 135 111 213 279 21 47 61 119 87 161 26 42 48 79 48 82 0 16 134 293 150 310 4 4 10 -16 13 -46 4 -30 16 -84 27 -121 17 -52 27 -69 50 -81 45 -23 78 -19 112 15 34 35 34 22 -1 215 -16 82 -19 130 -14 188 5 69 9 81 37 108 70 69 207 149 298 173 86 23 83 19 96 109 15 103 15 107 0 106 -7 0 -51 -11 -98 -24z"/>
 </g>
<g id="layer106" fill="#fbf5f3" stroke="none">
 <path d="M6080 11101 c-16 -30 -24 -374 -11 -459 25 -163 97 -232 241 -232 82 0 155 39 195 104 28 46 30 56 30 147 0 92 -2 100 -30 140 -44 63 -118 99 -204 99 -48 0 -75 -5 -98 -20 l-32 -19 6 99 c8 126 -4 160 -53 160 -23 0 -37 -6 -44 -19z m284 -315 c46 -19 70 -72 64 -143 -6 -68 -32 -104 -87 -122 -52 -16 -103 -1 -135 42 -26 35 -28 151 -3 188 34 48 97 62 161 35z"/>
 <path d="M1849 10901 c-116 -23 -177 -121 -166 -263 7 -87 43 -159 99 -195 36 -24 51 -28 118 -28 68 0 80 3 113 28 35 27 37 27 37 7 0 -12 10 -25 26 -32 23 -11 29 -10 45 11 17 21 19 42 19 230 0 225 -5 246 -51 239 -13 -1 -28 -12 -33 -24 l-9 -21 -41 23 c-48 26 -106 35 -157 25z m140 -111 c31 -16 51 -69 51 -132 0 -92 -53 -148 -141 -148 -84 0 -135 96 -108 203 23 93 108 126 198 77z"/>
 <path d="M2297 10895 c-30 -29 -37 -639 -8 -692 17 -33 59 -31 71 3 6 14 10 161 10 342 0 271 -2 321 -16 340 -18 26 -37 28 -57 7z"/>
 <path d="M3780 10899 c-60 -12 -120 -55 -150 -109 -32 -59 -36 -185 -6 -240 41 -79 110 -127 196 -137 86 -10 190 29 190 72 0 27 -32 47 -64 41 -100 -18 -139 -19 -170 -2 -42 23 -57 48 -63 112 -15 147 84 214 227 153 27 -12 56 -19 65 -15 20 7 19 60 -2 82 -40 39 -143 59 -223 43z"/>
 <path d="M4799 10901 c-150 -30 -215 -212 -134 -377 40 -82 86 -109 184 -109 65 0 81 4 110 24 24 17 36 21 39 13 6 -19 32 -42 47 -42 8 0 22 12 32 26 15 23 17 54 17 223 0 135 -4 203 -13 219 -15 28 -55 29 -74 1 -15 -20 -15 -20 -53 -1 -47 24 -107 33 -155 23z m138 -110 c31 -16 53 -73 53 -133 0 -92 -53 -148 -139 -148 -84 0 -131 84 -109 198 17 95 105 132 195 83z"/>
 <path d="M1129 10874 c-6 -18 -9 -133 -7 -322 3 -277 4 -294 22 -308 24 -17 28 -17 50 -1 15 11 19 34 23 138 l6 124 128 0 129 0 0 -95 c0 -140 19 -191 66 -173 8 3 20 17 25 30 12 33 12 575 -1 608 -8 21 -16 26 -37 23 -43 -5 -53 -38 -53 -170 l0 -118 -130 0 -130 0 -1 88 c-1 48 -4 112 -7 142 -7 53 -8 55 -40 58 -27 3 -34 -1 -43 -24z"/>
 <path d="M2599 10883 c-10 -12 -15 -61 -17 -188 l-3 -173 -49 -6 c-54 -7 -76 -30 -65 -66 6 -20 24 -27 80 -32 29 -3 30 -5 36 -64 7 -72 13 -84 44 -84 34 0 55 36 55 96 0 49 1 51 24 47 34 -7 94 15 101 36 13 42 -14 61 -88 65 l-32 2 -5 175 c-5 183 -12 209 -50 209 -10 0 -24 -7 -31 -17z"/>
 <path d="M3008 10885 c-58 -21 -87 -45 -116 -94 -24 -40 -27 -56 -27 -131 0 -92 18 -142 67 -187 92 -86 290 -72 349 24 27 43 31 117 10 156 -31 57 -151 87 -258 64 -35 -8 -63 -12 -63 -10 0 21 38 67 65 79 39 16 121 18 180 4 22 -5 47 -7 57 -4 46 14 18 79 -43 101 -46 16 -175 15 -221 -2z m173 -255 c30 -16 26 -73 -7 -99 -52 -41 -159 -19 -188 38 -22 41 -20 48 12 59 36 14 158 15 183 2z"/>
 <path d="M4139 10883 c-11 -13 -15 -81 -17 -322 -4 -337 1 -381 43 -381 44 0 55 33 55 157 0 62 2 113 5 113 3 0 22 -7 43 -16 52 -22 139 -22 180 0 24 12 41 34 60 74 24 53 26 67 26 208 1 158 -5 184 -45 184 -38 0 -47 -25 -53 -147 -8 -144 -22 -210 -46 -223 -27 -15 -93 -12 -134 5 l-36 15 0 149 c0 83 -4 161 -10 175 -11 30 -50 35 -71 9z"/>
 <path d="M5239 10879 c-20 -20 -20 -29 -17 -187 4 -186 16 -229 76 -264 37 -22 138 -24 185 -4 36 14 87 69 87 92 0 8 5 14 10 14 6 0 10 -4 10 -9 0 -20 56 -75 95 -92 55 -25 140 -25 183 1 60 37 72 81 72 272 0 165 0 168 -24 183 -28 19 -54 10 -67 -22 -5 -13 -9 -80 -9 -147 0 -171 -15 -206 -90 -206 -68 0 -104 79 -116 255 -7 104 -19 135 -55 135 -32 0 -47 -40 -54 -140 -12 -185 -42 -250 -115 -250 -72 0 -90 45 -90 228 0 109 -2 124 -20 142 -25 25 -35 25 -61 -1z"/>
 <path d="M6763 10884 c-54 -20 -118 -89 -133 -146 -19 -68 -7 -161 27 -216 61 -100 210 -137 319 -81 81 42 113 124 80 204 -26 61 -136 95 -247 75 -34 -6 -64 -9 -67 -6 -13 14 21 58 56 73 36 15 153 14 208 -2 23 -7 54 16 54 41 0 22 -35 52 -77 63 -53 15 -170 12 -220 -5z m188 -265 c14 -14 19 -28 15 -42 -3 -12 -6 -25 -6 -29 0 -4 -13 -14 -30 -23 -65 -34 -162 -7 -186 51 -8 19 -14 36 -14 38 0 11 69 24 133 25 55 1 71 -3 88 -20z"/>
 <path d="M7270 10885 c-9 -11 -15 -69 -18 -189 l-5 -174 -48 -6 c-53 -7 -75 -31 -64 -66 6 -20 24 -27 80 -32 29 -3 30 -5 40 -73 10 -69 10 -70 43 -73 27 -3 34 1 42 23 6 14 10 46 10 71 0 40 2 44 24 44 74 0 114 28 101 70 -7 22 -35 33 -86 33 l-37 0 -4 184 c-2 150 -6 185 -18 193 -22 14 -46 12 -60 -5z"/>
 <path d="M7589 10884 c-11 -13 -15 -62 -17 -208 -4 -195 4 -259 33 -270 26 -10 62 11 69 40 l7 27 22 -20 c67 -61 157 -57 157 7 0 34 -27 56 -81 66 -92 18 -99 32 -99 187 0 86 -5 141 -13 157 -15 31 -58 38 -78 14z"/>
 <path d="M8045 10876 c-89 -42 -127 -106 -128 -216 -1 -150 93 -244 244 -243 121 0 199 66 199 168 0 55 -21 94 -61 116 -39 20 -131 29 -197 18 -36 -5 -67 -8 -69 -5 -10 9 20 48 50 66 36 22 127 27 189 10 47 -13 78 1 78 34 0 48 -65 76 -179 76 -59 0 -87 -6 -126 -24z m193 -252 c51 -35 14 -103 -61 -111 -55 -6 -99 9 -127 45 -44 55 -13 80 100 81 44 1 73 -4 88 -15z"/>
 <path d="M6722 10338 c-29 -29 2 -82 77 -129 57 -37 77 -36 135 2 57 38 79 68 74 106 -5 43 -44 43 -101 -1 l-46 -35 -41 34 c-43 36 -77 44 -98 23z"/>
 <path d="M1033 9770 c-81 -36 -110 -137 -57 -200 15 -17 39 -37 55 -45 43 -23 7385 -23 7428 0 16 8 40 28 55 45 53 63 24 164 -57 200 -41 19 -114 20 -3712 20 -3598 0 -3671 -1 -3712 -20z"/>
 <path d="M2539 9080 c-113 -14 -215 -84 -264 -180 -81 -159 -50 -435 62 -561 60 -66 114 -96 200 -110 103 -18 193 -1 269 52 31 22 57 39 58 37 1 -2 6 -16 12 -33 19 -58 98 -69 131 -18 37 56 39 698 2 776 -25 55 -108 43 -131 -19 -13 -38 -20 -41 -39 -18 -45 54 -185 89 -300 74z m198 -174 c72 -37 112 -110 120 -222 9 -113 -30 -210 -103 -254 -49 -31 -126 -43 -185 -31 -71 15 -107 45 -137 110 -21 46 -26 70 -26 146 0 138 47 226 140 261 46 17 150 12 191 -10z"/>
 <path d="M4857 9080 c-183 -47 -297 -208 -297 -420 0 -139 39 -230 135 -318 85 -78 142 -97 300 -97 123 0 133 2 189 29 154 76 226 232 203 446 -15 147 -94 263 -223 326 -67 34 -83 37 -172 40 -53 2 -114 -1 -135 -6z m181 -160 c63 -14 118 -60 148 -124 19 -41 24 -68 24 -136 0 -141 -53 -223 -163 -251 -84 -21 -175 2 -233 59 -97 97 -97 304 1 398 60 58 127 74 223 54z"/>
 <path d="M7553 9079 c-76 -9 -170 -57 -215 -108 -126 -143 -126 -449 1 -617 113 -151 363 -178 503 -56 l35 31 12 -39 c9 -30 18 -41 45 -50 48 -16 81 0 98 47 10 29 13 117 13 373 0 293 -2 340 -17 372 -30 66 -105 62 -134 -7 l-14 -35 -49 33 c-74 51 -164 69 -278 56z m164 -161 c95 -24 155 -122 155 -257 0 -170 -84 -264 -237 -265 -79 0 -118 16 -159 64 -86 103 -69 351 29 426 55 41 131 53 212 32z"/>
 <path d="M8330 9077 c-14 -7 -30 -24 -37 -37 -8 -18 -14 -163 -18 -485 -7 -486 0 -653 30 -698 21 -33 60 -42 90 -23 48 31 49 55 49 606 0 509 -3 590 -27 621 -17 23 -58 30 -87 16z"/>
 <path d="M6698 9053 c-77 -82 -274 -604 -354 -937 -32 -135 -28 -170 21 -186 59 -20 90 10 142 140 35 85 119 332 188 555 26 83 50 153 54 158 4 4 38 -86 75 -200 96 -293 173 -508 207 -579 34 -73 69 -95 116 -72 28 13 28 15 27 98 -1 79 -7 103 -89 345 -131 391 -228 628 -278 683 -29 32 -76 29 -109 -5z"/>
 <path d="M990 9050 c-13 -13 -20 -33 -20 -57 0 -93 62 -503 120 -793 51 -252 65 -280 141 -280 30 0 43 7 65 33 31 37 31 37 139 313 46 116 90 224 98 240 l15 28 17 -39 c31 -74 64 -160 116 -300 85 -232 114 -275 178 -275 39 1 62 14 79 46 16 29 67 282 112 554 81 487 80 550 -6 550 -40 0 -70 -23 -83 -63 -18 -56 -111 -673 -111 -736 0 -6 -4 -11 -8 -11 -5 0 -29 58 -55 128 -60 166 -143 363 -171 404 -28 42 -64 55 -104 39 -23 -10 -37 -29 -60 -79 -42 -92 -112 -267 -157 -389 -20 -57 -41 -103 -46 -103 -5 0 -9 3 -9 8 0 17 -82 565 -97 652 -14 77 -22 100 -44 123 -33 33 -80 36 -109 7z"/>
 <path d="M3428 9053 c-8 -10 -19 -25 -24 -33 -5 -8 -11 -150 -14 -315 l-5 -300 -82 -5 c-90 -5 -109 -16 -119 -66 -4 -24 0 -37 19 -60 23 -26 32 -29 104 -34 l78 -5 6 -102 c8 -130 22 -155 81 -151 64 5 80 34 86 158 l5 102 33 -7 c46 -8 131 5 155 24 11 9 22 33 25 53 5 30 2 41 -19 62 -24 24 -33 26 -112 26 l-85 0 -1 238 c-1 308 -8 399 -34 418 -26 19 -79 18 -97 -3z"/>
 <path d="M4118 9060 c-30 -18 -37 -72 -44 -367 l-6 -293 -78 0 c-73 0 -80 -2 -99 -26 -21 -27 -26 -59 -15 -89 11 -28 60 -45 129 -45 36 0 65 -3 65 -7 8 -139 20 -217 36 -234 22 -25 78 -25 103 0 23 23 41 102 41 179 l0 57 75 0 c95 1 128 21 133 82 3 34 -1 44 -24 62 -22 17 -40 21 -105 21 l-79 0 -1 203 c-1 292 -10 421 -34 447 -19 21 -68 26 -97 10z"/>
 <path d="M5540 8657 c-35 -18 -49 -77 -27 -111 27 -41 90 -48 389 -44 253 3 268 4 295 24 40 30 40 88 0 118 -27 20 -41 21 -330 24 -232 2 -308 -1 -327 -11z"/>
 <path d="M1083 7290 c-41 -17 -44 -62 -41 -553 l3 -462 25 -44 c46 -82 58 -86 350 -89 140 -2 273 1 294 5 80 17 100 104 33 140 -27 15 -69 18 -267 21 -196 3 -238 6 -252 19 -16 14 -18 35 -18 153 l0 138 165 7 c121 5 173 11 197 24 31 15 33 19 33 66 0 72 -17 78 -227 83 l-167 4 -3 229 c-3 253 -4 256 -69 264 -19 3 -44 0 -56 -5z"/>
 <path d="M2105 7290 c-110 -23 -221 -103 -266 -192 -99 -193 -45 -465 114 -571 81 -55 146 -72 262 -71 120 1 189 24 259 86 58 50 87 105 93 177 12 134 -52 220 -192 257 -68 19 -231 17 -316 -2 -39 -9 -72 -14 -75 -11 -8 8 13 52 41 86 68 80 198 101 370 61 97 -23 97 -23 123 -3 63 46 26 125 -76 164 -44 17 -84 22 -177 25 -66 2 -138 -1 -160 -6z m217 -450 c45 -13 68 -43 68 -90 0 -84 -64 -130 -182 -130 -112 1 -177 38 -213 122 -21 52 -19 64 13 77 74 30 241 41 314 21z"/>
 <path d="M2791 7281 c-11 -11 -24 -37 -28 -58 -4 -21 -8 -184 -8 -363 0 -351 4 -386 51 -417 21 -13 31 -14 63 -5 41 13 61 43 61 94 l0 30 40 -35 c61 -56 110 -77 178 -77 79 0 107 21 107 80 0 59 -40 93 -135 114 -86 20 -144 48 -164 79 -11 17 -15 79 -18 262 -6 293 -13 315 -99 315 -16 0 -38 -9 -48 -19z"/>
 <path d="M5137 7290 c-128 -32 -237 -123 -278 -231 -21 -56 -24 -81 -24 -189 1 -119 2 -128 32 -192 17 -37 51 -86 75 -111 110 -109 300 -145 464 -87 147 51 224 180 194 326 -17 82 -69 134 -164 163 -91 28 -252 29 -350 2 l-68 -19 7 27 c31 127 204 184 403 132 103 -27 108 -26 139 5 20 20 24 31 19 57 -16 80 -105 118 -286 123 -69 2 -142 -1 -163 -6z m234 -456 c60 -25 78 -89 40 -150 -27 -45 -76 -64 -163 -64 -118 1 -190 46 -221 140 -18 53 -17 53 70 74 83 20 223 20 274 0z"/>
 <path d="M3443 7266 l-28 -24 -3 -256 c-3 -271 3 -340 40 -412 26 -53 48 -75 108 -106 39 -20 59 -23 150 -22 90 0 112 4 154 24 80 39 130 99 161 194 5 16 11 9 31 -35 31 -68 75 -113 139 -147 42 -22 67 -27 154 -30 128 -5 170 6 225 61 74 74 81 114 81 445 l0 284 -28 24 c-36 30 -68 30 -104 0 l-28 -24 -6 -249 c-6 -274 -13 -310 -71 -358 -51 -43 -141 -31 -195 27 -61 65 -87 177 -101 435 -8 130 -10 145 -32 168 -16 17 -34 25 -56 25 -68 0 -93 -52 -94 -195 0 -114 -17 -249 -40 -327 -32 -106 -88 -158 -170 -158 -61 0 -98 24 -123 78 -19 43 -22 70 -27 292 -5 253 -9 278 -50 300 -30 16 -57 12 -87 -14z"/>
 </g>

</svg>